RobotoFlex-opsz144-wght900-wdth151-GRAD-1.ufo
<glyph name="exclam" format="2">
  <advance width="776"/>
  <unicode hex="0021"/>
  <outline>
    <contour>
      <point x="74.6" y="259.1" type="qcurve" smooth="yes"/>
      <point x="74.6" y="370.7"/>
      <point x="236.3" y="529.1"/>
      <point x="385.0" y="529.1" type="qcurve" smooth="yes"/>
      <point x="538.6" y="529.1"/>
      <point x="701.4" y="370.7"/>
      <point x="701.4" y="259.1" type="qcurve" smooth="yes"/>
      <point x="701.4" y="146.4"/>
      <point x="539.6" y="-12.0"/>
      <point x="389.0" y="-12.0" type="qcurve" smooth="yes"/>
      <point x="236.3" y="-12.0"/>
      <point x="74.6" y="147.4"/>
    </contour>
    <contour>
      <point x="135.3" y="577.1" type="line"/>
      <point x="125.80000000000001" y="1456.0" type="line"/>
      <point x="650.2" y="1456.0" type="line"/>
      <point x="639.6" y="577.1" type="line"/>
    </contour>
  </outline>
</glyph>
<glyph name="quotedbl" format="2">
  <advance width="1227"/>
  <unicode hex="0022"/>
  <outline>
    <contour>
      <point x="80.1" y="741.2" type="line"/>
      <point x="61.7" y="1188.2" type="line"/>
      <point x="61.7" y="1456.0" type="line"/>
      <point x="581.9" y="1456.0" type="line"/>
      <point x="581.9" y="1188.2" type="line"/>
      <point x="564.6" y="741.2" type="line"/>
    </contour>
    <contour>
      <point x="663.5" y="741.2" type="line"/>
      <point x="645.1" y="1188.2" type="line"/>
      <point x="645.1" y="1456.0" type="line"/>
      <point x="1165.3" y="1456.0" type="line"/>
      <point x="1165.3" y="1188.2" type="line"/>
      <point x="1147.0" y="741.2" type="line"/>
    </contour>
  </outline>
</glyph>
<glyph name="numbersign" format="2">
	<unicode hex="0023"/>
	<advance width="1612"/>
	<outline>
		<contour>
			<point x="62" y="-20" type="line"/>
			<point x="466.7" y="1476.1" type="line"/>
			<point x="940.7" y="1476.1" type="line"/>
			<point x="537" y="-19.9" type="line"/>
		</contour>
		<contour>
			<point x="671" y="-20" type="line"/>
			<point x="1074.7" y="1476.1" type="line"/>
			<point x="1549.7" y="1476.1" type="line"/>
			<point x="1146" y="-20" type="line"/>
		</contour>
		<contour>
			<point x="12" y="300" type="line"/>
			<point x="12" y="646" type="line"/>
			<point x="1534" y="646" type="line"/>
			<point x="1534" y="300" type="line"/>
		</contour>
		<contour>
			<point x="77.7" y="810.4" type="line"/>
			<point x="77.7" y="1156.1" type="line"/>
			<point x="1599.7" y="1156.1" type="line"/>
			<point x="1599.7" y="810.4" type="line"/>
		</contour>
	</outline>
</glyph>
<glyph name="dollar" format="2">
	<unicode hex="0024"/>
	<advance width="1635"/>
	<outline>
		<contour>
			<point x="37" y="393" type="qcurve" smooth="yes"/>
			<point x="37" y="490" type="line"/>
			<point x="581" y="490" type="line"/>
			<point x="581" y="455" type="line" smooth="yes"/>
			<point x="580" y="405"/>
			<point x="721" y="357"/>
			<point x="823" y="357" type="qcurve" smooth="yes"/>
			<point x="933" y="357"/>
			<point x="1037" y="389"/>
			<point x="1037" y="418" type="qcurve" smooth="yes"/>
			<point x="1037" y="447"/>
			<point x="932" y="469"/>
			<point x="679" y="524" type="qcurve" smooth="yes"/>
			<point x="357" y="603"/>
			<point x="55" y="798"/>
			<point x="55" y="998" type="qcurve" smooth="yes"/>
			<point x="55" y="1229"/>
			<point x="465" y="1474"/>
			<point x="802" y="1474" type="qcurve" smooth="yes"/>
			<point x="1143" y="1474"/>
			<point x="1558" y="1270"/>
			<point x="1558" y="1080" type="qcurve" smooth="yes"/>
			<point x="1558" y="1000" type="line"/>
			<point x="1026" y="1000" type="line"/>
			<point x="1026" y="1023" type="line" smooth="yes"/>
			<point x="1026" y="1053"/>
			<point x="903" y="1083"/>
			<point x="816" y="1083" type="qcurve" smooth="yes"/>
			<point x="727" y="1083"/>
			<point x="615" y="1062"/>
			<point x="615" y="1044" type="qcurve" smooth="yes"/>
			<point x="615" y="1024"/>
			<point x="722" y="1012"/>
			<point x="1006" y="958" type="qcurve" smooth="yes"/>
			<point x="1287" y="904"/>
			<point x="1596" y="702"/>
			<point x="1596" y="490" type="qcurve" smooth="yes"/>
			<point x="1596" y="250"/>
			<point x="1180" y="-19"/>
			<point x="833" y="-19" type="qcurve" smooth="yes"/>
			<point x="485" y="-19"/>
			<point x="37" y="189"/>
		</contour>
		<contour>
			<point x="588" y="-149" type="line"/>
			<point x="588" y="758" type="line"/>
			<point x="1064" y="758" type="line"/>
			<point x="1064" y="101" type="line"/>
			<point x="1068" y="91" type="line"/>
			<point x="1068" y="-149" type="line"/>
		</contour>
		<contour>
			<point x="599" y="758" type="line"/>
			<point x="599" y="1353" type="line"/>
			<point x="594" y="1363" type="line"/>
			<point x="594" y="1608" type="line"/>
			<point x="1073" y="1608" type="line"/>
			<point x="1073" y="758" type="line"/>
		</contour>
	</outline>
</glyph>
<glyph name="ampersand" format="2">
	<unicode hex="0026"/>
	<advance width="1883"/>
	<outline>
		<contour>
			<point x="40" y="370" type="qcurve" smooth="yes"/>
			<point x="40" y="523.6"/>
			<point x="266.1" y="724.3"/>
			<point x="509.1" y="832" type="qcurve" smooth="yes"/>
			<point x="701.1" y="914.5" type="line" smooth="yes"/>
			<point x="828.9" y="971.8"/>
			<point x="961.2" y="1103.3"/>
			<point x="961.2" y="1151.6" type="qcurve" smooth="yes"/>
			<point x="961.2" y="1187.3"/>
			<point x="889.4" y="1222.9"/>
			<point x="844.1" y="1222.9" type="qcurve" smooth="yes"/>
			<point x="798.9" y="1222.9"/>
			<point x="720.5" y="1187.2"/>
			<point x="720.5" y="1154.6" type="qcurve" smooth="yes"/>
			<point x="720.5" y="1102.6"/>
			<point x="891.8" y="947.8"/>
			<point x="1025.1" y="827.6" type="qcurve" smooth="yes"/>
			<point x="1933.3" y="0" type="line"/>
			<point x="1295.3" y="0" type="line"/>
			<point x="495.5" y="689.5" type="line" smooth="yes"/>
			<point x="340" y="826.6"/>
			<point x="191.8" y="1026.6"/>
			<point x="191.8" y="1132.6" type="qcurve" smooth="yes"/>
			<point x="191.8" y="1300.8"/>
			<point x="517.9" y="1486"/>
			<point x="855.1" y="1486" type="qcurve" smooth="yes"/>
			<point x="1183.5" y="1486"/>
			<point x="1483.7" y="1312.8"/>
			<point x="1483.7" y="1135.6" type="qcurve" smooth="yes"/>
			<point x="1483.7" y="989.3"/>
			<point x="1235.2" y="771.1"/>
			<point x="1039.5" y="678.5" type="qcurve" smooth="yes"/>
			<point x="917.4" y="632" type="line" smooth="yes"/>
			<point x="671" y="518.7"/>
			<point x="578.9" y="470.1"/>
			<point x="578.9" y="428.1" type="qcurve" smooth="yes"/>
			<point x="578.9" y="374.1"/>
			<point x="681.1" y="343.1"/>
			<point x="796.9" y="343.1" type="qcurve" smooth="yes"/>
			<point x="981.6" y="343.1"/>
			<point x="1361.4" y="533.8"/>
			<point x="1400.4" y="762" type="qcurve"/>
			<point x="1919" y="762" type="line"/>
			<point x="1919" y="468"/>
			<point x="1218.4" y="-20"/>
			<point x="788.9" y="-20" type="qcurve" smooth="yes"/>
			<point x="398.7" y="-20"/>
			<point x="40" y="190.9"/>
		</contour>
	</outline>
</glyph>
<glyph name="quotesingle" format="2">
  <advance width="634"/>
  <unicode hex="0027"/>
  <outline>
    <contour>
      <point x="74.3" y="741.2" type="line"/>
      <point x="62.7" y="1188.2" type="line"/>
      <point x="62.7" y="1456.0" type="line"/>
      <point x="571.3" y="1456.0" type="line"/>
      <point x="571.3" y="1188.2" type="line"/>
      <point x="558.7" y="741.2" type="line"/>
    </contour>
  </outline>
</glyph>
<glyph name="parenleft" format="2">
  <advance width="981"/>
  <unicode hex="0028"/>
  <outline>
    <contour>
      <point x="940.0" y="-436.2" type="line"/>
      <point x="570.4" y="-387.0"/>
      <point x="68.9" y="79.1"/>
      <point x="68.9" y="514.0" type="qcurve" smooth="yes"/>
      <point x="68.9" y="525.0" type="line" smooth="yes"/>
      <point x="68.9" y="956.4"/>
      <point x="567.0" y="1425.2"/>
      <point x="939.9" y="1476.0" type="qcurve"/>
      <point x="939.9" y="1136.2" type="line"/>
      <point x="809.6" y="1099.3"/>
      <point x="688.5" y="879.4"/>
      <point x="688.5" y="532.0" type="qcurve" smooth="yes"/>
      <point x="688.5" y="508.0" type="line" smooth="yes"/>
      <point x="688.5" y="159.2"/>
      <point x="807.9" y="-59.0"/>
      <point x="940.0" y="-96.19999999999999" type="qcurve"/>
    </contour>
  </outline>
</glyph>
<glyph name="parenright" format="2">
  <advance width="981"/>
  <unicode hex="0029"/>
  <outline>
    <contour>
      <point x="42.0" y="-436.0" type="qcurve"/>
      <point x="42.0" y="-96.19999999999999" type="line"/>
      <point x="171.9" y="-60.599999999999994"/>
      <point x="292.5" y="159.2"/>
      <point x="292.5" y="508.0" type="qcurve" smooth="yes"/>
      <point x="292.5" y="532.0" type="line" smooth="yes"/>
      <point x="292.5" y="879.4"/>
      <point x="171.3" y="1099.2"/>
      <point x="42.0" y="1136.1" type="qcurve"/>
      <point x="42.0" y="1476.0" type="line"/>
      <point x="408.6" y="1426.2"/>
      <point x="912.1" y="959.2"/>
      <point x="912.1" y="526.0" type="qcurve" smooth="yes"/>
      <point x="912.1" y="515.0" type="line" smooth="yes"/>
      <point x="912.1" y="80.1"/>
      <point x="410.1" y="-386.5"/>
    </contour>
  </outline>
</glyph>
<glyph name="plus" format="2">
	<unicode hex="002B"/>
	<advance width="1135"/>
	<outline>
		<contour>
			<point x="56" y="451.8" type="line"/>
			<point x="56" y="956.4" type="line"/>
			<point x="1079" y="956.4" type="line"/>
			<point x="1079" y="451.8" type="line"/>
		</contour>
		<contour>
			<point x="313.8" y="197.6" type="line"/>
			<point x="313.8" y="1210.4" type="line"/>
			<point x="822" y="1210.4" type="line"/>
			<point x="822" y="197.6" type="line"/>
		</contour>
	</outline>
</glyph>
<glyph name="comma" format="2">
  <advance width="692"/>
  <unicode hex="002C"/>
  <outline>
    <contour>
      <point x="-21.0" y="-141.8" type="line"/>
      <point x="52.599999999999994" y="-86.0"/>
      <point x="99.0" y="40.1"/>
      <point x="99.0" y="113.4" type="qcurve" smooth="yes"/>
      <point x="99.0" y="503.4" type="line"/>
      <point x="618.9" y="503.4" type="line"/>
      <point x="618.9" y="117.4" type="line" smooth="yes"/>
      <point x="618.9" y="22.1"/>
      <point x="517.3" y="-165.6"/>
      <point x="450.9" y="-202.0" type="qcurve"/>
    </contour>
  </outline>
</glyph>
<glyph name="hyphen" format="2">
	<unicode hex="002D"/>
	<advance width="1054"/>
	<outline>
		<contour>
			<point x="84" y="381.5" type="line"/>
			<point x="84" y="868.5" type="line"/>
			<point x="972" y="868.5" type="line"/>
			<point x="972" y="381.5" type="line"/>
		</contour>
	</outline>
</glyph>
<glyph name="period" format="2">
  <advance width="720"/>
  <unicode hex="002E"/>
  <outline>
    <contour>
      <point x="45.400000000000006" y="270.2" type="qcurve" smooth="yes"/>
      <point x="45.400000000000006" y="389.0"/>
      <point x="207.3" y="550.5"/>
      <point x="359.0" y="550.5" type="qcurve" smooth="yes"/>
      <point x="510.8" y="550.5"/>
      <point x="672.6" y="389.0"/>
      <point x="672.6" y="269.2" type="qcurve" smooth="yes"/>
      <point x="672.6" y="149.5"/>
      <point x="510.8" y="-12.0"/>
      <point x="359.0" y="-12.0" type="qcurve" smooth="yes"/>
      <point x="207.3" y="-12.0"/>
      <point x="45.400000000000006" y="152.5"/>
    </contour>
  </outline>
</glyph>
<glyph name="zero" format="2">
	<unicode hex="0030"/>
	<advance width="1901"/>
	<outline>
		<contour>
			<point x="40.4" y="740" type="qcurve" smooth="yes"/>
			<point x="40.4" y="744" type="line" smooth="yes"/>
			<point x="40.4" y="1114.2"/>
			<point x="513.8" y="1480"/>
			<point x="949.9" y="1480" type="qcurve" smooth="yes"/>
			<point x="1386.3" y="1480"/>
			<point x="1860.6" y="1124.2"/>
			<point x="1860.6" y="745" type="qcurve" smooth="yes"/>
			<point x="1860.6" y="738" type="line" smooth="yes"/>
			<point x="1860.6" y="343.8"/>
			<point x="1359.3" y="-24"/>
			<point x="949.9" y="-24" type="qcurve" smooth="yes"/>
			<point x="509.8" y="-24"/>
			<point x="40.4" y="358.8"/>
		</contour>
		<contour>
			<point x="640.8" y="730" type="line" smooth="yes"/>
			<point x="640.8" y="535.9"/>
			<point x="790.5" y="364.9"/>
			<point x="950.1" y="364.9" type="qcurve" smooth="yes"/>
			<point x="1108.7" y="364.9"/>
			<point x="1260.4" y="535.9"/>
			<point x="1260.4" y="728" type="qcurve" smooth="yes"/>
			<point x="1260.4" y="755" type="line" smooth="yes"/>
			<point x="1260.4" y="936.1"/>
			<point x="1104.7" y="1079.1"/>
			<point x="950.1" y="1079.1" type="qcurve" smooth="yes"/>
			<point x="794.5" y="1079.1"/>
			<point x="640.8" y="937.1"/>
			<point x="640.8" y="756" type="qcurve" smooth="yes"/>
		</contour>
	</outline>
</glyph>
<glyph name="one" format="2">
	<unicode hex="0031"/>
	<advance width="1901"/>
	<outline>
		<contour>
			<point x="845.3" y="0" type="line"/>
			<point x="845.3" y="929.6" type="line"/>
			<point x="254" y="760.4" type="line"/>
			<point x="254" y="1240" type="line"/>
			<point x="936.2" y="1444" type="line"/>
			<point x="1446.8" y="1444" type="line"/>
			<point x="1446.8" y="0" type="line"/>
		</contour>
	</outline>
</glyph>
<glyph name="two" format="2">
  <advance width="1901"/>
  <unicode hex="0032"/>
  <outline>
    <contour>
      <point x="118.0" y="0.0" type="line"/>
      <point x="118.0" y="301.25" type="line"/>
      <point x="933.0" y="783.75" type="line" smooth="yes"/>
      <point x="998.0" y="822.25"/>
      <point x="1094.5" y="911.0"/>
      <point x="1094.5" y="973.75" type="qcurve" smooth="yes"/>
      <point x="1094.5" y="1053.5"/>
      <point x="982.5" y="1104.75"/>
      <point x="906.75" y="1104.75" type="qcurve" smooth="yes"/>
      <point x="815.75" y="1104.75"/>
      <point x="696.75" y="1035.5"/>
      <point x="696.75" y="933.75" type="qcurve" smooth="yes"/>
      <point x="696.75" y="873.5" type="line"/>
      <point x="122.25" y="873.5" type="line"/>
      <point x="122.25" y="934.75" type="line" smooth="yes"/>
      <point x="122.25" y="1160.5"/>
      <point x="544.25" y="1480.0"/>
      <point x="911.75" y="1480.0" type="qcurve" smooth="yes"/>
      <point x="1290.75" y="1480.0"/>
      <point x="1670.0" y="1188.75"/>
      <point x="1672.0" y="974.0" type="qcurve" smooth="yes"/>
      <point x="1674.0" y="798.75"/>
      <point x="1466.5" y="587.5"/>
      <point x="1346.5" y="525.5" type="qcurve" smooth="yes"/>
      <point x="1024.0" y="348.25" type="line"/>
      <point x="1734.5" y="348.25" type="line"/>
      <point x="1734.5" y="0.0" type="line"/>
    </contour>
  </outline>
</glyph>
<glyph name="three" format="2">
	<unicode hex="0033"/>
	<advance width="1901"/>
	<outline>
		<contour>
			<point x="94" y="461.3" type="qcurve" smooth="yes"/>
			<point x="94" y="573.3" type="line"/>
			<point x="675.8" y="573.3" type="line"/>
			<point x="675.8" y="481.3" type="line" smooth="yes"/>
			<point x="675.8" y="418.2"/>
			<point x="823.9" y="361.3"/>
			<point x="937" y="361.3" type="qcurve" smooth="yes"/>
			<point x="1044.2" y="361.3"/>
			<point x="1189.8" y="406.4"/>
			<point x="1189.8" y="488.3" type="qcurve" smooth="yes"/>
			<point x="1189.8" y="562.4"/>
			<point x="1052.1" y="610.5"/>
			<point x="891" y="610.5" type="qcurve" smooth="yes"/>
			<point x="699.1" y="610.5" type="line"/>
			<point x="699.1" y="879" type="line"/>
			<point x="890" y="879" type="line" smooth="yes"/>
			<point x="1012.1" y="879"/>
			<point x="1170.8" y="933.5"/>
			<point x="1170.8" y="997.3" type="qcurve" smooth="yes"/>
			<point x="1170.8" y="1047"/>
			<point x="1044.1" y="1092.7"/>
			<point x="937" y="1092.7" type="qcurve" smooth="yes"/>
			<point x="822.5" y="1092.7"/>
			<point x="689.8" y="1024.8"/>
			<point x="689.8" y="974.7" type="qcurve" smooth="yes"/>
			<point x="689.8" y="912.7" type="line"/>
			<point x="129" y="912.7" type="line"/>
			<point x="129" y="994.7" type="line" smooth="yes"/>
			<point x="129" y="1227.7"/>
			<point x="568.6" y="1480"/>
			<point x="946" y="1480" type="qcurve" smooth="yes"/>
			<point x="1341" y="1480"/>
			<point x="1759.8" y="1252.4"/>
			<point x="1759.8" y="1072.9" type="qcurve" smooth="yes"/>
			<point x="1759.8" y="971.2"/>
			<point x="1581.3" y="817.4"/>
			<point x="1444.6" y="767" type="qcurve"/>
			<point x="1444.6" y="763" type="line"/>
			<point x="1588.1" y="739.8"/>
			<point x="1808.8" y="574.6"/>
			<point x="1808.8" y="438.1" type="qcurve" smooth="yes"/>
			<point x="1808.8" y="245.6"/>
			<point x="1357" y="-24"/>
			<point x="958" y="-24" type="qcurve" smooth="yes"/>
			<point x="559.2" y="-24"/>
			<point x="94" y="228.3"/>
		</contour>
	</outline>
</glyph>
<glyph name="four" format="2">
	<unicode hex="0034"/>
	<advance width="1901"/>
	<outline>
		<contour>
			<point x="996.6" y="0" type="line"/>
			<point x="996.6" y="341" type="line"/>
			<point x="1039.6" y="355" type="line"/>
			<point x="1039.6" y="922.6" type="line"/>
			<point x="1030.6" y="922.6" type="line"/>
			<point x="694.3" y="639.5" type="line"/>
			<point x="1251.5" y="639.5" type="line"/>
			<point x="1279.6" y="669.5" type="line"/>
			<point x="1808.7" y="669.5" type="line"/>
			<point x="1808.7" y="217.8" type="line"/>
			<point x="99" y="217.8" type="line"/>
			<point x="99" y="646.4" type="line"/>
			<point x="1060.9" y="1456" type="line"/>
			<point x="1536.6" y="1456" type="line"/>
			<point x="1536.6" y="0" type="line"/>
		</contour>
	</outline>
</glyph>
<glyph name="five" format="2">
	<unicode hex="0035"/>
	<advance width="1901"/>
	<outline>
		<contour>
			<point x="94.1" y="479.3" type="qcurve" smooth="yes"/>
			<point x="94.1" y="551.3" type="line"/>
			<point x="674" y="551.3" type="line"/>
			<point x="674" y="499.3" type="line" smooth="yes"/>
			<point x="674" y="428.1"/>
			<point x="832.1" y="363.3"/>
			<point x="960.2" y="363.3" type="qcurve" smooth="yes"/>
			<point x="1069.3" y="363.3"/>
			<point x="1192.5" y="447"/>
			<point x="1192.5" y="527" type="qcurve" smooth="yes"/>
			<point x="1192.5" y="607"/>
			<point x="1075.3" y="671.7"/>
			<point x="958.2" y="671.7" type="qcurve" smooth="yes"/>
			<point x="846.2" y="671.7"/>
			<point x="719.2" y="619.6"/>
			<point x="682.1" y="583.5" type="qcurve"/>
			<point x="146.8" y="676.3" type="line"/>
			<point x="250" y="1456" type="line"/>
			<point x="1656.7" y="1456" type="line"/>
			<point x="1656.7" y="1061.7" type="line"/>
			<point x="662.4" y="1061.7" type="line"/>
			<point x="648" y="951.9" type="line"/>
			<point x="727" y="978.6"/>
			<point x="956.8" y="1014"/>
			<point x="1119.6" y="1014" type="qcurve" smooth="yes"/>
			<point x="1438.6" y="1014"/>
			<point x="1793.1" y="747"/>
			<point x="1793.1" y="530" type="qcurve" smooth="yes"/>
			<point x="1793.1" y="291"/>
			<point x="1404.2" y="-24"/>
			<point x="962.2" y="-24" type="qcurve" smooth="yes"/>
			<point x="533.5" y="-24"/>
			<point x="91.1" y="246.3"/>
		</contour>
	</outline>
</glyph>
<glyph name="six" format="2">
  <advance width="1901"/>
  <unicode hex="0036"/>
  <outline>
    <contour>
      <point x="77.0" y="614.0" type="qcurve" smooth="yes"/>
      <point x="77.0" y="644.0" type="line" smooth="yes"/>
      <point x="77.0" y="1013.0"/>
      <point x="804.5" y="1476.0"/>
      <point x="1533.5" y="1476.0" type="qcurve" smooth="yes"/>
      <point x="1610.5" y="1476.0" type="line"/>
      <point x="1610.5" y="1049.1" type="line"/>
      <point x="1553.5" y="1049.1" type="line" smooth="yes"/>
      <point x="1098.8" y="1049.1"/>
      <point x="676.4" y="860.4"/>
      <point x="676.4" y="548.0" type="qcurve" smooth="yes"/>
      <point x="676.4" y="528.0" type="line" smooth="yes"/>
      <point x="676.4" y="437.4"/>
      <point x="823.8" y="362.3"/>
      <point x="960.9" y="362.3" type="qcurve" smooth="yes"/>
      <point x="1098.0" y="362.3"/>
      <point x="1242.4" y="437.3"/>
      <point x="1242.4" y="525.5" type="qcurve" smooth="yes"/>
      <point x="1242.4" y="615.8"/>
      <point x="1122.0" y="685.6"/>
      <point x="970.9" y="685.6" type="qcurve" smooth="yes"/>
      <point x="818.8" y="685.6"/>
      <point x="676.7" y="609.8"/>
      <point x="676.7" y="465.6" type="qcurve"/>
      <point x="604.3" y="465.6" type="line"/>
      <point x="604.3" y="741.8"/>
      <point x="1008.2" y="950.9"/>
      <point x="1208.7" y="950.9" type="qcurve" smooth="yes"/>
      <point x="1502.5" y="950.9"/>
      <point x="1844.0" y="741.8"/>
      <point x="1843.0" y="507.6" type="qcurve" smooth="yes"/>
      <point x="1842.0" y="273.3"/>
      <point x="1344.9" y="-23.0"/>
      <point x="953.9" y="-23.0" type="qcurve" smooth="yes"/>
      <point x="564.1" y="-23.0"/>
      <point x="77.0" y="289.0"/>
    </contour>
  </outline>
</glyph>
<glyph name="seven" format="2">
	<unicode hex="0037"/>
	<advance width="1901"/>
	<outline>
		<contour>
			<point x="385.2" y="0" type="line"/>
			<point x="1099.2" y="991.3" type="line"/>
			<point x="130.1" y="991.3" type="line"/>
			<point x="130.1" y="1456" type="line"/>
			<point x="1715.3" y="1456" type="line"/>
			<point x="1715.3" y="1003.2" type="line"/>
			<point x="1001.1" y="0" type="line"/>
		</contour>
	</outline>
</glyph>
<glyph name="eight" format="2">
  <advance width="1901"/>
  <unicode hex="0038"/>
  <outline>
    <contour>
      <point x="99.0" y="447.0" type="qcurve" smooth="yes"/>
      <point x="99.0" y="584.0"/>
      <point x="350.4" y="737.8"/>
      <point x="471.1" y="762.7" type="qcurve"/>
      <point x="471.1" y="766.7" type="line"/>
      <point x="328.3" y="807.7"/>
      <point x="145.3" y="952.0"/>
      <point x="145.3" y="1099.0" type="qcurve" smooth="yes"/>
      <point x="145.3" y="1263.0"/>
      <point x="565.0" y="1479.0"/>
      <point x="955.8" y="1479.0" type="qcurve" smooth="yes"/>
      <point x="1336.6" y="1479.0"/>
      <point x="1756.6" y="1262.8"/>
      <point x="1756.6" y="1100.0" type="qcurve" smooth="yes"/>
      <point x="1756.6" y="952.0"/>
      <point x="1574.5" y="806.7"/>
      <point x="1440.7" y="766.7" type="qcurve"/>
      <point x="1440.7" y="762.7" type="line"/>
      <point x="1562.3" y="738.9"/>
      <point x="1802.9" y="584.0"/>
      <point x="1802.9" y="447.0" type="qcurve" smooth="yes"/>
      <point x="1802.9" y="216.0"/>
      <point x="1361.8" y="-23.0"/>
      <point x="955.8" y="-23.0" type="qcurve" smooth="yes"/>
      <point x="538.9" y="-23.0"/>
      <point x="99.0" y="216.0"/>
    </contour>
    <contour>
      <point x="698.7" y="493.1" type="qcurve" smooth="yes"/>
      <point x="698.7" y="405.2"/>
      <point x="836.8" y="351.7"/>
      <point x="954.8" y="351.7" type="qcurve" smooth="yes"/>
      <point x="1072.9" y="351.7"/>
      <point x="1203.2" y="408.2"/>
      <point x="1203.2" y="492.1" type="qcurve" smooth="yes"/>
      <point x="1203.2" y="566.3"/>
      <point x="1085.9" y="611.1"/>
      <point x="955.8" y="611.1" type="qcurve" smooth="yes"/>
      <point x="825.8" y="611.1"/>
      <point x="698.7" y="568.3"/>
    </contour>
    <contour>
      <point x="718.7" y="987.9000000000001" type="qcurve" smooth="yes"/>
      <point x="718.7" y="913.6"/>
      <point x="829.8" y="872.9"/>
      <point x="955.8" y="872.9" type="qcurve" smooth="yes"/>
      <point x="1081.9" y="872.9"/>
      <point x="1181.2" y="913.6"/>
      <point x="1181.2" y="987.9000000000001" type="qcurve" smooth="yes"/>
      <point x="1181.2" y="1049.8"/>
      <point x="1055.9" y="1095.3"/>
      <point x="954.8" y="1095.3" type="qcurve" smooth="yes"/>
      <point x="853.8" y="1095.3"/>
      <point x="718.7" y="1049.8"/>
    </contour>
  </outline>
</glyph>
<glyph name="nine" format="2">
  <advance width="1901"/>
  <unicode hex="0039"/>
  <outline>
    <contour>
      <point x="58.8" y="944.4" type="qcurve" smooth="yes"/>
      <point x="59.8" y="1179.1"/>
      <point x="556.9" y="1476.0"/>
      <point x="947.9" y="1476.0" type="qcurve" smooth="yes"/>
      <point x="1337.7" y="1476.0"/>
      <point x="1824.8" y="1164.0"/>
      <point x="1824.8" y="839.0" type="qcurve" smooth="yes"/>
      <point x="1824.8" y="809.0" type="line" smooth="yes"/>
      <point x="1824.8" y="440.0"/>
      <point x="1097.3" y="-23.0"/>
      <point x="368.3" y="-23.0" type="qcurve" smooth="yes"/>
      <point x="291.3" y="-23.0" type="line"/>
      <point x="291.3" y="403.9" type="line"/>
      <point x="348.3" y="403.9" type="line" smooth="yes"/>
      <point x="803.0" y="403.9"/>
      <point x="1226.0" y="592.6"/>
      <point x="1226.0" y="905.0" type="qcurve" smooth="yes"/>
      <point x="1226.0" y="925.0" type="line" smooth="yes"/>
      <point x="1226.0" y="1015.5999999999999"/>
      <point x="1078.0" y="1090.7"/>
      <point x="940.9" y="1090.7" type="qcurve" smooth="yes"/>
      <point x="803.8" y="1090.7"/>
      <point x="659.4" y="1015.2"/>
      <point x="659.4" y="926.5" type="qcurve" smooth="yes"/>
      <point x="659.4" y="835.7"/>
      <point x="779.8" y="765.4"/>
      <point x="930.9" y="765.4" type="qcurve" smooth="yes"/>
      <point x="1083.0" y="765.4"/>
      <point x="1225.4" y="841.7"/>
      <point x="1225.4" y="986.4" type="qcurve"/>
      <point x="1297.5" y="986.4" type="line"/>
      <point x="1297.5" y="709.8"/>
      <point x="893.6" y="500.5"/>
      <point x="693.1" y="500.5" type="qcurve" smooth="yes"/>
      <point x="399.2" y="500.5"/>
      <point x="57.8" y="709.8"/>
    </contour>
  </outline>
</glyph>
<glyph name="colon" format="2">
  <advance width="637"/>
  <unicode hex="003A"/>
  <outline>
    <contour>
      <point x="30.599999999999994" y="246.1" type="qcurve" smooth="yes"/>
      <point x="30.599999999999994" y="354.7"/>
      <point x="181.3" y="500.1"/>
      <point x="319.0" y="500.1" type="qcurve" smooth="yes"/>
      <point x="456.6" y="500.1"/>
      <point x="606.4" y="354.7"/>
      <point x="606.4" y="246.1" type="qcurve" smooth="yes"/>
      <point x="606.4" y="133.4"/>
      <point x="455.6" y="-12.0"/>
      <point x="318.0" y="-12.0" type="qcurve" smooth="yes"/>
      <point x="181.3" y="-12.0"/>
      <point x="30.599999999999994" y="138.4"/>
    </contour>
    <contour>
      <point x="30.599999999999994" y="800.7" type="qcurve" smooth="yes"/>
      <point x="30.599999999999994" y="907.4"/>
      <point x="181.3" y="1053.8"/>
      <point x="319.0" y="1053.8" type="qcurve" smooth="yes"/>
      <point x="456.6" y="1053.8"/>
      <point x="606.4" y="907.4"/>
      <point x="606.4" y="798.7" type="qcurve" smooth="yes"/>
      <point x="606.4" y="686.1"/>
      <point x="455.6" y="540.7"/>
      <point x="318.0" y="540.7" type="qcurve" smooth="yes"/>
      <point x="181.3" y="540.7"/>
      <point x="30.599999999999994" y="691.1"/>
    </contour>
  </outline>
</glyph>
<glyph name="semicolon" format="2">
	<unicode hex="003B"/>
	<advance width="627"/>
	<outline>
		<contour>
			<point x="-26.3" y="-143.8" type="line"/>
			<point x="45.3" y="-90"/>
			<point x="89.7" y="30.1"/>
			<point x="89.7" y="102.4" type="qcurve" smooth="yes"/>
			<point x="89.7" y="476.2" type="line"/>
			<point x="591.9" y="476.2" type="line"/>
			<point x="591.9" y="106.4" type="line" smooth="yes"/>
			<point x="591.9" y="13.1"/>
			<point x="489.8" y="-167.8"/>
			<point x="425.6" y="-202" type="qcurve"/>
		</contour>
		<contour>
			<point x="30.4" y="800.7" type="qcurve" smooth="yes"/>
			<point x="30.4" y="907.4"/>
			<point x="181.1" y="1053.8"/>
			<point x="319.8" y="1053.8" type="qcurve" smooth="yes"/>
			<point x="456.4" y="1053.8"/>
			<point x="606.2" y="907.4"/>
			<point x="606.2" y="798.7" type="qcurve" smooth="yes"/>
			<point x="606.2" y="686.1"/>
			<point x="455.4" y="540.7"/>
			<point x="317.8" y="540.7" type="qcurve" smooth="yes"/>
			<point x="181.1" y="540.7"/>
			<point x="30.4" y="691.1"/>
		</contour>
	</outline>
</glyph>
<glyph name="less" format="2">
  <advance width="956"/>
  <unicode hex="003C"/>
  <outline>
    <contour>
      <point x="902.0" y="37.5" type="line"/>
      <point x="51.0" y="445.5" type="line"/>
      <point x="51.0" y="903.5" type="line"/>
      <point x="902.0" y="1319.0" type="line"/>
      <point x="902.0" y="830.5" type="line"/>
      <point x="483.5" y="673.25" type="line"/>
      <point x="902.0" y="523.5" type="line"/>
    </contour>
  </outline>
</glyph>
<glyph name="equal" format="2">
  <advance width="1135"/>
  <unicode hex="003D"/>
  <outline>
    <contour>
      <point x="56.0" y="162.2" type="line"/>
      <point x="56.0" y="657.1" type="line"/>
      <point x="1079.0" y="657.1" type="line"/>
      <point x="1079.0" y="162.2" type="line"/>
    </contour>
    <contour>
      <point x="56.0" y="739.1" type="line"/>
      <point x="56.0" y="1234.0" type="line"/>
      <point x="1079.0" y="1234.0" type="line"/>
      <point x="1079.0" y="739.1" type="line"/>
    </contour>
  </outline>
</glyph>
<glyph name="greater" format="2">
  <advance width="956"/>
  <unicode hex="003E"/>
  <outline>
    <contour>
      <point x="53.0" y="35.0" type="line"/>
      <point x="53.0" y="523.5" type="line"/>
      <point x="471.75" y="685.75" type="line"/>
      <point x="53.0" y="838.0" type="line"/>
      <point x="53.0" y="1324.0" type="line"/>
      <point x="904.0" y="913.5" type="line"/>
      <point x="904.0" y="455.5" type="line"/>
    </contour>
  </outline>
</glyph>
<glyph name="question" format="2">
	<unicode hex="003F"/>
	<advance width="1571"/>
	<outline>
		<contour>
			<point x="447.8" y="259.1" type="qcurve" smooth="yes"/>
			<point x="447.8" y="370.7"/>
			<point x="613.6" y="529.1"/>
			<point x="768.2" y="529.1" type="qcurve" smooth="yes"/>
			<point x="924.9" y="529.1"/>
			<point x="1090.6" y="370.7"/>
			<point x="1090.6" y="259.1" type="qcurve" smooth="yes"/>
			<point x="1090.6" y="146.4"/>
			<point x="924.9" y="-12"/>
			<point x="769.2" y="-12" type="qcurve" smooth="yes"/>
			<point x="616.6" y="-12"/>
			<point x="447.8" y="147.4"/>
		</contour>
		<contour>
			<point x="25" y="951.8" type="line"/>
			<point x="25" y="1074.9" type="line" smooth="yes"/>
			<point x="25" y="1248.7"/>
			<point x="430.7" y="1480"/>
			<point x="788.1" y="1480" type="qcurve" smooth="yes"/>
			<point x="1156.5" y="1480"/>
			<point x="1568.8" y="1315.7"/>
			<point x="1568.8" y="1135.2" type="qcurve" smooth="yes"/>
			<point x="1568.8" y="984.8"/>
			<point x="1409.2" y="848.4"/>
			<point x="1299.2" y="791.6" type="qcurve" smooth="yes"/>
			<point x="1188.2" y="732.9"/>
			<point x="1046.8" y="652.2"/>
			<point x="1046.8" y="581.2" type="qcurve" smooth="yes"/>
			<point x="1046.8" y="572.2" type="line"/>
			<point x="488.1" y="572.2" type="line"/>
			<point x="488.1" y="604.2" type="line" smooth="yes"/>
			<point x="486.1" y="694.8"/>
			<point x="628.7" y="851.1"/>
			<point x="784.2" y="936.7" type="qcurve" smooth="yes"/>
			<point x="888.3" y="993.2"/>
			<point x="953" y="1023.2"/>
			<point x="953" y="1039.2" type="qcurve" smooth="yes"/>
			<point x="953" y="1065"/>
			<point x="847" y="1073.5"/>
			<point x="757.1" y="1073.5" type="qcurve" smooth="yes"/>
			<point x="649.1" y="1073.5"/>
			<point x="514.8" y="1041.4"/>
			<point x="514.8" y="984.9" type="qcurve" smooth="yes"/>
			<point x="514.8" y="951.8" type="line"/>
		</contour>
	</outline>
</glyph>
<glyph name="at" format="2">
  <advance width="2300"/>
  <unicode hex="0040"/>
  <outline>
    <contour>
      <point x="614.7" y="400.0" type="qcurve" smooth="yes"/>
      <point x="614.7" y="705.0"/>
      <point x="979.5999999999999" y="1052.0"/>
      <point x="1221.6" y="1052.0" type="qcurve" smooth="yes"/>
      <point x="1309.6" y="1052.0"/>
      <point x="1462.0" y="1003.0"/>
      <point x="1506.4" y="946.0" type="qcurve"/>
      <point x="1823.8" y="946.0" type="line"/>
      <point x="1708.1" y="350.0" type="line" smooth="yes"/>
      <point x="1700.7" y="310.1"/>
      <point x="1716.8" y="279.6"/>
      <point x="1754.0" y="278.6" type="qcurve" smooth="yes"/>
      <point x="1818.4" y="277.6"/>
      <point x="1904.2000000000003" y="436.6"/>
      <point x="1904.2000000000003" y="599.0" type="qcurve" smooth="yes"/>
      <point x="1904.2000000000003" y="852.1"/>
      <point x="1547.0" y="1123.3"/>
      <point x="1228.6" y="1123.3" type="qcurve" smooth="yes"/>
      <point x="877.3" y="1123.3"/>
      <point x="499.0" y="733.0"/>
      <point x="499.0" y="409.0" type="qcurve" smooth="yes"/>
      <point x="499.0" y="175.3"/>
      <point x="790.0" y="-65.30000000000001"/>
      <point x="1052.7" y="-65.30000000000001" type="qcurve" smooth="yes"/>
      <point x="1188.2" y="-65.30000000000001"/>
      <point x="1375.1" y="-20.30000000000001"/>
      <point x="1437.4" y="14.699999999999989" type="qcurve"/>
      <point x="1437.4" y="-366.0" type="line"/>
      <point x="1371.1" y="-408.0"/>
      <point x="1188.2" y="-446.0"/>
      <point x="1052.7" y="-446.0" type="qcurve" smooth="yes"/>
      <point x="600.4" y="-446.0"/>
      <point x="2.0" y="40.0"/>
      <point x="2.0" y="460.0" type="qcurve" smooth="yes"/>
      <point x="2.0" y="880.0"/>
      <point x="688.7" y="1486.0"/>
      <point x="1228.6" y="1486.0" type="qcurve" smooth="yes"/>
      <point x="1710.0" y="1486.0"/>
      <point x="2318.4" y="1000.0"/>
      <point x="2318.4" y="650.0" type="qcurve" smooth="yes"/>
      <point x="2318.4" y="360.0"/>
      <point x="1976.9" y="0.0"/>
      <point x="1690.8" y="0.0" type="qcurve" smooth="yes"/>
      <point x="1520.6" y="0.0"/>
      <point x="1332.8" y="85.9"/>
      <point x="1291.2" y="180.0" type="qcurve"/>
      <point x="1243.7" y="97.8"/>
      <point x="1085.2" y="0.0"/>
      <point x="999.5999999999999" y="0.0" type="qcurve" smooth="yes"/>
      <point x="823.7" y="0.0"/>
      <point x="614.7" y="209.0"/>
    </contour>
    <contour>
      <point x="1121.0" y="427.0" type="qcurve" smooth="yes"/>
      <point x="1121.0" y="367.79999999999995"/>
      <point x="1151.5" y="332.6"/>
      <point x="1176.0" y="332.6" type="qcurve" smooth="yes"/>
      <point x="1205.4" y="332.6"/>
      <point x="1249.5" y="369.2"/>
      <point x="1260.1" y="417.8" type="qcurve" smooth="yes"/>
      <point x="1318.9" y="737.5" type="line"/>
      <point x="1305.2" y="747.5"/>
      <point x="1271.1" y="755.5"/>
      <point x="1255.5" y="755.5" type="qcurve" smooth="yes"/>
      <point x="1204.9" y="755.5"/>
      <point x="1121.0" y="553.1"/>
    </contour>
  </outline>
</glyph>
<glyph name="A" format="2">
	<unicode hex="0041"/>
	<advance width="2022"/>
	<outline>
		<contour>
			<point x="-43.3" y="0" type="line"/>
			<point x="705.6" y="1455" type="line"/>
			<point x="1327.6" y="1455" type="line"/>
			<point x="2066.7" y="0" type="line"/>
			<point x="1369" y="0" type="line"/>
			<point x="1031.5" y="757.2" type="line" smooth="yes"/>
			<point x="1018.5" y="786.2"/>
			<point x="1003.6" y="812.2"/>
			<point x="998.7" y="822.2" type="qcurve"/>
			<point x="996.7" y="822.2" type="line"/>
			<point x="992.8" y="812.2"/>
			<point x="979.9" y="787.2"/>
			<point x="965.9" y="757.2" type="qcurve" smooth="yes"/>
			<point x="624.6" y="0" type="line"/>
		</contour>
		<contour>
			<point x="415.9" y="192.9" type="line"/>
			<point x="582.1" y="571.2" type="line"/>
			<point x="1443.3" y="571.2" type="line"/>
			<point x="1602.6" y="192.9" type="line"/>
		</contour>
	</outline>
</glyph>
<glyph name="B" format="2">
	<unicode hex="0042"/>
	<advance width="1810"/>
	<outline>
		<contour>
			<point x="138.6" y="0" type="line"/>
			<point x="138.6" y="1456" type="line"/>
			<point x="1223.2" y="1456" type="line" smooth="yes"/>
			<point x="1483.7" y="1456"/>
			<point x="1717.2" y="1246"/>
			<point x="1717.2" y="1086" type="qcurve" smooth="yes"/>
			<point x="1717.2" y="963"/>
			<point x="1594.9" y="802.6"/>
			<point x="1486.9" y="767" type="qcurve"/>
			<point x="1486.9" y="763" type="line"/>
			<point x="1608.8" y="751.3"/>
			<point x="1807.2" y="603"/>
			<point x="1807.2" y="426" type="qcurve" smooth="yes"/>
			<point x="1807.2" y="221"/>
			<point x="1486.7" y="0"/>
			<point x="1235.2" y="0" type="qcurve" smooth="yes"/>
		</contour>
		<contour>
			<point x="723.9" y="377.2" type="line"/>
			<point x="1048.2" y="377.2" type="line" smooth="yes"/>
			<point x="1097.5" y="377.2"/>
			<point x="1191" y="428"/>
			<point x="1191" y="492.4" type="qcurve" smooth="yes"/>
			<point x="1191" y="539.6"/>
			<point x="1097.5" y="580.6"/>
			<point x="1048.2" y="580.6" type="qcurve" smooth="yes"/>
			<point x="723.9" y="580.6" type="line"/>
		</contour>
		<contour>
			<point x="723.9" y="857.4" type="line"/>
			<point x="1044.2" y="857.4" type="line" smooth="yes"/>
			<point x="1086.5" y="857.4"/>
			<point x="1148" y="909.2"/>
			<point x="1148" y="957.4" type="qcurve" smooth="yes"/>
			<point x="1148" y="1005.6"/>
			<point x="1086.5" y="1054.8"/>
			<point x="1044.2" y="1054.8" type="qcurve" smooth="yes"/>
			<point x="723.9" y="1054.8" type="line"/>
		</contour>
	</outline>
</glyph>
<glyph name="C" format="2">
	<unicode hex="0043"/>
	<advance width="2018"/>
	<outline>
		<contour>
			<point x="22" y="722" type="qcurve" smooth="yes"/>
			<point x="22" y="742" type="line" smooth="yes"/>
			<point x="22" y="1112"/>
			<point x="600.1" y="1480"/>
			<point x="1063.3" y="1480" type="qcurve" smooth="yes"/>
			<point x="1493.4" y="1480"/>
			<point x="1980" y="1204.2"/>
			<point x="2020.1" y="862.2" type="qcurve" smooth="yes"/>
			<point x="2027.2" y="800.2" type="line"/>
			<point x="1466.6" y="800.2" type="line"/>
			<point x="1458.5" y="851.2" type="line" smooth="yes"/>
			<point x="1438" y="974.3"/>
			<point x="1253.9" y="1077.5"/>
			<point x="1081.3" y="1077.5" type="qcurve" smooth="yes"/>
			<point x="887.8" y="1077.5"/>
			<point x="675.5" y="903.7"/>
			<point x="675.5" y="745" type="qcurve" smooth="yes"/>
			<point x="675.5" y="724" type="line" smooth="yes"/>
			<point x="675.5" y="549.1"/>
			<point x="887.9" y="367.5"/>
			<point x="1078.3" y="367.5" type="qcurve" smooth="yes"/>
			<point x="1252" y="367.5"/>
			<point x="1442.5" y="466.6"/>
			<point x="1459.6" y="588.6" type="qcurve" smooth="yes"/>
			<point x="1467.6" y="645.8" type="line"/>
			<point x="2027.2" y="645.8" type="line"/>
			<point x="2021.2" y="578.8" type="line" smooth="yes"/>
			<point x="1992.2" y="235.7"/>
			<point x="1521.4" y="-24"/>
			<point x="1068.3" y="-24" type="qcurve" smooth="yes"/>
			<point x="571.1" y="-24"/>
			<point x="22" y="357"/>
		</contour>
	</outline>
</glyph>
<glyph name="D" format="2">
	<unicode hex="0044"/>
	<advance width="1898"/>
	<outline>
		<contour>
			<point x="138.6" y="0" type="line"/>
			<point x="138.6" y="1456" type="line"/>
			<point x="1126.3" y="1456" type="line" smooth="yes"/>
			<point x="1453.2" y="1456"/>
			<point x="1876" y="1109"/>
			<point x="1876" y="748" type="qcurve" smooth="yes"/>
			<point x="1876" y="726" type="line" smooth="yes"/>
			<point x="1876" y="370"/>
			<point x="1447.2" y="0"/>
			<point x="1126.3" y="0" type="qcurve" smooth="yes"/>
		</contour>
		<contour>
			<point x="724.8" y="402.3" type="line"/>
			<point x="1052.3" y="402.3" type="line" smooth="yes"/>
			<point x="1123.2" y="402.3"/>
			<point x="1266.5" y="550"/>
			<point x="1266.5" y="721" type="qcurve" smooth="yes"/>
			<point x="1266.5" y="743" type="line" smooth="yes"/>
			<point x="1266.5" y="906"/>
			<point x="1139.2" y="1033.7"/>
			<point x="1052.3" y="1033.7" type="qcurve" smooth="yes"/>
			<point x="724.8" y="1033.7" type="line"/>
		</contour>
	</outline>
</glyph>
<glyph name="E" format="2">
	<unicode hex="0045"/>
	<advance width="1776"/>
	<outline>
		<contour>
			<point x="138.6" y="0" type="line"/>
			<point x="138.6" y="1456" type="line"/>
			<point x="1646.1" y="1456" type="line"/>
			<point x="1646.1" y="999.7" type="line"/>
			<point x="701.8" y="999.7" type="line"/>
			<point x="701.8" y="915.2" type="line"/>
			<point x="1568.1" y="915.2" type="line"/>
			<point x="1568.1" y="530.8" type="line"/>
			<point x="701.8" y="530.8" type="line"/>
			<point x="701.8" y="436.3" type="line"/>
			<point x="1666.1" y="436.3" type="line"/>
			<point x="1666.1" y="0" type="line"/>
		</contour>
	</outline>
</glyph>
<glyph name="F" format="2">
	<unicode hex="0046"/>
	<advance width="1590"/>
	<outline>
		<contour>
			<point x="138.6" y="0" type="line"/>
			<point x="138.6" y="1456" type="line"/>
			<point x="1573.3" y="1456" type="line"/>
			<point x="1573.3" y="1000.7" type="line"/>
			<point x="742.8" y="1000.7" type="line"/>
			<point x="742.8" y="876" type="line"/>
			<point x="1509.6" y="876" type="line"/>
			<point x="1509.6" y="489.7" type="line"/>
			<point x="742.8" y="489.7" type="line"/>
			<point x="742.8" y="0" type="line"/>
		</contour>
	</outline>
</glyph>
<glyph name="G" format="2">
  <advance width="2058"/>
  <unicode hex="0047"/>
  <outline>
    <contour>
      <point x="22.0" y="732.0" type="qcurve" smooth="yes"/>
      <point x="22.0" y="744.0" type="line" smooth="yes"/>
      <point x="22.0" y="1125.0"/>
      <point x="640.4" y="1479.0"/>
      <point x="1101.3" y="1479.0" type="qcurve" smooth="yes"/>
      <point x="1507.9" y="1479.0"/>
      <point x="1970.7" y="1234.9"/>
      <point x="2005.3" y="961.2" type="qcurve" smooth="yes"/>
      <point x="2010.2" y="924.3" type="line"/>
      <point x="1448.7" y="924.3" type="line"/>
      <point x="1445.7" y="935.3" type="line" smooth="yes"/>
      <point x="1426.1" y="993.7"/>
      <point x="1224.7" y="1050.7"/>
      <point x="1074.5" y="1050.7" type="qcurve" smooth="yes"/>
      <point x="887.2" y="1050.7"/>
      <point x="655.5" y="905.0999999999999"/>
      <point x="655.5" y="744.0" type="qcurve" smooth="yes"/>
      <point x="655.5" y="726.0" type="line" smooth="yes"/>
      <point x="655.5" y="546.9"/>
      <point x="883.4" y="380.3"/>
      <point x="1064.6" y="380.3" type="qcurve" smooth="yes"/>
      <point x="1241.8" y="380.3"/>
      <point x="1435.9" y="415.5"/>
      <point x="1478.9" y="429.8" type="qcurve"/>
      <point x="1478.9" y="485.20000000000005" type="line"/>
      <point x="1055.6" y="485.20000000000005" type="line"/>
      <point x="1055.6" y="831.5" type="line"/>
      <point x="2049.2" y="833.5" type="line"/>
      <point x="2049.2" y="238.9" type="line"/>
      <point x="1933.8" y="137.0"/>
      <point x="1455.8" y="-22.0"/>
      <point x="1052.6" y="-22.0" type="qcurve" smooth="yes"/>
      <point x="623.3" y="-22.0"/>
      <point x="22.0" y="333.0"/>
    </contour>
  </outline>
</glyph>
<glyph name="H" format="2">
	<unicode hex="0048"/>
	<advance width="1980"/>
	<outline>
		<contour>
			<point x="138.6" y="0" type="line"/>
			<point x="138.6" y="1456" type="line"/>
			<point x="744.8" y="1456" type="line"/>
			<point x="744.8" y="1005.1" type="line"/>
			<point x="1235.5" y="1005.1" type="line"/>
			<point x="1235.5" y="1456" type="line"/>
			<point x="1841.7" y="1456" type="line"/>
			<point x="1841.7" y="0" type="line"/>
			<point x="1235.5" y="0" type="line"/>
			<point x="1235.5" y="499.8" type="line"/>
			<point x="744.8" y="499.8" type="line"/>
			<point x="744.8" y="0" type="line"/>
		</contour>
	</outline>
</glyph>
<glyph name="I" format="2">
	<unicode hex="0049"/>
	<advance width="878"/>
	<outline>
		<contour>
			<point x="130.9" y="0" type="line"/>
			<point x="130.9" y="1456" type="line"/>
			<point x="747.1" y="1456" type="line"/>
			<point x="747.1" y="0" type="line"/>
		</contour>
	</outline>
</glyph>
<glyph name="J" format="2">
  <advance width="1663"/>
  <unicode hex="004A"/>
  <outline>
    <contour>
      <point x="25.0" y="538.2" type="qcurve" smooth="yes"/>
      <point x="25.0" y="680.2" type="line"/>
      <point x="549.2" y="680.2" type="line"/>
      <point x="549.2" y="582.2" type="line" smooth="yes"/>
      <point x="549.2" y="443.4"/>
      <point x="660.5" y="366.3"/>
      <point x="737.2" y="366.3" type="qcurve" smooth="yes"/>
      <point x="841.0" y="366.3"/>
      <point x="946.3" y="446.3"/>
      <point x="946.3" y="596.2" type="qcurve" smooth="yes"/>
      <point x="946.3" y="1456.0" type="line"/>
      <point x="1553.5" y="1456.0" type="line"/>
      <point x="1553.5" y="554.2" type="line" smooth="yes"/>
      <point x="1553.5" y="281.3"/>
      <point x="1200.9" y="-24.0"/>
      <point x="785.2" y="-24.0" type="qcurve" smooth="yes"/>
      <point x="382.6" y="-24.0"/>
      <point x="25.0" y="239.3"/>
    </contour>
  </outline>
</glyph>
<glyph name="K" format="2">
  <advance width="1961"/>
  <unicode hex="004B"/>
  <outline>
    <contour>
      <point x="138.6" y="0.0" type="line"/>
      <point x="138.6" y="1456.0" type="line"/>
      <point x="744.8" y="1456.0" type="line"/>
      <point x="744.8" y="1023.5" type="line"/>
      <point x="1323.1999999999998" y="1456.0" type="line"/>
      <point x="2082.8" y="1456.0" type="line"/>
      <point x="744.8" y="448.3" type="line"/>
      <point x="744.8" y="0.0" type="line"/>
    </contour>
    <contour>
      <point x="1356.2999999999997" y="0.0" type="line"/>
      <point x="682.3000000000001" y="669.1" type="line"/>
      <point x="1122.1" y="1003.0999999999999" type="line"/>
      <point x="2146.4" y="0.0" type="line"/>
    </contour>
  </outline>
</glyph>
<glyph name="L" format="2">
	<unicode hex="004C"/>
	<advance width="1518"/>
	<outline>
		<contour>
			<point x="138.6" y="0" type="line"/>
			<point x="138.6" y="1456" type="line"/>
			<point x="744.8" y="1456" type="line"/>
			<point x="744.8" y="476.3" type="line"/>
			<point x="1514.1" y="476.3" type="line"/>
			<point x="1514.1" y="0" type="line"/>
		</contour>
	</outline>
</glyph>
<glyph name="M" format="2">
	<unicode hex="004D"/>
	<advance width="2644"/>
	<outline>
		<contour>
			<point x="138.6" y="0" type="line"/>
			<point x="138.6" y="1456" type="line"/>
			<point x="832.1" y="1456" type="line"/>
			<point x="1311.8" y="781.7" type="line" smooth="yes"/>
			<point x="1319.8" y="769.6"/>
			<point x="1322.6" y="762.5"/>
			<point x="1323.5" y="757.1" type="qcurve"/>
			<point x="1326.4" y="757.1" type="line"/>
			<point x="1327.4" y="762.5"/>
			<point x="1329.2" y="769.6"/>
			<point x="1337.2" y="781.7" type="qcurve" smooth="yes"/>
			<point x="1804.9" y="1456" type="line"/>
			<point x="2507.5" y="1456" type="line"/>
			<point x="2507.5" y="0" type="line"/>
			<point x="1916.1" y="0" type="line"/>
			<point x="1916.1" y="587.5" type="line" smooth="yes"/>
			<point x="1916.1" y="605.7"/>
			<point x="1916.5" y="619.2"/>
			<point x="1916.5" y="637.3" type="qcurve"/>
			<point x="1912.1" y="637.3" type="line"/>
			<point x="1900.2" y="616.2"/>
			<point x="1896.4" y="609.7"/>
			<point x="1883.4" y="590.5" type="qcurve" smooth="yes"/>
			<point x="1469.8" y="0" type="line"/>
			<point x="1176.4" y="0" type="line"/>
			<point x="748.8" y="588.5" type="line" smooth="yes"/>
			<point x="735.8" y="606.7"/>
			<point x="734" y="610.2"/>
			<point x="723" y="631.3" type="qcurve"/>
			<point x="718.7" y="631.3" type="line"/>
			<point x="718.7" y="607.2"/>
			<point x="719" y="600.7"/>
			<point x="719" y="586.5" type="qcurve" smooth="yes"/>
			<point x="719" y="0" type="line"/>
		</contour>
	</outline>
</glyph>
<glyph name="N" format="2">
  <advance width="1942"/>
  <unicode hex="004E"/>
  <outline>
    <contour>
      <point x="138.6" y="0.0" type="line"/>
      <point x="138.6" y="1456.0" type="line"/>
      <point x="724.5" y="1456.0" type="line"/>
      <point x="1252.6" y="788.8" type="line" smooth="yes"/>
      <point x="1261.5" y="777.8"/>
      <point x="1262.8" y="774.7"/>
      <point x="1268.8" y="765.3" type="qcurve"/>
      <point x="1272.9" y="765.3" type="line"/>
      <point x="1272.7" y="787.5"/>
      <point x="1272.4" y="808.5"/>
      <point x="1272.4" y="830.8" type="qcurve" smooth="yes"/>
      <point x="1272.4" y="1456.0" type="line"/>
      <point x="1779.8" y="1456.0" type="line"/>
      <point x="1779.8" y="0.0" type="line"/>
      <point x="1211.0" y="0.0" type="line"/>
      <point x="667.8" y="688.2" type="line" smooth="yes"/>
      <point x="659.9" y="698.2"/>
      <point x="654.4" y="706.3"/>
      <point x="647.6" y="719.7" type="qcurve"/>
      <point x="644.5" y="719.7" type="line"/>
      <point x="644.7" y="710.4000000000001"/>
      <point x="645.0" y="705.4"/>
      <point x="645.0" y="702.2" type="qcurve" smooth="yes"/>
      <point x="648.0" y="0.0" type="line"/>
    </contour>
  </outline>
</glyph>
<glyph name="O" format="2">
	<unicode hex="004F"/>
	<advance width="2154"/>
	<outline>
		<contour>
			<point x="22" y="732" type="qcurve" smooth="yes"/>
			<point x="22" y="744" type="line" smooth="yes"/>
			<point x="22" y="1121"/>
			<point x="632.1" y="1480"/>
			<point x="1075.7" y="1480" type="qcurve" smooth="yes"/>
			<point x="1519.3" y="1480"/>
			<point x="2132" y="1121"/>
			<point x="2132" y="744" type="qcurve" smooth="yes"/>
			<point x="2132" y="732" type="line" smooth="yes"/>
			<point x="2132" y="340"/>
			<point x="1519.3" y="-24"/>
			<point x="1075.7" y="-24" type="qcurve" smooth="yes"/>
			<point x="632.1" y="-24"/>
			<point x="22" y="340"/>
		</contour>
		<contour>
			<point x="658.5" y="727" type="line" smooth="yes"/>
			<point x="658.5" y="539.1"/>
			<point x="880" y="374.5"/>
			<point x="1077.7" y="369.5" type="qcurve" smooth="yes"/>
			<point x="1272.5" y="364.5"/>
			<point x="1496.6" y="539.1"/>
			<point x="1496.6" y="724" type="qcurve" smooth="yes"/>
			<point x="1496.6" y="744" type="line" smooth="yes"/>
			<point x="1496.6" y="915.9"/>
			<point x="1272.5" y="1067.5"/>
			<point x="1077.7" y="1072.5" type="qcurve" smooth="yes"/>
			<point x="879" y="1077.5"/>
			<point x="658.5" y="915.9"/>
			<point x="658.5" y="745" type="qcurve" smooth="yes"/>
		</contour>
	</outline>
</glyph>
<glyph name="P" format="2">
	<unicode hex="0050"/>
	<advance width="1927"/>
	<outline>
		<contour>
			<point x="138.6" y="0" type="line"/>
			<point x="138.6" y="1456" type="line"/>
			<point x="1309.1" y="1456" type="line" smooth="yes"/>
			<point x="1601.6" y="1456"/>
			<point x="1898.1" y="1145.5"/>
			<point x="1898.1" y="862.1" type="qcurve" smooth="yes"/>
			<point x="1898.1" y="594.7"/>
			<point x="1611.6" y="275.1"/>
			<point x="1296.1" y="275.1" type="qcurve" smooth="yes"/>
			<point x="744.8" y="275.1" type="line"/>
			<point x="744.8" y="0" type="line"/>
		</contour>
		<contour>
			<point x="744.8" y="664.5" type="line"/>
			<point x="1126.1" y="664.5" type="line" smooth="yes"/>
			<point x="1217.1" y="664.5"/>
			<point x="1294" y="758.5"/>
			<point x="1294" y="848.1" type="qcurve" smooth="yes"/>
			<point x="1294" y="945.6"/>
			<point x="1217.1" y="1030.7"/>
			<point x="1126.1" y="1030.7" type="qcurve" smooth="yes"/>
			<point x="744.8" y="1030.7" type="line"/>
		</contour>
	</outline>
</glyph>
<glyph name="Q" format="2">
  <advance width="2154"/>
  <unicode hex="0051"/>
  <outline>
    <contour>
      <point x="22.0" y="732.0" type="qcurve" smooth="yes"/>
      <point x="22.0" y="744.0" type="line" smooth="yes"/>
      <point x="22.0" y="1111.0"/>
      <point x="632.1999999999999" y="1480.0"/>
      <point x="1075.8" y="1480.0" type="qcurve" smooth="yes"/>
      <point x="1519.4" y="1480.0"/>
      <point x="2131.8" y="1111.0"/>
      <point x="2131.8" y="744.0" type="qcurve" smooth="yes"/>
      <point x="2131.8" y="732.0" type="line" smooth="yes"/>
      <point x="2131.8" y="350.0"/>
      <point x="1519.4" y="-24.0"/>
      <point x="1075.8" y="-24.0" type="qcurve" smooth="yes"/>
      <point x="632.1999999999999" y="-24.0"/>
      <point x="22.0" y="350.0"/>
    </contour>
    <contour>
      <point x="658.5" y="727.0" type="line" smooth="yes"/>
      <point x="658.5" y="549.0"/>
      <point x="880.1" y="374.5"/>
      <point x="1077.8" y="369.5" type="qcurve" smooth="yes"/>
      <point x="1272.6" y="364.5"/>
      <point x="1496.4" y="549.0"/>
      <point x="1496.4" y="724.0" type="qcurve" smooth="yes"/>
      <point x="1496.4" y="744.0" type="line" smooth="yes"/>
      <point x="1496.4" y="906.0"/>
      <point x="1272.6" y="1067.5"/>
      <point x="1077.8" y="1072.5" type="qcurve" smooth="yes"/>
      <point x="879.1" y="1077.5"/>
      <point x="658.5" y="906.0"/>
      <point x="658.5" y="745.0" type="qcurve" smooth="yes"/>
    </contour>
    <contour>
      <point x="1685.6" y="-251.89999999999998" type="line"/>
      <point x="990.5" y="166.0" type="line"/>
      <point x="1280.9" y="526.2" type="line"/>
      <point x="1979.0" y="111.29999999999998" type="line"/>
    </contour>
  </outline>
</glyph>
<glyph name="S" format="2">
	<unicode hex="0053"/>
	<advance width="1824"/>
	<outline>
		<contour>
			<point x="27" y="386.9" type="qcurve" smooth="yes"/>
			<point x="22" y="483.8" type="line"/>
			<point x="562.2" y="483.8" type="line"/>
			<point x="570.2" y="448.9" type="line" smooth="yes"/>
			<point x="585.2" y="389.1"/>
			<point x="735" y="356.3"/>
			<point x="925.1" y="356.3" type="qcurve" smooth="yes"/>
			<point x="1113.2" y="356.3"/>
			<point x="1245.1" y="384.2"/>
			<point x="1245.1" y="412.8" type="qcurve" smooth="yes"/>
			<point x="1245.1" y="443.5"/>
			<point x="1109.1" y="476.4"/>
			<point x="762.3" y="515.4" type="qcurve" smooth="yes"/>
			<point x="384.4" y="558.1"/>
			<point x="44.4" y="773.1"/>
			<point x="44.4" y="989.5" type="qcurve" smooth="yes"/>
			<point x="44.4" y="1230.5"/>
			<point x="464.9" y="1478"/>
			<point x="866.2" y="1478" type="qcurve" smooth="yes"/>
			<point x="1283.5" y="1478"/>
			<point x="1717.8" y="1277.1"/>
			<point x="1732.8" y="1047.1" type="qcurve" smooth="yes"/>
			<point x="1736.8" y="983.2" type="line"/>
			<point x="1204.6" y="983.2" type="line"/>
			<point x="1198.6" y="1006.1" type="line" smooth="yes"/>
			<point x="1188.6" y="1039.1"/>
			<point x="1070.5" y="1081.7"/>
			<point x="878.2" y="1081.7" type="qcurve" smooth="yes"/>
			<point x="718" y="1081.7"/>
			<point x="604.7" y="1060.5"/>
			<point x="604.7" y="1035.7" type="qcurve" smooth="yes"/>
			<point x="604.7" y="1014.1"/>
			<point x="718.4" y="991.6"/>
			<point x="1097.6" y="947.6" type="qcurve" smooth="yes"/>
			<point x="1452.8" y="906.6"/>
			<point x="1802.3" y="738.4"/>
			<point x="1802.3" y="497.5" type="qcurve" smooth="yes"/>
			<point x="1802.3" y="242.6"/>
			<point x="1360.2" y="-23"/>
			<point x="938.1" y="-23" type="qcurve" smooth="yes"/>
			<point x="515.1" y="-23"/>
			<point x="38" y="175"/>
		</contour>
	</outline>
</glyph>
<glyph name="T" format="2">
	<unicode hex="0054"/>
	<advance width="1772"/>
	<outline>
		<contour>
			<point x="16" y="983.7" type="line"/>
			<point x="16" y="1456" type="line"/>
			<point x="1756.2" y="1456" type="line"/>
			<point x="1756.2" y="983.7" type="line"/>
			<point x="1194.2" y="983.7" type="line"/>
			<point x="1194.2" y="0" type="line"/>
			<point x="578" y="0" type="line"/>
			<point x="578" y="983.7" type="line"/>
		</contour>
	</outline>
</glyph>
<glyph name="U" format="2">
	<unicode hex="0055"/>
	<advance width="2037"/>
	<outline>
		<contour>
			<point x="110" y="638.5" type="qcurve" smooth="yes"/>
			<point x="110" y="1456" type="line"/>
			<point x="714.2" y="1456" type="line"/>
			<point x="714.2" y="631.5" type="line" smooth="yes"/>
			<point x="714" y="483.5"/>
			<point x="890.3" y="373.5"/>
			<point x="1021.1" y="373.5" type="qcurve" smooth="yes"/>
			<point x="1151.8" y="373.5"/>
			<point x="1305" y="482.6"/>
			<point x="1305" y="631.5" type="qcurve" smooth="yes"/>
			<point x="1305" y="1456" type="line"/>
			<point x="1912.1" y="1456" type="line"/>
			<point x="1912.1" y="638.5" type="line" smooth="yes"/>
			<point x="1912.4" y="313.3"/>
			<point x="1459.6" y="-24"/>
			<point x="1040.1" y="-24" type="qcurve" smooth="yes"/>
			<point x="615.6" y="-24"/>
			<point x="110" y="302.3"/>
		</contour>
	</outline>
</glyph>
<glyph name="V" format="2">
	<unicode hex="0056"/>
	<advance width="1928"/>
	<outline>
		<contour>
			<point x="-64.8" y="1456" type="line"/>
			<point x="557" y="1456" type="line"/>
			<point x="952.4" y="622.2" type="line" smooth="yes"/>
			<point x="959.1" y="609"/>
			<point x="965.3" y="596.7"/>
			<point x="975.1" y="574.9" type="qcurve"/>
			<point x="975.7" y="574.9" type="line"/>
			<point x="983.1" y="593.4"/>
			<point x="987.8" y="605.1"/>
			<point x="996.5" y="622.2" type="qcurve" smooth="yes"/>
			<point x="1387" y="1456" type="line"/>
			<point x="1992.8" y="1456" type="line"/>
			<point x="1286.3" y="-8.4" type="line"/>
			<point x="636.1" y="-8.4" type="line"/>
		</contour>
	</outline>
</glyph>
<glyph name="W" format="2">
	<unicode hex="0057"/>
	<advance width="2881"/>
	<outline>
		<contour>
			<point x="493.7" y="0.6" type="line"/>
			<point x="-43" y="1456" type="line"/>
			<point x="549.2" y="1456" type="line"/>
			<point x="862" y="616.6" type="line" smooth="yes"/>
			<point x="866" y="606.4"/>
			<point x="871.8" y="588.4"/>
			<point x="875.6" y="578.2" type="qcurve"/>
			<point x="878.2" y="578.2" type="line"/>
			<point x="883" y="589.4"/>
			<point x="888.7" y="606.4"/>
			<point x="892.7" y="616.6" type="qcurve" smooth="yes"/>
			<point x="1210.7" y="1456" type="line"/>
			<point x="1697.4" y="1456" type="line"/>
			<point x="2038.3" y="616.7" type="line" smooth="yes"/>
			<point x="2044.3" y="602.5"/>
			<point x="2051" y="586.5"/>
			<point x="2054.8" y="578.3" type="qcurve"/>
			<point x="2057.5" y="578.3" type="line"/>
			<point x="2060.3" y="584.5"/>
			<point x="2068" y="606.5"/>
			<point x="2072" y="616.7" type="qcurve" smooth="yes"/>
			<point x="2361.4" y="1456" type="line"/>
			<point x="2924" y="1456" type="line"/>
			<point x="2386.8" y="0.6" type="line"/>
			<point x="1797.3" y="0.6" type="line"/>
			<point x="1461.2" y="812.8" type="line" smooth="yes"/>
			<point x="1457.2" y="822"/>
			<point x="1453.8" y="832.6"/>
			<point x="1452.1" y="838.8" type="qcurve"/>
			<point x="1448.4" y="838.8" type="line"/>
			<point x="1446.6" y="832.6"/>
			<point x="1443.2" y="822"/>
			<point x="1439.2" y="812.8" type="qcurve" smooth="yes"/>
			<point x="1103.1" y="0.6" type="line"/>
		</contour>
	</outline>
</glyph>
<glyph name="X" format="2">
	<unicode hex="0058"/>
	<advance width="1826"/>
	<outline>
		<contour>
			<point x="-43.5" y="0" type="line"/>
			<point x="679.2" y="886.1" type="line"/>
			<point x="802" y="886.1" type="line"/>
			<point x="1259.2" y="1456" type="line"/>
			<point x="1863.7" y="1456" type="line"/>
			<point x="1151.2" y="572" type="line"/>
			<point x="1022.5" y="572" type="line"/>
			<point x="565.9" y="0" type="line"/>
		</contour>
		<contour>
			<point x="-19.7" y="1456" type="line"/>
			<point x="688.6" y="1456" type="line"/>
			<point x="1117.2" y="909" type="line"/>
			<point x="1116.1" y="910" type="line"/>
			<point x="1869.5" y="0" type="line"/>
			<point x="1159.2" y="0" type="line"/>
			<point x="688.8" y="579.8" type="line"/>
			<point x="689.9" y="580.8" type="line"/>
		</contour>
	</outline>
</glyph>
<glyph name="Y" format="2">
	<unicode hex="0059"/>
	<advance width="1851"/>
	<outline>
		<contour>
			<point x="618" y="0" type="line"/>
			<point x="618" y="504.4" type="line"/>
			<point x="-84" y="1456" type="line"/>
			<point x="557.7" y="1456" type="line"/>
			<point x="922.5" y="952.9" type="line" smooth="yes"/>
			<point x="929.4" y="943"/>
			<point x="937.2" y="930.9"/>
			<point x="946.1" y="916.6" type="qcurve"/>
			<point x="953.1" y="916.6" type="line"/>
			<point x="963" y="930.9"/>
			<point x="969.7" y="942.9"/>
			<point x="976.7" y="952.9" type="qcurve" smooth="yes"/>
			<point x="1332.3" y="1456" type="line"/>
			<point x="1933.2" y="1456" type="line"/>
			<point x="1234.2" y="507.4" type="line"/>
			<point x="1234.2" y="0" type="line"/>
		</contour>
	</outline>
</glyph>
<glyph name="Z" format="2">
	<unicode hex="005A"/>
	<advance width="1802"/>
	<outline>
		<contour>
			<point x="19.1" y="0" type="line"/>
			<point x="19.1" y="335.2" type="line"/>
			<point x="800.3" y="983.7" type="line"/>
			<point x="42.1" y="983.7" type="line"/>
			<point x="42.1" y="1456" type="line"/>
			<point x="1733.7" y="1456" type="line"/>
			<point x="1733.7" y="1100.8" type="line"/>
			<point x="962.5" y="452.3" type="line"/>
			<point x="1777.7" y="452.3" type="line"/>
			<point x="1777.7" y="0" type="line"/>
		</contour>
	</outline>
</glyph>
<glyph name="bracketleft" format="2">
	<unicode hex="005B"/>
	<advance width="989"/>
	<outline>
		<contour>
			<point x="160" y="-310" type="line"/>
			<point x="160" y="1456" type="line"/>
			<point x="978.2" y="1456" type="line"/>
			<point x="978.2" y="1055.4" type="line"/>
			<point x="693" y="1055.4" type="line"/>
			<point x="693" y="90.6" type="line"/>
			<point x="978.2" y="90.6" type="line"/>
			<point x="978.2" y="-310" type="line"/>
		</contour>
	</outline>
</glyph>
<glyph name="backslash" format="2">
	<unicode hex="005C"/>
	<advance width="1321"/>
	<outline>
		<contour>
			<point x="33.5" y="1456" type="line"/>
			<point x="552.3" y="1456" type="line"/>
			<point x="1340.3" y="-125" type="line"/>
			<point x="823.5" y="-125" type="line"/>
		</contour>
	</outline>
</glyph>
<glyph name="bracketright" format="2">
  <advance width="989"/>
  <unicode hex="005D"/>
  <outline>
    <contour>
      <point x="829.0" y="-310.0" type="line"/>
      <point x="11.799999999999997" y="-310.0" type="line"/>
      <point x="11.799999999999997" y="90.6" type="line"/>
      <point x="296.0" y="90.6" type="line"/>
      <point x="296.0" y="1055.4" type="line"/>
      <point x="11.799999999999997" y="1055.4" type="line"/>
      <point x="11.799999999999997" y="1456.0" type="line"/>
      <point x="829.0" y="1456.0" type="line"/>
    </contour>
  </outline>
</glyph>
<glyph name="underscore" format="2">
	<unicode hex="005F"/>
	<advance width="1112"/>
	<outline>
		<contour>
			<point x="0" y="-475.5" type="line"/>
			<point x="0" y="-74.8" type="line"/>
			<point x="1112" y="-74.8" type="line"/>
			<point x="1112" y="-475.5" type="line"/>
		</contour>
	</outline>
</glyph>
<glyph name="grave" format="2">
  <advance width="986"/>
  <unicode hex="0060"/>
  <outline>
    <contour>
      <point x="263.0" y="1002.75" type="line"/>
      <point x="5.25" y="1373.0" type="line"/>
      <point x="519.75" y="1492.5" type="line"/>
      <point x="737.25" y="1126.0" type="line"/>
    </contour>
  </outline>
</glyph>
<glyph name="a" format="2">
	<unicode hex="0061"/>
	<advance width="1600"/>
	<outline>
		<contour>
			<point x="-1.5" y="286" type="qcurve" smooth="yes"/>
			<point x="-1.5" y="425.8"/>
			<point x="223" y="562.7"/>
			<point x="454.4" y="559.7" type="qcurve" smooth="yes"/>
			<point x="912.2" y="554.7" type="line"/>
			<point x="912.2" y="605" type="line" smooth="yes"/>
			<point x="912.2" y="628.7"/>
			<point x="852.1" y="656.8"/>
			<point x="764.9" y="656.8" type="qcurve" smooth="yes"/>
			<point x="696.5" y="656.8"/>
			<point x="632.8" y="629.7"/>
			<point x="632.8" y="599.9" type="qcurve" smooth="yes"/>
			<point x="632.8" y="577.9" type="line"/>
			<point x="111.7" y="580.9" type="line"/>
			<point x="111.7" y="597.9" type="line" smooth="yes"/>
			<point x="111.7" y="760.2"/>
			<point x="483.1" y="952"/>
			<point x="819.8" y="952" type="qcurve" smooth="yes"/>
			<point x="1188.5" y="952"/>
			<point x="1500.2" y="763"/>
			<point x="1500.2" y="557" type="qcurve" smooth="yes"/>
			<point x="1500.2" y="182" type="line" smooth="yes"/>
			<point x="1500.2" y="132"/>
			<point x="1522.1" y="42.5"/>
			<point x="1544.6" y="12" type="qcurve"/>
			<point x="1544.6" y="0" type="line"/>
			<point x="952.5" y="0" type="line"/>
			<point x="935.8" y="23.7"/>
			<point x="923.2" y="75.6"/>
			<point x="920.2" y="128.1" type="qcurve"/>
			<point x="872.1" y="71.7"/>
			<point x="623.1" y="-13"/>
			<point x="428.5" y="-13" type="qcurve" smooth="yes"/>
			<point x="217.5" y="-13"/>
			<point x="-1.5" y="147"/>
		</contour>
		<contour>
			<point x="575.8" y="334.9" type="qcurve" smooth="yes"/>
			<point x="575.8" y="301.3"/>
			<point x="631.3" y="264.1"/>
			<point x="694.4" y="264.1" type="qcurve" smooth="yes"/>
			<point x="774.8" y="264.1"/>
			<point x="912.2" y="308.9"/>
			<point x="912.2" y="371.3" type="qcurve"/>
			<point x="912.2" y="368.7" type="line"/>
			<point x="665.1" y="371.7" type="line" smooth="yes"/>
			<point x="614.9" y="372.7"/>
			<point x="575.8" y="357.4"/>
		</contour>
	</outline>
</glyph>
<glyph name="b" format="2">
	<unicode hex="0062"/>
	<advance width="1686"/>
	<outline>
		<contour>
			<point x="86" y="0" type="line"/>
			<point x="86" y="1458" type="line"/>
			<point x="666" y="1458" type="line"/>
			<point x="666" y="791.7" type="line"/>
			<point x="708.1" y="850.3"/>
			<point x="917" y="954"/>
			<point x="1079.3" y="954" type="qcurve" smooth="yes"/>
			<point x="1326.9" y="954"/>
			<point x="1647.5" y="689"/>
			<point x="1647.5" y="468" type="qcurve" smooth="yes"/>
			<point x="1647.5" y="456" type="line" smooth="yes"/>
			<point x="1647.5" y="222"/>
			<point x="1309.9" y="-30"/>
			<point x="1072.3" y="-30" type="qcurve" smooth="yes"/>
			<point x="916.9" y="-30"/>
			<point x="714.2" y="42.7"/>
			<point x="671.1" y="78.3" type="qcurve"/>
			<point x="670.1" y="78.3" type="line"/>
			<point x="670.2" y="0" type="line"/>
		</contour>
		<contour>
			<point x="670" y="388.4" type="line"/>
			<point x="689.3" y="378.2"/>
			<point x="817.7" y="346.7"/>
			<point x="893.2" y="346.7" type="qcurve" smooth="yes"/>
			<point x="978.5" y="346.7"/>
			<point x="1072.2" y="394.8"/>
			<point x="1072.2" y="453" type="qcurve" smooth="yes"/>
			<point x="1072.2" y="460" type="line" smooth="yes"/>
			<point x="1072.2" y="510.2"/>
			<point x="978.5" y="567.3"/>
			<point x="875.2" y="567.3" type="qcurve" smooth="yes"/>
			<point x="801.7" y="567.3"/>
			<point x="689.3" y="533.8"/>
			<point x="670" y="518.6" type="qcurve"/>
		</contour>
	</outline>
</glyph>
<glyph name="c" format="2">
  <advance width="1531"/>
  <unicode hex="0063"/>
  <outline>
    <contour>
      <point x="38.5" y="460.0" type="qcurve" smooth="yes"/>
      <point x="38.5" y="473.0" type="line" smooth="yes"/>
      <point x="38.5" y="699.0"/>
      <point x="457.3" y="962.0"/>
      <point x="818.7" y="962.0" type="qcurve" smooth="yes"/>
      <point x="1152.5" y="962.0"/>
      <point x="1504.4" y="717.9"/>
      <point x="1526.5" y="520.0" type="qcurve" smooth="yes"/>
      <point x="1529.7" y="485.70000000000005" type="line"/>
      <point x="1034.4" y="485.70000000000005" type="line"/>
      <point x="1032.3" y="497.29999999999995" type="line" smooth="yes"/>
      <point x="1026.0" y="525.8"/>
      <point x="951.2" y="557.9"/>
      <point x="842.7" y="557.9" type="qcurve" smooth="yes"/>
      <point x="737.5" y="557.9"/>
      <point x="624.7" y="517.4"/>
      <point x="624.7" y="466.0" type="qcurve" smooth="yes"/>
      <point x="624.7" y="451.0" type="line" smooth="yes"/>
      <point x="624.7" y="387.6"/>
      <point x="729.5" y="350.1"/>
      <point x="840.7" y="350.1" type="qcurve" smooth="yes"/>
      <point x="942.2" y="350.1"/>
      <point x="1032.3" y="380.7"/>
      <point x="1036.3" y="404.2" type="qcurve" smooth="yes"/>
      <point x="1038.3" y="419.3" type="line"/>
      <point x="1529.5" y="419.3" type="line"/>
      <point x="1527.5" y="384.2" type="line" smooth="yes"/>
      <point x="1512.5" y="196.3"/>
      <point x="1169.5" y="-36.0"/>
      <point x="823.7" y="-36.0" type="qcurve" smooth="yes"/>
      <point x="455.3" y="-36.0"/>
      <point x="38.5" y="223.0"/>
    </contour>
  </outline>
</glyph>
<glyph name="d" format="2">
	<unicode hex="0064"/>
	<advance width="1688"/>
	<outline>
		<contour>
			<point x="38.5" y="457" type="qcurve" smooth="yes"/>
			<point x="38.5" y="474" type="line" smooth="yes"/>
			<point x="38.5" y="688"/>
			<point x="337.2" y="944"/>
			<point x="595.8" y="943" type="qcurve" smooth="yes"/>
			<point x="766.2" y="944"/>
			<point x="991.8" y="838.6"/>
			<point x="1037" y="782.7" type="qcurve"/>
			<point x="1037" y="1458" type="line"/>
			<point x="1602" y="1458" type="line"/>
			<point x="1602" y="0" type="line"/>
			<point x="1032.7" y="0" type="line"/>
			<point x="1032.8" y="119.3" type="line"/>
			<point x="1030.9" y="119.3" type="line"/>
			<point x="974.7" y="57.7"/>
			<point x="758.4" y="-29"/>
			<point x="593" y="-29" type="qcurve" smooth="yes"/>
			<point x="337.3" y="-29"/>
			<point x="38.5" y="223"/>
		</contour>
		<contour>
			<point x="614.7" y="451" type="line" smooth="yes"/>
			<point x="614.7" y="396.8"/>
			<point x="713.8" y="345.7"/>
			<point x="798.1" y="345.7" type="qcurve" smooth="yes"/>
			<point x="886.5" y="345.7"/>
			<point x="1003.5" y="385.2"/>
			<point x="1017" y="400.4" type="qcurve"/>
			<point x="1017" y="508.6" type="line"/>
			<point x="996.5" y="534.5"/>
			<point x="885.5" y="568.3"/>
			<point x="796.1" y="568.3" type="qcurve" smooth="yes"/>
			<point x="706.8" y="568.3"/>
			<point x="614.7" y="506.2"/>
			<point x="614.7" y="457" type="qcurve" smooth="yes"/>
		</contour>
	</outline>
</glyph>
<glyph name="e" format="2">
	<unicode hex="0065"/>
	<advance width="1614"/>
	<outline>
		<contour>
			<point x="38.5" y="461" type="qcurve" smooth="yes"/>
			<point x="38.5" y="472" type="line" smooth="yes"/>
			<point x="38.5" y="699"/>
			<point x="478.1" y="960"/>
			<point x="851.4" y="960" type="qcurve" smooth="yes"/>
			<point x="1212.8" y="960"/>
			<point x="1608.9" y="696"/>
			<point x="1608.9" y="487" type="qcurve" smooth="yes"/>
			<point x="1608.9" y="419.5" type="line"/>
			<point x="352.2" y="419.5" type="line"/>
			<point x="352.2" y="509.7" type="line"/>
			<point x="1050.1" y="509.7" type="line"/>
			<point x="1050.1" y="513.6" type="line" smooth="yes"/>
			<point x="1050.1" y="543.6"/>
			<point x="957.7" y="575.5"/>
			<point x="845.6" y="575.5" type="qcurve" smooth="yes"/>
			<point x="735.9" y="575.5"/>
			<point x="620" y="541.7"/>
			<point x="620" y="486" type="qcurve" smooth="yes"/>
			<point x="620" y="452" type="line" smooth="yes"/>
			<point x="620" y="388.3"/>
			<point x="738.8" y="346.5"/>
			<point x="825.9" y="346.5" type="qcurve" smooth="yes"/>
			<point x="960.8" y="346.5"/>
			<point x="1081.8" y="388.3"/>
			<point x="1100.5" y="410.6" type="qcurve"/>
			<point x="1601.7" y="335.1" type="line"/>
			<point x="1531.6" y="145.7"/>
			<point x="1183.3" y="-37.1"/>
			<point x="829.9" y="-37.1" type="qcurve" smooth="yes"/>
			<point x="467" y="-37.1"/>
			<point x="38.5" y="222"/>
		</contour>
	</outline>
</glyph>
<glyph name="f" format="2">
	<unicode hex="0066"/>
	<advance width="1006"/>
	<outline>
		<contour>
			<point x="206.3" y="0" type="line"/>
			<point x="206.3" y="1029.4" type="line" smooth="yes"/>
			<point x="206.3" y="1250.1"/>
			<point x="553.1" y="1478"/>
			<point x="854.4" y="1478" type="qcurve" smooth="yes"/>
			<point x="916" y="1478"/>
			<point x="1012.1" y="1467"/>
			<point x="1067.8" y="1458" type="qcurve"/>
			<point x="1065.9" y="1051.1" type="line"/>
			<point x="1043.2" y="1053.1"/>
			<point x="994.8" y="1058.1"/>
			<point x="956.1" y="1058.1" type="qcurve" smooth="yes"/>
			<point x="871.9" y="1058.1"/>
			<point x="774.3" y="995.3"/>
			<point x="774.3" y="924.4" type="qcurve" smooth="yes"/>
			<point x="774.3" y="835.7" type="line"/>
			<point x="784.3" y="826.7" type="line"/>
			<point x="784.3" y="0" type="line"/>
		</contour>
		<contour>
			<point x="4" y="513.3" type="line"/>
			<point x="4" y="914" type="line"/>
			<point x="288" y="914" type="line"/>
			<point x="305.4" y="914" type="line"/>
			<point x="1028.9" y="914" type="line"/>
			<point x="1028.9" y="513.3" type="line"/>
		</contour>
	</outline>
</glyph>
<glyph name="g" format="2">
	<unicode hex="0067"/>
	<advance width="1686"/>
	<outline>
		<contour>
			<point x="129" y="-357" type="qcurve"/>
			<point x="178.5" y="32.6" type="line"/>
			<point x="237.4" y="-1.4"/>
			<point x="552.9" y="-86.5"/>
			<point x="710.2" y="-86.5" type="qcurve" smooth="yes"/>
			<point x="816.1" y="-86.5"/>
			<point x="1026" y="-23"/>
			<point x="1026" y="64.5" type="qcurve" smooth="yes"/>
			<point x="1026" y="118.3" type="line"/>
			<point x="969.8" y="57.7"/>
			<point x="784.2" y="-30"/>
			<point x="595.8" y="-30" type="qcurve" smooth="yes"/>
			<point x="353.2" y="-30"/>
			<point x="38.5" y="222"/>
			<point x="38.5" y="456" type="qcurve" smooth="yes"/>
			<point x="38.5" y="468" type="line" smooth="yes"/>
			<point x="38.5" y="690"/>
			<point x="328.3" y="944"/>
			<point x="581.9" y="944" type="qcurve" smooth="yes"/>
			<point x="748.3" y="944"/>
			<point x="970.7" y="839.3"/>
			<point x="1013.9" y="781.7" type="qcurve"/>
			<point x="1017.8" y="781.7" type="line"/>
			<point x="1016.7" y="914" type="line"/>
			<point x="1600" y="914" type="line"/>
			<point x="1600" y="244.5" type="line" smooth="yes"/>
			<point x="1600" y="-109.7"/>
			<point x="1180.9" y="-451"/>
			<point x="840.3" y="-451" type="qcurve" smooth="yes"/>
			<point x="600.7" y="-451"/>
			<point x="238.4" y="-389.9"/>
		</contour>
		<contour>
			<point x="614.7" y="449" type="line" smooth="yes"/>
			<point x="614.7" y="395.8"/>
			<point x="709.8" y="337.7"/>
			<point x="810" y="337.7" type="qcurve" smooth="yes"/>
			<point x="898.5" y="337.7"/>
			<point x="1004.6" y="378.2"/>
			<point x="1017" y="392.4" type="qcurve"/>
			<point x="1017" y="518.6" type="line"/>
			<point x="995.5" y="539.3"/>
			<point x="884.5" y="568.3"/>
			<point x="813.1" y="568.3" type="qcurve" smooth="yes"/>
			<point x="705.8" y="568.3"/>
			<point x="614.7" y="505.2"/>
			<point x="614.7" y="455" type="qcurve" smooth="yes"/>
		</contour>
	</outline>
</glyph>
<glyph name="h" format="2">
	<unicode hex="0068"/>
	<advance width="1647"/>
	<outline>
		<contour>
			<point x="86" y="0" type="line"/>
			<point x="86" y="1454" type="line"/>
			<point x="672" y="1454" type="line"/>
			<point x="672" y="746.2" type="line"/>
			<point x="697.7" y="800.2"/>
			<point x="937.3" y="956"/>
			<point x="1125.2" y="956" type="qcurve" smooth="yes"/>
			<point x="1337.3" y="956"/>
			<point x="1576" y="738.9"/>
			<point x="1576" y="553.4" type="qcurve" smooth="yes"/>
			<point x="1576" y="0" type="line"/>
			<point x="990" y="0" type="line"/>
			<point x="990" y="429.4" type="line" smooth="yes"/>
			<point x="990" y="476.4"/>
			<point x="941.3" y="532.6"/>
			<point x="874.8" y="532.6" type="qcurve" smooth="yes"/>
			<point x="807.1" y="532.6"/>
			<point x="690.3" y="472.4"/>
			<point x="673" y="440.4" type="qcurve"/>
			<point x="673" y="0" type="line"/>
		</contour>
	</outline>
</glyph>
<glyph name="i" format="2">
  <advance width="769"/>
  <unicode hex="0069"/>
  <outline>
    <contour>
      <point x="85.0" y="0.0" type="line"/>
      <point x="85.0" y="914.0" type="line"/>
      <point x="684.0" y="914.0" type="line"/>
      <point x="684.0" y="0.0" type="line"/>
    </contour>
    <contour>
      <point x="65.7" y="1215.1" type="qcurve" smooth="yes"/>
      <point x="65.7" y="1333.5"/>
      <point x="232.4" y="1494.5"/>
      <point x="386.0" y="1494.5" type="qcurve" smooth="yes"/>
      <point x="540.6" y="1494.5"/>
      <point x="703.3" y="1335.5"/>
      <point x="703.3" y="1214.1" type="qcurve" smooth="yes"/>
      <point x="703.3" y="1097.6"/>
      <point x="535.6" y="929.5999999999999"/>
      <point x="382.0" y="929.5999999999999" type="qcurve" smooth="yes"/>
      <point x="228.4" y="929.5999999999999"/>
      <point x="65.7" y="1097.6"/>
    </contour>
  </outline>
</glyph>
<glyph name="j" format="2">
  <advance width="807"/>
  <unicode hex="006A"/>
  <outline>
    <contour>
      <point x="-265.0" y="-404.0" type="qcurve"/>
      <point x="-278.0" y="16.900000000000006" type="line"/>
      <point x="-248.5" y="4.900000000000006"/>
      <point x="-153.4" y="-19.099999999999994"/>
      <point x="-48.2" y="-19.099999999999994" type="qcurve" smooth="yes"/>
      <point x="39.1" y="-19.099999999999994"/>
      <point x="131.1" y="60.900000000000006"/>
      <point x="131.1" y="212.9" type="qcurve" smooth="yes"/>
      <point x="131.1" y="914.0" type="line"/>
      <point x="725.1" y="914.0" type="line"/>
      <point x="725.1" y="114.0" type="line" smooth="yes"/>
      <point x="725.1" y="-179.0"/>
      <point x="380.8" y="-440.0"/>
      <point x="84.5" y="-440.0" type="qcurve" smooth="yes"/>
      <point x="-16.599999999999994" y="-440.0"/>
      <point x="-206.6" y="-419.1"/>
    </contour>
    <contour>
      <point x="114.8" y="1214.1" type="qcurve" smooth="yes"/>
      <point x="114.8" y="1333.5"/>
      <point x="281.5" y="1494.5"/>
      <point x="436.1" y="1494.5" type="qcurve" smooth="yes"/>
      <point x="589.7" y="1494.5"/>
      <point x="752.4" y="1335.5"/>
      <point x="752.4" y="1214.1" type="qcurve" smooth="yes"/>
      <point x="752.4" y="1097.6"/>
      <point x="584.7" y="929.5999999999999"/>
      <point x="431.1" y="929.5999999999999" type="qcurve" smooth="yes"/>
      <point x="277.5" y="929.5999999999999"/>
      <point x="114.8" y="1097.6"/>
    </contour>
  </outline>
</glyph>
<glyph name="k" format="2">
  <advance width="1716"/>
  <unicode hex="006B"/>
  <outline>
    <contour>
      <point x="86.0" y="0.0" type="line"/>
      <point x="86.0" y="1458.0" type="line"/>
      <point x="671.0" y="1458.0" type="line"/>
      <point x="671.0" y="647.8" type="line"/>
      <point x="1017.2" y="914.0" type="line"/>
      <point x="1677.9" y="914.0" type="line"/>
      <point x="671.0" y="134.60000000000002" type="line"/>
      <point x="671.0" y="0.0" type="line"/>
    </contour>
    <contour>
      <point x="1123.3" y="0.0" type="line"/>
      <point x="655.7" y="372.3" type="line"/>
      <point x="1008.0999999999999" y="644.8" type="line"/>
      <point x="1815.0" y="0.0" type="line"/>
    </contour>
  </outline>
</glyph>
<glyph name="m" format="2">
	<unicode hex="006D"/>
	<advance width="2462"/>
	<outline>
		<contour>
			<point x="86" y="-1" type="line"/>
			<point x="86" y="913" type="line"/>
			<point x="665.2" y="913" type="line"/>
			<point x="665.1" y="749.5" type="line"/>
			<point x="669.1" y="749.5" type="line"/>
			<point x="715.1" y="841.2"/>
			<point x="946.3" y="953"/>
			<point x="1101.1" y="953" type="qcurve" smooth="yes"/>
			<point x="1257.8" y="953"/>
			<point x="1454.7" y="826"/>
			<point x="1483.4" y="741.4" type="qcurve"/>
			<point x="1486.2" y="741.4" type="line"/>
			<point x="1561.7" y="840.1"/>
			<point x="1778.5" y="955"/>
			<point x="1950.9" y="955" type="qcurve" smooth="yes"/>
			<point x="2146.6" y="955"/>
			<point x="2394" y="741.7"/>
			<point x="2394" y="556.1" type="qcurve" smooth="yes"/>
			<point x="2394" y="-1" type="line"/>
			<point x="1806" y="-1" type="line"/>
			<point x="1806" y="421.1" type="line" smooth="yes"/>
			<point x="1806" y="473.3"/>
			<point x="1756.7" y="533.6"/>
			<point x="1686.2" y="533.6" type="qcurve" smooth="yes"/>
			<point x="1618.1" y="533.6"/>
			<point x="1541.2" y="487.4"/>
			<point x="1533" y="455.1" type="qcurve"/>
			<point x="1533" y="-1" type="line"/>
			<point x="945" y="-1" type="line"/>
			<point x="945" y="417.1" type="line" smooth="yes"/>
			<point x="945" y="465.3"/>
			<point x="896.8" y="533.6"/>
			<point x="832.2" y="533.6" type="qcurve" smooth="yes"/>
			<point x="778.2" y="533.6"/>
			<point x="684.3" y="484.4"/>
			<point x="673" y="444.1" type="qcurve"/>
			<point x="673" y="-1" type="line"/>
		</contour>
	</outline>
</glyph>
<glyph name="n" format="2">
  <advance width="1647"/>
  <unicode hex="006E"/>
  <outline>
    <contour>
      <point x="86.0" y="0.0" type="line"/>
      <point x="86.0" y="914.0" type="line"/>
      <point x="671.2" y="914.0" type="line"/>
      <point x="671.1" y="755.8" type="line"/>
      <point x="672.1" y="755.8" type="line"/>
      <point x="710.9" y="828.0"/>
      <point x="933.9" y="956.1"/>
      <point x="1128.5" y="956.1" type="qcurve" smooth="yes"/>
      <point x="1335.7" y="956.1"/>
      <point x="1577.0" y="739.9"/>
      <point x="1577.0" y="554.4" type="qcurve" smooth="yes"/>
      <point x="1577.0" y="0.0" type="line"/>
      <point x="990.0" y="0.0" type="line"/>
      <point x="990.0" y="431.4" type="line" smooth="yes"/>
      <point x="990.0" y="487.70000000000005"/>
      <point x="941.0" y="532.6"/>
      <point x="871.9" y="532.6" type="qcurve" smooth="yes"/>
      <point x="808.3" y="532.6"/>
      <point x="690.1" y="473.6"/>
      <point x="673.0" y="440.4" type="qcurve"/>
      <point x="673.0" y="0.0" type="line"/>
    </contour>
  </outline>
</glyph>
<glyph name="o" format="2">
  <advance width="1665"/>
  <unicode hex="006F"/>
  <outline>
    <contour>
      <point x="38.5" y="459.0" type="qcurve" smooth="yes"/>
      <point x="38.5" y="471.0" type="line" smooth="yes"/>
      <point x="38.5" y="689.0"/>
      <point x="472.5" y="962.0"/>
      <point x="832.0" y="962.0" type="qcurve" smooth="yes"/>
      <point x="1193.5" y="962.0"/>
      <point x="1626.5" y="689.0"/>
      <point x="1626.5" y="471.0" type="qcurve" smooth="yes"/>
      <point x="1626.5" y="459.0" type="line" smooth="yes"/>
      <point x="1626.5" y="233.0"/>
      <point x="1192.5" y="-37.0"/>
      <point x="832.0" y="-37.0" type="qcurve" smooth="yes"/>
      <point x="471.5" y="-37.0"/>
      <point x="38.5" y="233.0"/>
    </contour>
    <contour>
      <point x="627.7" y="466.0" type="qcurve" smooth="yes"/>
      <point x="627.7" y="451.0" type="line" smooth="yes"/>
      <point x="627.7" y="395.8"/>
      <point x="729.6" y="349.7"/>
      <point x="829.0" y="349.7" type="qcurve" smooth="yes"/>
      <point x="929.4" y="349.7"/>
      <point x="1029.3" y="396.8"/>
      <point x="1029.3" y="452.0" type="qcurve" smooth="yes"/>
      <point x="1029.3" y="466.0" type="line" smooth="yes"/>
      <point x="1029.3" y="525.2"/>
      <point x="929.4" y="567.3"/>
      <point x="829.0" y="567.3" type="qcurve" smooth="yes"/>
      <point x="729.6" y="567.3"/>
      <point x="627.7" y="524.2"/>
    </contour>
  </outline>
</glyph>
<glyph name="p" format="2">
	<unicode hex="0070"/>
	<advance width="1684"/>
	<outline>
		<contour>
			<point x="86" y="-388" type="line"/>
			<point x="86" y="914" type="line"/>
			<point x="661.5" y="914" type="line"/>
			<point x="661.4" y="822.7" type="line"/>
			<point x="664.4" y="822.7" type="line"/>
			<point x="708.5" y="867.3"/>
			<point x="907.9" y="955"/>
			<point x="1075.3" y="955" type="qcurve" smooth="yes"/>
			<point x="1333.9" y="955"/>
			<point x="1645.5" y="710"/>
			<point x="1645.5" y="468" type="qcurve" smooth="yes"/>
			<point x="1645.5" y="456" type="line" smooth="yes"/>
			<point x="1645.5" y="223"/>
			<point x="1314.9" y="-30"/>
			<point x="1071.3" y="-30" type="qcurve" smooth="yes"/>
			<point x="912" y="-30"/>
			<point x="711.1" y="35.7"/>
			<point x="671" y="58.3" type="qcurve"/>
			<point x="669" y="-388" type="line"/>
		</contour>
		<contour>
			<point x="670" y="384.4" type="line"/>
			<point x="685.3" y="370.2"/>
			<point x="799.7" y="335.7"/>
			<point x="881.2" y="335.7" type="qcurve" smooth="yes"/>
			<point x="971.5" y="335.7"/>
			<point x="1071.2" y="393.8"/>
			<point x="1071.2" y="458" type="qcurve" smooth="yes"/>
			<point x="1071.2" y="468" type="line" smooth="yes"/>
			<point x="1071.2" y="526.4"/>
			<point x="971.5" y="568.3"/>
			<point x="884.2" y="568.3" type="qcurve" smooth="yes"/>
			<point x="805.7" y="568.3"/>
			<point x="685.3" y="532.8"/>
			<point x="670" y="519.6" type="qcurve"/>
		</contour>
	</outline>
</glyph>
<glyph name="q" format="2">
  <advance width="1688"/>
  <unicode hex="0071"/>
  <outline>
    <contour>
      <point x="38.5" y="457.0" type="qcurve" smooth="yes"/>
      <point x="38.5" y="474.0" type="line" smooth="yes"/>
      <point x="38.5" y="688.0"/>
      <point x="337.2" y="944.0"/>
      <point x="594.8" y="943.0" type="qcurve" smooth="yes"/>
      <point x="773.4" y="944.0"/>
      <point x="1000.0" y="844.4"/>
      <point x="1038.9" y="800.7" type="qcurve"/>
      <point x="1036.8" y="800.7" type="line"/>
      <point x="1036.7" y="914.0" type="line"/>
      <point x="1602.0" y="914.0" type="line"/>
      <point x="1602.0" y="-390.0" type="line"/>
      <point x="1033.0" y="-390.0" type="line"/>
      <point x="1031.0" y="132.3" type="line"/>
      <point x="1035.0" y="132.3" type="line"/>
      <point x="980.8" y="69.7"/>
      <point x="768.3" y="-29.0"/>
      <point x="601.9" y="-29.0" type="qcurve" smooth="yes"/>
      <point x="344.3" y="-29.0"/>
      <point x="38.5" y="223.0"/>
    </contour>
    <contour>
      <point x="614.7" y="453.0" type="line" smooth="yes"/>
      <point x="614.7" y="394.7"/>
      <point x="708.8" y="345.7"/>
      <point x="798.1" y="345.7" type="qcurve" smooth="yes"/>
      <point x="899.2" y="345.7"/>
      <point x="1005.6" y="386.2"/>
      <point x="1018.0" y="400.4" type="qcurve"/>
      <point x="1018.0" y="508.6" type="line"/>
      <point x="996.6" y="527.8"/>
      <point x="883.2" y="568.3"/>
      <point x="796.1" y="568.3" type="qcurve" smooth="yes"/>
      <point x="704.8" y="568.3"/>
      <point x="614.7" y="508.20000000000005"/>
      <point x="614.7" y="457.0" type="qcurve" smooth="yes"/>
    </contour>
  </outline>
</glyph>
<glyph name="r" format="2">
  <advance width="1325"/>
  <unicode hex="0072"/>
  <outline>
    <contour>
      <point x="86.0" y="0.0" type="line"/>
      <point x="86.0" y="914.0" type="line"/>
      <point x="684.2" y="914.0" type="line"/>
      <point x="684.1" y="695.1" type="line"/>
      <point x="686.1" y="695.1" type="line"/>
      <point x="735.1" y="791.3"/>
      <point x="965.1" y="939.0"/>
      <point x="1097.0" y="939.0" type="qcurve" smooth="yes"/>
      <point x="1193.7" y="939.0"/>
      <point x="1286.0" y="916.0"/>
      <point x="1314.9" y="903.0" type="qcurve"/>
      <point x="1314.9" y="491.0" type="line"/>
      <point x="1282.2" y="511.0"/>
      <point x="1182.8" y="533.0"/>
      <point x="1099.1" y="533.0" type="qcurve" smooth="yes"/>
      <point x="974.3" y="533.0"/>
      <point x="746.3" y="409.29999999999995"/>
      <point x="689.0" y="313.1" type="qcurve"/>
      <point x="689.0" y="0.0" type="line"/>
    </contour>
  </outline>
</glyph>
<glyph name="s" format="2">
	<unicode hex="0073"/>
	<advance width="1568"/>
	<outline>
		<contour>
			<point x="15.8" y="332.7" type="line"/>
			<point x="516.8" y="324.7" type="line"/>
			<point x="516.8" y="310.6" type="line" smooth="yes"/>
			<point x="516.8" y="267.2"/>
			<point x="654.8" y="245"/>
			<point x="773.2" y="245" type="qcurve" smooth="yes"/>
			<point x="917.6" y="245"/>
			<point x="1013.2" y="268.8"/>
			<point x="1013.2" y="289.7" type="qcurve" smooth="yes"/>
			<point x="1013.2" y="306.6"/>
			<point x="951.6" y="315.2"/>
			<point x="647.3" y="328.4" type="qcurve" smooth="yes"/>
			<point x="265" y="353.7"/>
			<point x="27.5" y="488.4"/>
			<point x="27.5" y="628.7" type="qcurve" smooth="yes"/>
			<point x="27.5" y="783.7"/>
			<point x="452.1" y="959"/>
			<point x="778.2" y="959" type="qcurve" smooth="yes"/>
			<point x="1104.3" y="959"/>
			<point x="1493.8" y="771.9"/>
			<point x="1493.8" y="637.8" type="qcurve" smooth="yes"/>
			<point x="1493.8" y="608.8" type="line"/>
			<point x="996.8" y="608.8" type="line"/>
			<point x="996.8" y="619.4" type="line" smooth="yes"/>
			<point x="996.8" y="639.4"/>
			<point x="868.6" y="655"/>
			<point x="735.2" y="655" type="qcurve" smooth="yes"/>
			<point x="580.8" y="655"/>
			<point x="526.6" y="642.2"/>
			<point x="526.6" y="630.3" type="qcurve" smooth="yes"/>
			<point x="526.6" y="620.4"/>
			<point x="583" y="611.9"/>
			<point x="910.4" y="600.6" type="qcurve" smooth="yes"/>
			<point x="1302.7" y="587.4"/>
			<point x="1552.5" y="456.6"/>
			<point x="1552.5" y="322.3" type="qcurve" smooth="yes"/>
			<point x="1552.5" y="167.3"/>
			<point x="1166.8" y="-37"/>
			<point x="798.2" y="-37" type="qcurve" smooth="yes"/>
			<point x="404.6" y="-37"/>
			<point x="20.8" y="160"/>
			<point x="16.8" y="298.7" type="qcurve" smooth="yes"/>
		</contour>
	</outline>
</glyph>
<glyph name="t" format="2">
  <advance width="1154"/>
  <unicode hex="0074"/>
  <outline>
    <contour>
      <point x="2.0" y="509.29999999999995" type="line"/>
      <point x="2.0" y="914.0" type="line"/>
      <point x="1129.5" y="914.0" type="line"/>
      <point x="1129.5" y="509.29999999999995" type="line"/>
    </contour>
    <contour>
      <point x="223.5" y="359.6" type="qcurve" smooth="yes"/>
      <point x="223.5" y="868.7" type="line"/>
      <point x="243.5" y="879.7" type="line"/>
      <point x="243.5" y="1172.0" type="line"/>
      <point x="796.5" y="1172.0" type="line"/>
      <point x="796.5" y="557.6" type="line" smooth="yes"/>
      <point x="796.5" y="466.6"/>
      <point x="879.3" y="375.6"/>
      <point x="959.0" y="375.6" type="qcurve" smooth="yes"/>
      <point x="1033.4" y="375.6"/>
      <point x="1104.6" y="391.7"/>
      <point x="1133.9" y="397.6" type="qcurve"/>
      <point x="1156.9" y="31.0" type="line"/>
      <point x="1108.3" y="16.0"/>
      <point x="912.4" y="-20.0"/>
      <point x="706.1" y="-20.0" type="qcurve" smooth="yes"/>
      <point x="482.5" y="-20.0"/>
      <point x="223.5" y="185.7"/>
    </contour>
  </outline>
</glyph>
<glyph name="u" format="2">
	<unicode hex="0075"/>
	<advance width="1647"/>
	<outline>
		<contour>
			<point x="70" y="348.6" type="qcurve" smooth="yes"/>
			<point x="70" y="914" type="line"/>
			<point x="657" y="914" type="line"/>
			<point x="657" y="472.6" type="line" smooth="yes"/>
			<point x="656.8" y="427.6"/>
			<point x="704.7" y="367.4"/>
			<point x="772.6" y="367.4" type="qcurve" smooth="yes"/>
			<point x="841.2" y="367.4"/>
			<point x="956.9" y="430.4"/>
			<point x="975" y="463.6" type="qcurve"/>
			<point x="975" y="914" type="line"/>
			<point x="1561" y="914" type="line"/>
			<point x="1561" y="0" type="line"/>
			<point x="974.8" y="0" type="line"/>
			<point x="977.9" y="154.2" type="line"/>
			<point x="975.9" y="154.2" type="line"/>
			<point x="953.2" y="102.6"/>
			<point x="712" y="-42"/>
			<point x="517.7" y="-42" type="qcurve" smooth="yes"/>
			<point x="311.7" y="-42"/>
			<point x="70" y="166.1"/>
		</contour>
	</outline>
</glyph>
<glyph name="v" format="2">
	<unicode hex="0076"/>
	<advance width="1545"/>
	<outline>
		<contour>
			<point x="-34.1" y="914" type="line"/>
			<point x="523.6" y="914" type="line"/>
			<point x="776.4" y="461.5" type="line" smooth="yes"/>
			<point x="782.4" y="450.6"/>
			<point x="785.9" y="442.5"/>
			<point x="788.9" y="434.5" type="qcurve"/>
			<point x="790.8" y="434.5" type="line"/>
			<point x="793.8" y="442.5"/>
			<point x="797.2" y="450.5"/>
			<point x="803.3" y="461.5" type="qcurve" smooth="yes"/>
			<point x="1066.2" y="914" type="line"/>
			<point x="1578.7" y="914" type="line"/>
			<point x="1059.6" y="0" type="line"/>
			<point x="494.1" y="0" type="line"/>
		</contour>
	</outline>
</glyph>
<glyph name="w" format="2">
	<unicode hex="0077"/>
	<advance width="2438"/>
	<outline>
		<contour>
			<point x="-12" y="914" type="line"/>
			<point x="534.7" y="914" type="line"/>
			<point x="751.5" y="427.6" type="line" smooth="yes"/>
			<point x="755.3" y="419.6"/>
			<point x="757.6" y="412.6"/>
			<point x="760.2" y="406.6" type="qcurve"/>
			<point x="764.2" y="406.6" type="line"/>
			<point x="766.9" y="412.6"/>
			<point x="769" y="419.6"/>
			<point x="772.9" y="427.6" type="qcurve" smooth="yes"/>
			<point x="995.1" y="914" type="line"/>
			<point x="1493.9" y="914" type="line"/>
			<point x="1708.5" y="427.6" type="line" smooth="yes"/>
			<point x="1712.4" y="419.6"/>
			<point x="1714.4" y="412.6"/>
			<point x="1717.1" y="406.6" type="qcurve"/>
			<point x="1721.1" y="406.6" type="line"/>
			<point x="1723.7" y="412.6"/>
			<point x="1726" y="419.6"/>
			<point x="1730" y="427.6" type="qcurve" smooth="yes"/>
			<point x="1949.3" y="914" type="line"/>
			<point x="2450.6" y="914" type="line"/>
			<point x="2038.6" y="0" type="line"/>
			<point x="1444" y="0" type="line"/>
			<point x="1225.8" y="421.2" type="line" smooth="yes"/>
			<point x="1223.8" y="425.2"/>
			<point x="1222.5" y="429.2"/>
			<point x="1220.7" y="432.2" type="qcurve"/>
			<point x="1212.8" y="432.2" type="line"/>
			<point x="1211" y="429.2"/>
			<point x="1210.4" y="426.2"/>
			<point x="1208.6" y="421.2" type="qcurve" smooth="yes"/>
			<point x="1015.4" y="0" type="line"/>
			<point x="397" y="0" type="line"/>
		</contour>
	</outline>
</glyph>
<glyph name="x" format="2">
  <advance width="1668"/>
  <unicode hex="0078"/>
  <outline>
    <contour>
      <point x="-28.0" y="0.0" type="line"/>
      <point x="556.0" y="566.4" type="line"/>
      <point x="747.1" y="566.4" type="line"/>
      <point x="1054.2" y="914.0" type="line"/>
      <point x="1686.2" y="914.0" type="line"/>
      <point x="1155.4" y="365.5" type="line"/>
      <point x="947.4" y="363.5" type="line"/>
      <point x="604.1" y="0.0" type="line"/>
    </contour>
    <contour>
      <point x="-18.2" y="914.0" type="line"/>
      <point x="728.6" y="914.0" type="line"/>
      <point x="1076.7" y="537.3" type="line"/>
      <point x="1131.0" y="537.3" type="line"/>
      <point x="1696.0" y="0.0" type="line"/>
      <point x="949.3" y="0.0" type="line"/>
      <point x="585.7" y="382.9" type="line"/>
      <point x="537.3" y="382.9" type="line"/>
    </contour>
  </outline>
</glyph>
<glyph name="y" format="2">
	<unicode hex="0079"/>
	<advance width="1546"/>
	<outline>
		<contour>
			<point x="-122.1" y="-391" type="qcurve"/>
			<point x="-61.1" y="-34.4" type="line"/>
			<point x="12.6" y="-52.4"/>
			<point x="126.1" y="-68.4"/>
			<point x="180.8" y="-68.4" type="qcurve" smooth="yes"/>
			<point x="302.1" y="-68.4"/>
			<point x="458.5" y="-22"/>
			<point x="496.2" y="14.6" type="qcurve"/>
			<point x="495.5" y="16.5" type="line"/>
			<point x="-34" y="914" type="line"/>
			<point x="529.7" y="914" type="line"/>
			<point x="753.9" y="523.5" type="line" smooth="yes"/>
			<point x="766.9" y="500.6"/>
			<point x="786" y="465.5"/>
			<point x="789.6" y="455.5" type="qcurve"/>
			<point x="794.5" y="455.5" type="line"/>
			<point x="799" y="465.5"/>
			<point x="820.2" y="502.5"/>
			<point x="833.2" y="524.5" type="qcurve" smooth="yes"/>
			<point x="1072.3" y="924" type="line"/>
			<point x="1634.6" y="914" type="line"/>
			<point x="1129" y="96" type="line" smooth="yes"/>
			<point x="948.6" y="-202.4"/>
			<point x="558.8" y="-436"/>
			<point x="317.1" y="-436" type="qcurve" smooth="yes"/>
			<point x="151.3" y="-436"/>
			<point x="-40.3" y="-412.1"/>
		</contour>
	</outline>
</glyph>
<glyph name="z" format="2">
  <advance width="1441"/>
  <unicode hex="007A"/>
  <outline>
    <contour>
      <point x="44.0" y="0.0" type="line"/>
      <point x="44.0" y="289.5" type="line"/>
      <point x="525.6" y="573.3" type="line"/>
      <point x="62.9" y="573.3" type="line"/>
      <point x="62.9" y="914.0" type="line"/>
      <point x="1359.4" y="914.0" type="line"/>
      <point x="1359.4" y="605.4" type="line"/>
      <point x="877.8" y="320.7" type="line"/>
      <point x="1398.0" y="320.7" type="line"/>
      <point x="1398.0" y="0.0" type="line"/>
    </contour>
  </outline>
</glyph>
<glyph name="braceleft" format="2">
	<unicode hex="007B"/>
	<advance width="1035"/>
	<outline>
		<contour>
			<point x="1025.7" y="-312" type="line"/>
			<point x="429.3" y="-342"/>
			<point x="155.1" y="-101.7"/>
			<point x="205.5" y="99" type="qcurve" smooth="yes"/>
			<point x="251.5" y="281.7" type="line" smooth="yes"/>
			<point x="263.9" y="332.7"/>
			<point x="166.6" y="357.7"/>
			<point x="72" y="357.7" type="qcurve"/>
			<point x="72" y="790.3" type="line"/>
			<point x="166.6" y="790.3"/>
			<point x="263.9" y="815.3"/>
			<point x="251.5" y="866.3" type="qcurve" smooth="yes"/>
			<point x="205.5" y="1049" type="line" smooth="yes"/>
			<point x="157.1" y="1240.7"/>
			<point x="429.3" y="1482"/>
			<point x="1025.7" y="1460" type="qcurve"/>
			<point x="1025.7" y="1062.7" type="line"/>
			<point x="818.7" y="1062.7"/>
			<point x="705.1" y="1029.7"/>
			<point x="719.4" y="976.7" type="qcurve" smooth="yes"/>
			<point x="765.5" y="814" type="line" smooth="yes"/>
			<point x="789" y="729.8"/>
			<point x="709.9" y="606"/>
			<point x="610.6" y="574" type="qcurve"/>
			<point x="709.9" y="542"/>
			<point x="789" y="418.2"/>
			<point x="765.5" y="334" type="qcurve" smooth="yes"/>
			<point x="719.4" y="171.3" type="line" smooth="yes"/>
			<point x="705.1" y="118.3"/>
			<point x="818.7" y="85.3"/>
			<point x="1025.7" y="85.3" type="qcurve"/>
		</contour>
	</outline>
</glyph>
<glyph name="braceright" format="2">
	<unicode hex="007D"/>
	<advance width="1035"/>
	<outline>
		<contour>
			<point x="11" y="-314" type="qcurve"/>
			<point x="11" y="83.3" type="line"/>
			<point x="219" y="83.3"/>
			<point x="327.1" y="116.4"/>
			<point x="312.2" y="169.3" type="qcurve" smooth="yes"/>
			<point x="265.2" y="332" type="line" smooth="yes"/>
			<point x="241.3" y="416.1"/>
			<point x="321.8" y="540"/>
			<point x="421.1" y="572" type="qcurve"/>
			<point x="321.8" y="604"/>
			<point x="240.3" y="727.9"/>
			<point x="265.2" y="812" type="qcurve" smooth="yes"/>
			<point x="312.2" y="974.7" type="line" smooth="yes"/>
			<point x="327.1" y="1027.6"/>
			<point x="219" y="1060.7"/>
			<point x="11" y="1060.7" type="qcurve"/>
			<point x="11" y="1458" type="line"/>
			<point x="605.4" y="1490"/>
			<point x="879.4" y="1247.6"/>
			<point x="825.1" y="1047" type="qcurve" smooth="yes"/>
			<point x="779.1" y="864.3" type="line" smooth="yes"/>
			<point x="766.3" y="813.4"/>
			<point x="870.1" y="788.3"/>
			<point x="964.7" y="788.3" type="qcurve"/>
			<point x="964.7" y="354.7" type="line"/>
			<point x="870.1" y="354.7"/>
			<point x="766.3" y="329.6"/>
			<point x="779.1" y="279.7" type="qcurve" smooth="yes"/>
			<point x="825.1" y="97" type="line" smooth="yes"/>
			<point x="877.4" y="-94.6"/>
			<point x="605.4" y="-334"/>
		</contour>
	</outline>
</glyph>
<glyph name="asciitilde" format="2">
	<unicode hex="007E"/>
	<advance width="1170"/>
	<outline>
		<contour>
			<point x="6" y="269" type="qcurve"/>
			<point x="6" y="822.5" type="line"/>
			<point x="53" y="897.5"/>
			<point x="193" y="966.5"/>
			<point x="283" y="966.5" type="qcurve" smooth="yes"/>
			<point x="351" y="966.5"/>
			<point x="516" y="931.5"/>
			<point x="611" y="898.5" type="qcurve" smooth="yes"/>
			<point x="710" y="862.5"/>
			<point x="859" y="825.5"/>
			<point x="919" y="825.5" type="qcurve" smooth="yes"/>
			<point x="987" y="825.5"/>
			<point x="1105" y="885.5"/>
			<point x="1164" y="953.5" type="qcurve"/>
			<point x="1164" y="349" type="line"/>
			<point x="1130" y="310"/>
			<point x="1014" y="256"/>
			<point x="922" y="256" type="qcurve" smooth="yes"/>
			<point x="854" y="256"/>
			<point x="670" y="292"/>
			<point x="551" y="330" type="qcurve" smooth="yes"/>
			<point x="459" y="359"/>
			<point x="315" y="388"/>
			<point x="261" y="388" type="qcurve" smooth="yes"/>
			<point x="159" y="388"/>
			<point x="45" y="315"/>
		</contour>
	</outline>
</glyph>
<glyph name="exclamdown" format="2">
  <advance width="776"/>
  <unicode hex="00A1"/>
  <outline>
    <contour>
      <point x="690.0" y="901.5" type="qcurve" smooth="yes"/>
      <point x="690.0" y="794.0"/>
      <point x="534.0" y="641.75"/>
      <point x="391.0" y="641.75" type="qcurve" smooth="yes"/>
      <point x="242.75" y="641.75"/>
      <point x="86.0" y="794.0"/>
      <point x="86.0" y="901.5" type="qcurve" smooth="yes"/>
      <point x="86.0" y="1010.0"/>
      <point x="241.75" y="1162.25"/>
      <point x="387.0" y="1162.25" type="qcurve" smooth="yes"/>
      <point x="534.0" y="1162.25"/>
      <point x="690.0" y="1009.0"/>
    </contour>
    <contour>
      <point x="631.25" y="577.5" type="line"/>
      <point x="639.25" y="-305.5" type="line"/>
      <point x="136.75" y="-305.5" type="line"/>
      <point x="145.5" y="577.5" type="line"/>
    </contour>
  </outline>
</glyph>
<glyph name="cent" format="2">
  <advance width="1531"/>
  <unicode hex="00A2"/>
  <outline>
    <contour>
      <point x="819.0" y="563.0" type="qcurve" smooth="yes"/>
      <point x="937.0" y="563.0"/>
      <point x="1043.0" y="598.0"/>
      <point x="1043.0" y="638.0" type="qcurve"/>
      <point x="1527.0" y="638.0" type="line"/>
      <point x="1527.0" y="394.0"/>
      <point x="1151.0" y="131.0"/>
      <point x="801.0" y="131.0" type="qcurve" smooth="yes"/>
      <point x="434.0" y="131.0"/>
      <point x="40.0" y="411.0"/>
      <point x="40.0" y="671.0" type="qcurve" smooth="yes"/>
      <point x="40.0" y="710.0" type="line" smooth="yes"/>
      <point x="40.0" y="971.0"/>
      <point x="432.0" y="1252.0"/>
      <point x="796.0" y="1252.0" type="qcurve" smooth="yes"/>
      <point x="1148.0" y="1252.0"/>
      <point x="1527.0" y="977.0"/>
      <point x="1527.0" y="722.0" type="qcurve"/>
      <point x="1042.0" y="722.0" type="line"/>
      <point x="1042.0" y="767.0"/>
      <point x="937.0" y="807.0"/>
      <point x="819.0" y="807.0" type="qcurve" smooth="yes"/>
      <point x="714.0" y="807.0"/>
      <point x="620.0" y="773.0"/>
      <point x="620.0" y="736.0" type="qcurve" smooth="yes"/>
      <point x="620.0" y="649.0" type="line" smooth="yes"/>
      <point x="620.0" y="604.0"/>
      <point x="714.0" y="563.0"/>
    </contour>
    <contour>
      <point x="629.0" y="0.0" type="line"/>
      <point x="629.0" y="237.0" type="line"/>
      <point x="634.0" y="251.0" type="line"/>
      <point x="634.0" y="708.0" type="line"/>
      <point x="974.0" y="708.0" type="line"/>
      <point x="974.0" y="250.0" type="line"/>
      <point x="979.0" y="240.0" type="line"/>
      <point x="979.0" y="0.0" type="line"/>
    </contour>
    <contour>
      <point x="634.0" y="708.0" type="line"/>
      <point x="634.0" y="1182.0" type="line"/>
      <point x="629.0" y="1192.0" type="line"/>
      <point x="629.0" y="1402.0" type="line"/>
      <point x="979.0" y="1402.0" type="line"/>
      <point x="979.0" y="1192.0" type="line"/>
      <point x="974.0" y="1179.0" type="line"/>
      <point x="974.0" y="708.0" type="line"/>
    </contour>
  </outline>
</glyph>
<glyph name="sterling" format="2">
  <advance width="1694"/>
  <unicode hex="00A3"/>
  <outline>
    <contour>
      <point x="1684.0" y="0.0" type="line"/>
      <point x="56.0" y="0.0" type="line"/>
      <point x="56.0" y="349.0" type="line"/>
      <point x="126.0" y="349.0" type="line" smooth="yes"/>
      <point x="168.0" y="349.0"/>
      <point x="184.0" y="425.0"/>
      <point x="168.0" y="547.0" type="qcurve" smooth="yes"/>
      <point x="113.0" y="936.0" type="line" smooth="yes"/>
      <point x="72.0" y="1221.0"/>
      <point x="437.0" y="1476.0"/>
      <point x="862.0" y="1476.0" type="qcurve" smooth="yes"/>
      <point x="1255.0" y="1476.0"/>
      <point x="1628.0" y="1229.0"/>
      <point x="1628.0" y="953.0" type="qcurve" smooth="yes"/>
      <point x="1628.0" y="937.0" type="line"/>
      <point x="991.0" y="937.0" type="line"/>
      <point x="991.0" y="953.0" type="line" smooth="yes"/>
      <point x="990.3" y="1025.0"/>
      <point x="909.0" y="1089.0"/>
      <point x="864.0" y="1089.0" type="qcurve" smooth="yes"/>
      <point x="821.0" y="1089.0"/>
      <point x="752.0" y="1017.0"/>
      <point x="763.0" y="936.0" type="qcurve" smooth="yes"/>
      <point x="813.0" y="574.0" type="line" smooth="yes"/>
      <point x="826.0" y="481.0"/>
      <point x="759.0" y="374.0"/>
      <point x="685.0" y="353.0" type="qcurve"/>
      <point x="1684.0" y="353.0" type="line"/>
    </contour>
    <contour>
      <point x="1095.0" y="625.0" type="line"/>
      <point x="76.0" y="625.0" type="line"/>
      <point x="76.0" y="780.0" type="line"/>
      <point x="1095.0" y="780.0" type="line"/>
    </contour>
  </outline>
</glyph>
<glyph name="currency" format="2">
  <advance width="1890"/>
  <unicode hex="00A4"/>
  <guideline x="0" y="901.0" angle="0" identifier="bRYxxRaQQf"/>
  <guideline x="0" y="555.0" angle="0" identifier="917FhrihjR"/>
  <outline>
    <contour>
      <point x="664.0" y="711.0" type="qcurve"/>
      <point x="664.0" y="665.0"/>
      <point x="795.0" y="624.0"/>
      <point x="941.0" y="624.0" type="qcurve" smooth="yes"/>
      <point x="1087.0" y="624.0"/>
      <point x="1218.0" y="665.0"/>
      <point x="1218.0" y="711.0" type="qcurve" smooth="yes"/>
      <point x="1218.0" y="757.0"/>
      <point x="1087.0" y="798.0"/>
      <point x="941.0" y="798.0" type="qcurve" smooth="yes"/>
      <point x="795.0" y="798.0"/>
      <point x="664.0" y="757.0"/>
    </contour>
    <contour>
      <point x="113.0" y="718.0" type="qcurve"/>
      <point x="113.0" y="962.0"/>
      <point x="542.0" y="1225.0"/>
      <point x="940.0" y="1225.0" type="qcurve" smooth="yes"/>
      <point x="1338.0" y="1225.0"/>
      <point x="1767.0" y="962.0"/>
      <point x="1767.0" y="718.0" type="qcurve" smooth="yes"/>
      <point x="1767.0" y="473.0"/>
      <point x="1338.0" y="209.0"/>
      <point x="940.0" y="209.0" type="qcurve" smooth="yes"/>
      <point x="542.0" y="209.0"/>
      <point x="113.0" y="473.0"/>
    </contour>
    <contour>
      <point x="1826.0" y="1136.0" type="line"/>
      <point x="1571.0" y="930.0" type="line"/>
      <point x="1417.0" y="1097.0" type="line"/>
      <point x="1672.0" y="1303.0" type="line"/>
    </contour>
    <contour>
      <point x="437.0" y="354.0" type="line"/>
      <point x="182.0" y="148.0" type="line"/>
      <point x="30.0" y="314.0" type="line"/>
      <point x="285.0" y="519.0" type="line"/>
    </contour>
    <contour>
      <point x="1705.0" y="155.0" type="line"/>
      <point x="1450.0" y="361.0" type="line"/>
      <point x="1605.0" y="527.0" type="line"/>
      <point x="1860.0" y="322.0" type="line"/>
    </contour>
    <contour>
      <point x="306.0" y="944.0" type="line"/>
      <point x="51.0" y="1150.0" type="line"/>
      <point x="204.0" y="1316.0" type="line"/>
      <point x="459.0" y="1110.0" type="line"/>
    </contour>
  </outline>
</glyph>
<glyph name="yen" format="2">
  <advance width="1851"/>
  <unicode hex="00A5"/>
  <outline>
    <contour>
      <point x="29.0" y="291.0" type="line"/>
      <point x="29.0" y="470.0" type="line"/>
      <point x="1830.0" y="470.0" type="line"/>
      <point x="1830.0" y="291.0" type="line"/>
    </contour>
    <contour>
      <point x="29.0" y="601.0" type="line"/>
      <point x="29.0" y="775.0" type="line"/>
      <point x="840.0" y="775.0" type="line"/>
      <point x="893.0" y="669.0" type="line"/>
      <point x="1002.0" y="669.0" type="line"/>
      <point x="1050.0" y="775.0" type="line"/>
      <point x="1830.0" y="775.0" type="line"/>
      <point x="1830.0" y="601.0" type="line"/>
    </contour>
    <contour>
      <point x="621.0" y="0.0" type="line"/>
      <point x="621.0" y="548.0" type="line"/>
      <point x="-49.0" y="1456.0" type="line"/>
      <point x="765.0" y="1456.0" type="line"/>
      <point x="861.0" y="1288.0" type="line" smooth="yes"/>
      <point x="877.0" y="1260.0"/>
      <point x="924.0" y="1155.0"/>
      <point x="935.0" y="1118.0" type="qcurve"/>
      <point x="955.0" y="1118.0" type="line"/>
      <point x="973.0" y="1174.0"/>
      <point x="1014.0" y="1259.0"/>
      <point x="1029.0" y="1288.0" type="qcurve" smooth="yes"/>
      <point x="1127.0" y="1456.0" type="line"/>
      <point x="1900.0" y="1456.0" type="line"/>
      <point x="1231.0" y="548.0" type="line"/>
      <point x="1231.0" y="0.0" type="line"/>
    </contour>
  </outline>
</glyph>
<glyph name="section" format="2">
  <advance width="1832"/>
  <unicode hex="00A7"/>
  <guideline x="0" y="1658.0" angle="0" identifier="QzZ5gIiCyn"/>
  <guideline x="0" y="578.0" angle="0" identifier="9Hxjf2sdFw"/>
  <outline>
    <contour>
      <point x="1096.0" y="92.5" type="qcurve"/>
      <point x="1096.0" y="439.0" type="line"/>
      <point x="1141.0" y="442.75"/>
      <point x="1186.25" y="467.5"/>
      <point x="1186.25" y="490.0" type="qcurve"/>
      <point x="1186.25" y="519.0"/>
      <point x="1089.25" y="557.0"/>
      <point x="716.5" y="607.5" type="qcurve" smooth="yes"/>
      <point x="418.25" y="649.75"/>
      <point x="170.5" y="866.5"/>
      <point x="170.5" y="1056.0" type="qcurve" smooth="yes"/>
      <point x="170.5" y="1266.5"/>
      <point x="613.25" y="1494.25"/>
      <point x="956.0" y="1494.0" type="qcurve" smooth="yes"/>
      <point x="1335.75" y="1493.75"/>
      <point x="1751.5" y="1264.0"/>
      <point x="1751.5" y="1050.0" type="qcurve"/>
      <point x="1161.0" y="1050.0" type="line"/>
      <point x="1161.0" y="1100.0"/>
      <point x="1081.25" y="1142.0"/>
      <point x="1007.75" y="1142.0" type="qcurve" smooth="yes"/>
      <point x="934.25" y="1142.0"/>
      <point x="870.75" y="1117.5"/>
      <point x="870.75" y="1097.5" type="qcurve" smooth="yes"/>
      <point x="870.75" y="1066.0"/>
      <point x="1037.75" y="1019.25"/>
      <point x="1226.5" y="994.5" type="qcurve" smooth="yes"/>
      <point x="1535.25" y="956.25"/>
      <point x="1797.0" y="747.25"/>
      <point x="1797.0" y="551.0" type="qcurve" smooth="yes"/>
      <point x="1797.0" y="320.75"/>
      <point x="1472.25" y="101.0"/>
    </contour>
    <contour>
      <point x="796.0" y="973.5" type="qcurve"/>
      <point x="796.0" y="605.0" type="line"/>
      <point x="716.5" y="605.0"/>
      <point x="658.0" y="577.0"/>
      <point x="658.0" y="555.5" type="qcurve" smooth="yes"/>
      <point x="658.0" y="530.5"/>
      <point x="767.0" y="493.5"/>
      <point x="1214.0" y="430.5" type="qcurve" smooth="yes"/>
      <point x="1459.0" y="396.5"/>
      <point x="1673.0" y="182.75"/>
      <point x="1673.0" y="-18.0" type="qcurve" smooth="yes"/>
      <point x="1673.0" y="-257.5"/>
      <point x="1222.5" y="-509.0"/>
      <point x="868.0" y="-509.0" type="qcurve" smooth="yes"/>
      <point x="466.5" y="-509.0"/>
      <point x="32.5" y="-251.5"/>
      <point x="32.5" y="-8.0" type="qcurve"/>
      <point x="604.0" y="-8.0" type="line"/>
      <point x="604.0" y="-82.0"/>
      <point x="707.0" y="-151.0"/>
      <point x="806.0" y="-151.0" type="qcurve" smooth="yes"/>
      <point x="886.25" y="-151.0"/>
      <point x="975.5" y="-116.5"/>
      <point x="975.5" y="-82.0" type="qcurve" smooth="yes"/>
      <point x="975.5" y="-41.5"/>
      <point x="787.5" y="17.25"/>
      <point x="598.0" y="43.5" type="qcurve" smooth="yes"/>
      <point x="305.0" y="86.0"/>
      <point x="47.0" y="302.0"/>
      <point x="47.0" y="510.0" type="qcurve" smooth="yes"/>
      <point x="47.0" y="756.0"/>
      <point x="397.5" y="971.25"/>
    </contour>
  </outline>
</glyph>
<glyph name="copyright" format="2">
  <advance width="2418"/>
  <unicode hex="00A9"/>
  <guideline x="0" y="901.0" angle="0" identifier="0Pjz0qKr8z"/>
  <guideline x="0" y="555.0" angle="0" identifier="sJo8BlDiJ7"/>
  <outline>
    <contour>
      <point x="1504.0" y="646.0" type="qcurve"/>
      <point x="1988.0" y="646.0" type="line"/>
      <point x="1988.0" y="433.0"/>
      <point x="1598.0" y="203.0"/>
      <point x="1235.0" y="203.0" type="qcurve" smooth="yes"/>
      <point x="842.0" y="203.0"/>
      <point x="420.0" y="448.0"/>
      <point x="420.0" y="675.0" type="qcurve" smooth="yes"/>
      <point x="420.0" y="709.0" type="line" smooth="yes"/>
      <point x="420.0" y="937.0"/>
      <point x="840.0" y="1182.0"/>
      <point x="1230.0" y="1182.0" type="qcurve" smooth="yes"/>
      <point x="1595.0" y="1182.0"/>
      <point x="1988.0" y="942.0"/>
      <point x="1988.0" y="719.0" type="qcurve"/>
      <point x="1503.0" y="719.0" type="line"/>
      <point x="1503.0" y="758.0"/>
      <point x="1385.0" y="793.0"/>
      <point x="1253.0" y="793.0" type="qcurve" smooth="yes"/>
      <point x="1119.0" y="793.0"/>
      <point x="999.0" y="764.0"/>
      <point x="999.0" y="731.0" type="qcurve" smooth="yes"/>
      <point x="999.0" y="655.0" type="line" smooth="yes"/>
      <point x="999.0" y="615.0"/>
      <point x="1119.0" y="580.0"/>
      <point x="1253.0" y="580.0" type="qcurve" smooth="yes"/>
      <point x="1385.0" y="580.0"/>
      <point x="1504.0" y="611.0"/>
    </contour>
    <contour>
      <point x="246.0" y="687.0" type="qcurve" smooth="yes"/>
      <point x="246.0" y="377.0"/>
      <point x="735.0" y="44.0"/>
      <point x="1190.0" y="44.0" type="qcurve" smooth="yes"/>
      <point x="1664.0" y="44.0"/>
      <point x="2173.0" y="377.0"/>
      <point x="2173.0" y="687.0" type="qcurve" smooth="yes"/>
      <point x="2173.0" y="995.0"/>
      <point x="1664.0" y="1327.0"/>
      <point x="1190.0" y="1327.0" type="qcurve" smooth="yes"/>
      <point x="735.0" y="1327.0"/>
      <point x="246.0" y="995.0"/>
    </contour>
    <contour>
      <point x="38.0" y="687.0" type="qcurve" smooth="yes"/>
      <point x="38.0" y="1088.0"/>
      <point x="634.0" y="1519.0"/>
      <point x="1189.0" y="1519.0" type="qcurve" smooth="yes"/>
      <point x="1763.0" y="1519.0"/>
      <point x="2380.0" y="1088.0"/>
      <point x="2380.0" y="687.0" type="qcurve" smooth="yes"/>
      <point x="2380.0" y="285.0"/>
      <point x="1763.0" y="-147.0"/>
      <point x="1189.0" y="-147.0" type="qcurve" smooth="yes"/>
      <point x="634.0" y="-147.0"/>
      <point x="38.0" y="285.0"/>
    </contour>
  </outline>
</glyph>
<glyph name="ordfeminine" format="2">
  <advance width="1417"/>
  <unicode hex="00AA"/>
  <guideline x="0" y="1681.0" angle="0" identifier="3CJlALCfkl"/>
  <guideline x="0" y="909.0" angle="0" identifier="Zdl6NZVQAy"/>
  <outline>
    <contour>
      <point x="751.0" y="861.0" type="line"/>
      <point x="751.0" y="828.0"/>
      <point x="793.0" y="730.0"/>
      <point x="828.0" y="706.0" type="qcurve"/>
      <point x="1396.0" y="706.0" type="line"/>
      <point x="1372.0" y="743.0"/>
      <point x="1350.0" y="814.0"/>
      <point x="1350.0" y="855.0" type="qcurve" smooth="yes"/>
      <point x="1350.0" y="1172.0" type="line" smooth="yes"/>
      <point x="1350.0" y="1329.0"/>
      <point x="1059.0" y="1477.0"/>
      <point x="738.0" y="1477.0" type="qcurve" smooth="yes"/>
      <point x="433.0" y="1477.0"/>
      <point x="84.0" y="1333.0"/>
      <point x="84.0" y="1201.0" type="qcurve" smooth="yes"/>
      <point x="84.0" y="1190.0" type="line"/>
      <point x="603.0" y="1188.0" type="line"/>
      <point x="603.0" y="1203.0" type="line" smooth="yes"/>
      <point x="603.0" y="1223.0"/>
      <point x="643.0" y="1247.0"/>
      <point x="680.0" y="1247.0" type="qcurve" smooth="yes"/>
      <point x="718.0" y="1247.0"/>
      <point x="751.0" y="1220.0"/>
      <point x="751.0" y="1195.0" type="qcurve" smooth="yes"/>
    </contour>
    <contour>
      <point x="778.0" y="1177.0" type="line"/>
      <point x="458.0" y="1177.0" type="line" smooth="yes"/>
      <point x="249.0" y="1177.0"/>
      <point x="0.0" y="1038.0"/>
      <point x="0.0" y="924.0" type="qcurve" smooth="yes"/>
      <point x="0.0" y="811.0"/>
      <point x="191.0" y="695.0"/>
      <point x="367.0" y="695.0" type="qcurve" smooth="yes"/>
      <point x="505.0" y="695.0"/>
      <point x="695.0" y="755.0"/>
      <point x="785.0" y="790.0" type="qcurve"/>
      <point x="751.0" y="975.0" type="line"/>
      <point x="746.0" y="953.0"/>
      <point x="680.0" y="919.0"/>
      <point x="639.0" y="919.0" type="qcurve" smooth="yes"/>
      <point x="600.0" y="919.0"/>
      <point x="557.0" y="940.0"/>
      <point x="557.0" y="962.0" type="qcurve" smooth="yes"/>
      <point x="557.0" y="987.0"/>
      <point x="615.0" y="1014.0"/>
      <point x="674.0" y="1014.0" type="qcurve" smooth="yes"/>
      <point x="778.0" y="1014.0" type="line"/>
    </contour>
  </outline>
</glyph>
<glyph name="guillemotleft" format="2">
  <advance width="1396"/>
  <unicode hex="00AB"/>
  <guideline x="0" y="901.0" angle="0" identifier="ZftBQarVKw"/>
  <guideline x="0" y="555.0" angle="0" identifier="MVJpdoVRVd"/>
  <outline>
    <contour>
      <point x="18.0" y="459.0" type="line"/>
      <point x="18.0" y="523.0" type="line"/>
      <point x="319.0" y="921.0" type="line"/>
      <point x="751.0" y="921.0" type="line"/>
      <point x="462.0" y="489.0" type="line"/>
      <point x="751.0" y="58.0" type="line"/>
      <point x="319.0" y="58.0" type="line"/>
    </contour>
    <contour>
      <point x="684.0" y="459.0" type="line"/>
      <point x="684.0" y="523.0" type="line"/>
      <point x="986.0" y="921.0" type="line"/>
      <point x="1386.0" y="921.0" type="line"/>
      <point x="1097.0" y="489.0" type="line"/>
      <point x="1386.0" y="58.0" type="line"/>
      <point x="986.0" y="58.0" type="line"/>
    </contour>
  </outline>
</glyph>
<glyph name="logicalnot" format="2">
  <advance width="1570"/>
  <unicode hex="00AC"/>
  <outline>
    <contour>
      <point x="1525.0" y="893.5" type="line"/>
      <point x="1525.0" y="276.0" type="line"/>
      <point x="955.0" y="276.0" type="line"/>
      <point x="955.0" y="542.0" type="line"/>
      <point x="40.0" y="542.0" type="line"/>
      <point x="40.0" y="893.5" type="line"/>
    </contour>
  </outline>
</glyph>
<glyph name="registered" format="2">
  <advance width="2418"/>
  <unicode hex="00AE"/>
  <outline>
    <contour>
      <point x="38.0" y="687.0" type="qcurve" smooth="yes"/>
      <point x="38.0" y="1088.0"/>
      <point x="634.0" y="1519.0"/>
      <point x="1189.0" y="1519.0" type="qcurve" smooth="yes"/>
      <point x="1763.0" y="1519.0"/>
      <point x="2380.0" y="1088.0"/>
      <point x="2380.0" y="687.0" type="qcurve" smooth="yes"/>
      <point x="2380.0" y="285.0"/>
      <point x="1763.0" y="-147.0"/>
      <point x="1189.0" y="-147.0" type="qcurve" smooth="yes"/>
      <point x="634.0" y="-147.0"/>
      <point x="38.0" y="285.0"/>
    </contour>
    <contour>
      <point x="246.0" y="687.0" type="qcurve" smooth="yes"/>
      <point x="246.0" y="377.0"/>
      <point x="735.0" y="44.0"/>
      <point x="1190.0" y="44.0" type="qcurve" smooth="yes"/>
      <point x="1664.0" y="44.0"/>
      <point x="2173.0" y="377.0"/>
      <point x="2173.0" y="687.0" type="qcurve" smooth="yes"/>
      <point x="2173.0" y="995.0"/>
      <point x="1664.0" y="1327.0"/>
      <point x="1190.0" y="1327.0" type="qcurve" smooth="yes"/>
      <point x="735.0" y="1327.0"/>
      <point x="246.0" y="995.0"/>
    </contour>
    <contour>
      <point x="1163.0" y="521.0" type="line"/>
      <point x="1122.0" y="521.0" type="line"/>
      <point x="1122.0" y="225.0" type="line"/>
      <point x="499.0" y="225.0" type="line"/>
      <point x="499.0" y="1158.0" type="line"/>
      <point x="1272.0" y="1158.0" type="line" smooth="yes"/>
      <point x="1639.0" y="1158.0"/>
      <point x="1968.0" y="1007.0"/>
      <point x="1968.0" y="839.0" type="qcurve" smooth="yes"/>
      <point x="1968.0" y="703.0"/>
      <point x="1840.0" y="564.0"/>
      <point x="1697.0" y="545.0" type="qcurve"/>
      <point x="1756.0" y="516.0"/>
      <point x="1822.0" y="474.0"/>
      <point x="1851.0" y="445.0" type="qcurve" smooth="yes"/>
      <point x="2022.0" y="281.0" type="line"/>
      <point x="2022.0" y="225.0" type="line"/>
      <point x="1451.0" y="225.0" type="line"/>
    </contour>
    <contour>
      <point x="1239.0" y="885.0" type="qcurve" smooth="yes"/>
      <point x="1117.0" y="885.0" type="line"/>
      <point x="1117.0" y="783.0" type="line"/>
      <point x="1250.0" y="783.0" type="line" smooth="yes"/>
      <point x="1292.0" y="783.0"/>
      <point x="1329.0" y="805.0"/>
      <point x="1329.0" y="829.0" type="qcurve" smooth="yes"/>
      <point x="1329.0" y="859.0"/>
      <point x="1286.0" y="885.0"/>
    </contour>
  </outline>
</glyph>
<glyph name="degree" format="2">
  <advance width="1164"/>
  <unicode hex="00B0"/>
  <outline>
    <contour>
      <point x="40.0" y="1126.0" type="qcurve"/>
      <point x="40.0" y="1295.0"/>
      <point x="322.0" y="1477.0"/>
      <point x="584.0" y="1477.0" type="qcurve" smooth="yes"/>
      <point x="844.0" y="1477.0"/>
      <point x="1124.0" y="1295.0"/>
      <point x="1124.0" y="1126.0" type="qcurve" smooth="yes"/>
      <point x="1124.0" y="959.0"/>
      <point x="844.0" y="779.0"/>
      <point x="584.0" y="779.0" type="qcurve" smooth="yes"/>
      <point x="322.0" y="779.0"/>
      <point x="40.0" y="959.0"/>
    </contour>
    <contour>
      <point x="399.0" y="1127.0" type="qcurve"/>
      <point x="399.0" y="1087.0"/>
      <point x="494.0" y="1045.0"/>
      <point x="583.0" y="1045.0" type="qcurve" smooth="yes"/>
      <point x="671.0" y="1045.0"/>
      <point x="765.0" y="1087.0"/>
      <point x="765.0" y="1127.0" type="qcurve" smooth="yes"/>
      <point x="765.0" y="1167.0"/>
      <point x="671.0" y="1211.0"/>
      <point x="583.0" y="1211.0" type="qcurve" smooth="yes"/>
      <point x="494.0" y="1211.0"/>
      <point x="399.0" y="1167.0"/>
    </contour>
  </outline>
</glyph>
<glyph name="plusminus" format="2">
  <advance width="1135"/>
  <unicode hex="00B1"/>
  <outline>
    <contour>
      <point x="56.0" y="701.0" type="line"/>
      <point x="56.0" y="1199.0" type="line"/>
      <point x="1079.0" y="1199.0" type="line"/>
      <point x="1079.0" y="701.0" type="line"/>
    </contour>
    <contour>
      <point x="317.0" y="444.0" type="line"/>
      <point x="317.0" y="1456.0" type="line"/>
      <point x="819.0" y="1456.0" type="line"/>
      <point x="819.0" y="444.0" type="line"/>
    </contour>
    <contour>
      <point x="56.0" y="-1.0" type="line"/>
      <point x="56.0" y="497.0" type="line"/>
      <point x="1079.0" y="497.0" type="line"/>
      <point x="1079.0" y="-1.0" type="line"/>
    </contour>
  </outline>
</glyph>
<glyph name="twosuperior" format="2">
  <advance width="1083"/>
  <unicode hex="00B2"/>
  <outline>
    <contour>
      <point x="22.0" y="683.0" type="line"/>
      <point x="22.0" y="905.0" type="line"/>
      <point x="446.0" y="1138.0" type="line" smooth="yes"/>
      <point x="507.0" y="1171.0"/>
      <point x="539.0" y="1205.0"/>
      <point x="539.0" y="1220.0" type="qcurve" smooth="yes"/>
      <point x="539.0" y="1231.0"/>
      <point x="522.0" y="1244.0"/>
      <point x="502.0" y="1244.0" type="qcurve" smooth="yes"/>
      <point x="472.0" y="1244.0"/>
      <point x="442.0" y="1208.0"/>
      <point x="442.0" y="1152.0" type="qcurve"/>
      <point x="11.0" y="1152.0" type="line"/>
      <point x="7.0" y="1329.0"/>
      <point x="261.0" y="1487.0"/>
      <point x="547.0" y="1487.0" type="qcurve" smooth="yes"/>
      <point x="816.0" y="1487.0"/>
      <point x="1058.0" y="1378.0"/>
      <point x="1058.0" y="1257.0" type="qcurve" smooth="yes"/>
      <point x="1058.0" y="1181.0"/>
      <point x="952.0" y="1055.0"/>
      <point x="833.0" y="990.0" type="qcurve" smooth="yes"/>
      <point x="753.0" y="945.0" type="line"/>
      <point x="1073.0" y="945.0" type="line"/>
      <point x="1073.0" y="683.0" type="line"/>
    </contour>
  </outline>
</glyph>
<glyph name="threesuperior" format="2">
  <advance width="1107"/>
  <unicode hex="00B3"/>
  <outline>
    <contour>
      <point x="23.0" y="954.0" type="qcurve"/>
      <point x="500.0" y="954.0" type="line"/>
      <point x="500.0" y="922.0"/>
      <point x="526.0" y="893.0"/>
      <point x="554.0" y="893.0" type="qcurve" smooth="yes"/>
      <point x="579.0" y="893.0"/>
      <point x="602.0" y="915.0"/>
      <point x="602.0" y="939.0" type="qcurve" smooth="yes"/>
      <point x="602.0" y="967.0"/>
      <point x="539.0" y="992.0"/>
      <point x="469.0" y="992.0" type="qcurve" smooth="yes"/>
      <point x="329.0" y="992.0" type="line"/>
      <point x="329.0" y="1160.0" type="line"/>
      <point x="439.0" y="1160.0" type="line" smooth="yes"/>
      <point x="508.0" y="1160.0"/>
      <point x="570.0" y="1188.0"/>
      <point x="570.0" y="1220.0" type="qcurve" smooth="yes"/>
      <point x="570.0" y="1236.0"/>
      <point x="552.0" y="1251.0"/>
      <point x="531.0" y="1251.0" type="qcurve" smooth="yes"/>
      <point x="509.0" y="1251.0"/>
      <point x="490.0" y="1226.0"/>
      <point x="490.0" y="1199.0" type="qcurve"/>
      <point x="56.0" y="1199.0" type="line"/>
      <point x="56.0" y="1351.0"/>
      <point x="301.0" y="1487.0"/>
      <point x="574.0" y="1487.0" type="qcurve" smooth="yes"/>
      <point x="833.0" y="1487.0"/>
      <point x="1066.0" y="1383.0"/>
      <point x="1066.0" y="1266.0" type="qcurve" smooth="yes"/>
      <point x="1066.0" y="1199.0"/>
      <point x="964.0" y="1114.0"/>
      <point x="851.0" y="1085.0" type="qcurve"/>
      <point x="981.0" y="1063.0"/>
      <point x="1097.0" y="979.0"/>
      <point x="1097.0" y="908.0" type="qcurve" smooth="yes"/>
      <point x="1097.0" y="777.0"/>
      <point x="858.0" y="659.0"/>
      <point x="592.0" y="659.0" type="qcurve" smooth="yes"/>
      <point x="294.0" y="659.0"/>
      <point x="23.0" y="797.6"/>
    </contour>
  </outline>
</glyph>
<glyph name="acute" format="2">
  <advance width="1024"/>
  <unicode hex="00B4"/>
  <outline>
    <contour>
      <point x="205.0" y="1133.0" type="line"/>
      <point x="417.0" y="1503.0" type="line"/>
      <point x="947.0" y="1373.0" type="line"/>
      <point x="689.0" y="1003.0" type="line"/>
    </contour>
  </outline>
</glyph>
<glyph name="micro" format="2">
  <advance width="1696"/>
  <unicode hex="00B5"/>
  <outline>
    <contour>
      <point x="185.0" y="914.0" type="line"/>
      <point x="766.0" y="914.0" type="line"/>
      <point x="684.0" y="486.0" type="line" smooth="yes"/>
      <point x="671.0" y="420.0"/>
      <point x="737.0" y="350.0"/>
      <point x="811.0" y="350.0" type="qcurve" smooth="yes"/>
      <point x="873.0" y="350.0"/>
      <point x="970.0" y="391.0"/>
      <point x="999.0" y="429.0" type="qcurve"/>
      <point x="1092.0" y="914.0" type="line"/>
      <point x="1672.0" y="914.0" type="line"/>
      <point x="1487.0" y="-39.0" type="line"/>
      <point x="923.0" y="-39.0" type="line"/>
      <point x="939.0" y="83.0" type="line"/>
      <point x="934.0" y="83.0" type="line"/>
      <point x="890.0" y="16.0"/>
      <point x="785.0" y="-45.0"/>
      <point x="711.0" y="-45.0" type="qcurve" smooth="yes"/>
      <point x="668.0" y="-45.0"/>
      <point x="606.0" y="-19.0"/>
      <point x="580.0" y="10.0" type="qcurve"/>
      <point x="498.0" y="-416.0" type="line"/>
      <point x="-72.0" y="-416.0" type="line"/>
    </contour>
  </outline>
</glyph>
<glyph name="periodcentered" format="2">
  <advance width="720"/>
  <unicode hex="00B7"/>
  <outline>
    <contour>
      <point x="50.0" y="740.0" type="qcurve" smooth="yes"/>
      <point x="50.0" y="857.0"/>
      <point x="210.0" y="1016.0"/>
      <point x="360.0" y="1016.0" type="qcurve" smooth="yes"/>
      <point x="510.0" y="1016.0"/>
      <point x="670.0" y="857.0"/>
      <point x="670.0" y="739.0" type="qcurve" smooth="yes"/>
      <point x="670.0" y="621.0"/>
      <point x="510.0" y="462.0"/>
      <point x="360.0" y="462.0" type="qcurve" smooth="yes"/>
      <point x="210.0" y="462.0"/>
      <point x="50.0" y="624.0"/>
    </contour>
  </outline>
</glyph>
<glyph name="cedilla" format="2">
	<unicode hex="00B8"/>
	<advance width="1024"/>
	<outline>
		<contour>
			<point x="382" y="42" type="line"/>
			<point x="622" y="42" type="line"/>
			<point x="587" y="-61" type="line"/>
			<point x="680" y="-73"/>
			<point x="806" y="-156"/>
			<point x="806" y="-250" type="qcurve" smooth="yes"/>
			<point x="806" y="-353"/>
			<point x="611" y="-475"/>
			<point x="279" y="-475" type="qcurve"/>
			<point x="267" y="-316" type="line"/>
			<point x="358" y="-316"/>
			<point x="435" y="-287"/>
			<point x="435" y="-254" type="qcurve" smooth="yes"/>
			<point x="435" y="-225"/>
			<point x="381" y="-203"/>
			<point x="312" y="-197" type="qcurve"/>
		</contour>
	</outline>
</glyph>
<glyph name="onesuperior" format="2">
  <advance width="871"/>
  <unicode hex="00B9"/>
  <outline>
    <contour>
      <point x="53.0" y="1043.0" type="line"/>
      <point x="53.0" y="1390.0" type="line"/>
      <point x="502.0" y="1486.0" type="line"/>
      <point x="790.0" y="1486.0" type="line"/>
      <point x="790.0" y="697.0" type="line"/>
      <point x="303.0" y="697.0" type="line"/>
      <point x="303.0" y="1088.0" type="line"/>
    </contour>
  </outline>
</glyph>
<glyph name="guillemotright" format="2">
	<unicode hex="00BB"/>
	<advance width="1396"/>
	<outline>
		<contour>
			<point x="645" y="58" type="line"/>
			<point x="934" y="490" type="line"/>
			<point x="645" y="921" type="line"/>
			<point x="1077" y="921" type="line"/>
			<point x="1378" y="520" type="line"/>
			<point x="1378" y="456" type="line"/>
			<point x="1077" y="58" type="line"/>
		</contour>
		<contour>
			<point x="10" y="58" type="line"/>
			<point x="299" y="490" type="line"/>
			<point x="10" y="921" type="line"/>
			<point x="410" y="921" type="line"/>
			<point x="712" y="520" type="line"/>
			<point x="712" y="456" type="line"/>
			<point x="410" y="58" type="line"/>
		</contour>
	</outline>
	<guideline x="0" y="98" angle="0" identifier="MTEldNnfdj"/>
	<guideline x="0" y="443" angle="0" identifier="G9bQni2n1K"/>
</glyph>
<glyph name="questiondown" format="2">
  <advance width="1571"/>
  <unicode hex="00BF"/>
  <guideline x="0" y="-181.0" angle="0" identifier="apukwP5ffL"/>
  <guideline x="0" y="921.0" angle="0" identifier="5ZPZZL8Rim"/>
  <outline>
    <contour>
      <point x="1120.0" y="897.0" type="qcurve" smooth="yes"/>
      <point x="1120.0" y="787.0"/>
      <point x="956.0" y="631.0"/>
      <point x="803.0" y="631.0" type="qcurve" smooth="yes"/>
      <point x="648.0" y="631.0"/>
      <point x="484.0" y="787.0"/>
      <point x="484.0" y="897.0" type="qcurve" smooth="yes"/>
      <point x="484.0" y="1008.0"/>
      <point x="648.0" y="1164.0"/>
      <point x="802.0" y="1164.0" type="qcurve" smooth="yes"/>
      <point x="953.0" y="1164.0"/>
      <point x="1120.0" y="1007.0"/>
    </contour>
    <contour>
      <point x="1546.0" y="196.0" type="line"/>
      <point x="1546.0" y="74.0" type="line" smooth="yes"/>
      <point x="1546.0" y="-97.0"/>
      <point x="1142.0" y="-328.0"/>
      <point x="783.0" y="-328.0" type="qcurve" smooth="yes"/>
      <point x="413.0" y="-328.0"/>
      <point x="4.0" y="-164.0"/>
      <point x="4.0" y="14.0" type="qcurve" smooth="yes"/>
      <point x="4.0" y="164.0"/>
      <point x="162.0" y="302.0"/>
      <point x="272.0" y="359.0" type="qcurve" smooth="yes"/>
      <point x="385.0" y="420.0"/>
      <point x="528.0" y="499.0"/>
      <point x="528.0" y="571.0" type="qcurve" smooth="yes"/>
      <point x="528.0" y="580.0" type="line"/>
      <point x="1080.0" y="580.0" type="line"/>
      <point x="1080.0" y="548.0" type="line" smooth="yes"/>
      <point x="1082.0" y="457.0"/>
      <point x="938.0" y="304.0"/>
      <point x="782.0" y="218.0" type="qcurve" smooth="yes"/>
      <point x="677.0" y="160.0"/>
      <point x="613.0" y="127.0"/>
      <point x="613.0" y="110.0" type="qcurve" smooth="yes"/>
      <point x="613.0" y="84.0"/>
      <point x="719.0" y="73.0"/>
      <point x="814.0" y="73.0" type="qcurve" smooth="yes"/>
      <point x="927.0" y="73.0"/>
      <point x="1063.0" y="107.0"/>
      <point x="1063.0" y="164.0" type="qcurve" smooth="yes"/>
      <point x="1063.0" y="196.0" type="line"/>
    </contour>
  </outline>
</glyph>
<glyph name="AE" format="2">
  <advance width="3061"/>
  <unicode hex="00C6"/>
  <outline>
    <contour>
      <point x="557.0" y="158.0" type="line"/>
      <point x="657.0" y="528.0" type="line"/>
      <point x="1490.0" y="528.0" type="line"/>
      <point x="1490.0" y="158.0" type="line"/>
    </contour>
    <contour>
      <point x="-60.0" y="0.0" type="line"/>
      <point x="1321.0" y="1456.0" type="line"/>
      <point x="2891.0" y="1456.0" type="line"/>
      <point x="2891.0" y="1006.0" type="line"/>
      <point x="1942.0" y="1006.0" type="line"/>
      <point x="1942.0" y="912.0" type="line"/>
      <point x="2813.0" y="912.0" type="line"/>
      <point x="2813.0" y="534.0" type="line"/>
      <point x="1942.0" y="534.0" type="line"/>
      <point x="1942.0" y="430.0" type="line"/>
      <point x="2911.0" y="430.0" type="line"/>
      <point x="2911.0" y="0.0" type="line"/>
      <point x="1385.0" y="0.0" type="line"/>
      <point x="1385.0" y="878.0" type="line"/>
      <point x="601.0" y="0.0" type="line"/>
    </contour>
  </outline>
</glyph>
<glyph name="multiply" format="2">
  <advance width="1335"/>
  <unicode hex="00D7"/>
  <outline>
    <contour>
      <point x="407.0" y="101.0" type="line"/>
      <point x="64.0" y="443.0" type="line"/>
      <point x="929.0" y="1308.0" type="line"/>
      <point x="1271.0" y="965.0" type="line"/>
    </contour>
    <contour>
      <point x="929.0" y="101.0" type="line"/>
      <point x="64.0" y="966.0" type="line"/>
      <point x="407.0" y="1308.0" type="line"/>
      <point x="1271.0" y="444.0" type="line"/>
    </contour>
  </outline>
</glyph>
<glyph name="Thorn" format="2">
  <advance width="1927"/>
  <unicode hex="00DE"/>
  <guideline x="0" y="901.0" angle="0" identifier="i9jYwjBDP4"/>
  <guideline x="0" y="555.0" angle="0" identifier="T8KKW8oxop"/>
  <outline>
    <contour>
      <point x="140.0" y="1456.0" type="line"/>
      <point x="740.0" y="1456.0" type="line"/>
      <point x="740.0" y="1322.0" type="line"/>
      <point x="1306.0" y="1322.0" type="line" smooth="yes"/>
      <point x="1599.0" y="1322.0"/>
      <point x="1896.0" y="1012.0"/>
      <point x="1896.0" y="730.0" type="qcurve" smooth="yes"/>
      <point x="1896.0" y="464.0"/>
      <point x="1609.0" y="146.0"/>
      <point x="1293.0" y="145.0" type="qcurve" smooth="yes"/>
      <point x="740.0" y="145.0" type="line"/>
      <point x="740.0" y="0.0" type="line"/>
      <point x="140.0" y="0.0" type="line"/>
    </contour>
    <contour>
      <point x="1123.0" y="903.0" type="qcurve" smooth="yes"/>
      <point x="740.0" y="903.0" type="line"/>
      <point x="740.0" y="528.0" type="line"/>
      <point x="1123.0" y="528.0" type="line" smooth="yes"/>
      <point x="1219.0" y="528.0"/>
      <point x="1298.0" y="625.0"/>
      <point x="1298.0" y="716.0" type="qcurve" smooth="yes"/>
      <point x="1298.0" y="815.0"/>
      <point x="1219.0" y="903.0"/>
    </contour>
  </outline>
</glyph>
<glyph name="germandbls" format="2">
  <advance width="2215"/>
  <unicode hex="00DF"/>
  <outline>
    <contour>
      <point x="605.0" y="1044.0" type="qcurve" name="hr00"/>
      <point x="605.0" y="0.0" type="line"/>
      <point x="18.0" y="0.0" type="line"/>
      <point x="18.0" y="1044.0" type="line" smooth="yes"/>
      <point x="18.0" y="1280.0"/>
      <point x="531.0" y="1534.0"/>
      <point x="1008.0" y="1534.0" type="qcurve" smooth="yes"/>
      <point x="1445.0" y="1534.0"/>
      <point x="1914.0" y="1361.0"/>
      <point x="1914.0" y="1201.0" type="qcurve" smooth="yes"/>
      <point x="1914.0" y="1142.0"/>
      <point x="1845.0" y="1018.0"/>
      <point x="1794.0" y="958.0" type="qcurve" smooth="yes"/>
      <point x="1763.0" y="922.0"/>
      <point x="1736.0" y="871.0"/>
      <point x="1736.0" y="848.0" type="qcurve" smooth="yes"/>
      <point x="1736.0" y="814.0"/>
      <point x="1833.0" y="728.0"/>
      <point x="1950.0" y="648.0" type="qcurve" smooth="yes"/>
      <point x="2093.0" y="551.0"/>
      <point x="2199.0" y="397.0"/>
      <point x="2199.0" y="290.0" type="qcurve" smooth="yes"/>
      <point x="2199.0" y="137.0"/>
      <point x="1819.0" y="-27.0"/>
      <point x="1466.0" y="-27.0" type="qcurve" smooth="yes"/>
      <point x="1114.0" y="-27.0"/>
      <point x="723.0" y="146.0"/>
      <point x="711.0" y="307.0" type="qcurve" smooth="yes"/>
      <point x="710.0" y="322.0" type="line"/>
      <point x="1246.0" y="314.0" type="line"/>
      <point x="1246.0" y="287.0" type="line" smooth="yes"/>
      <point x="1246.0" y="257.0"/>
      <point x="1351.0" y="243.0"/>
      <point x="1449.0" y="243.0" type="qcurve" smooth="yes"/>
      <point x="1541.0" y="243.0"/>
      <point x="1640.0" y="258.0"/>
      <point x="1640.0" y="269.0" type="qcurve" smooth="yes"/>
      <point x="1640.0" y="292.0"/>
      <point x="1586.0" y="344.0"/>
      <point x="1470.0" y="412.0" type="qcurve" smooth="yes"/>
      <point x="1327.0" y="496.0"/>
      <point x="1185.0" y="651.0"/>
      <point x="1185.0" y="733.0" type="qcurve" smooth="yes"/>
      <point x="1185.0" y="792.0"/>
      <point x="1259.0" y="921.0"/>
      <point x="1324.0" y="1001.0" type="qcurve" smooth="yes"/>
      <point x="1350.0" y="1033.0"/>
      <point x="1382.0" y="1100.0"/>
      <point x="1382.0" y="1130.0" type="qcurve" smooth="yes"/>
      <point x="1382.0" y="1184.0"/>
      <point x="1186.0" y="1242.0"/>
      <point x="1004.0" y="1242.0" type="qcurve" smooth="yes"/>
      <point x="812.0" y="1242.0"/>
      <point x="605.0" y="1139.0"/>
    </contour>
  </outline>
</glyph>
<glyph name="ae" format="2">
  <advance width="2483"/>
  <unicode hex="00E6"/>
  <outline>
    <contour>
      <point x="571.0" y="335.0" type="qcurve" smooth="yes"/>
      <point x="571.0" y="299.0"/>
      <point x="628.0" y="259.0"/>
      <point x="694.0" y="259.0" type="qcurve" smooth="yes"/>
      <point x="777.0" y="259.0"/>
      <point x="916.0" y="308.0"/>
      <point x="916.0" y="371.0" type="qcurve"/>
      <point x="916.0" y="372.0" type="line"/>
      <point x="665.0" y="375.0" type="line" smooth="yes"/>
      <point x="611.0" y="376.0"/>
      <point x="571.0" y="359.0"/>
    </contour>
    <contour>
      <point x="0.0" y="286.0" type="qcurve" smooth="yes"/>
      <point x="0.0" y="425.0"/>
      <point x="222.0" y="561.0"/>
      <point x="454.0" y="558.0" type="qcurve" smooth="yes"/>
      <point x="916.0" y="553.0" type="line"/>
      <point x="916.0" y="605.0" type="line" smooth="yes"/>
      <point x="916.0" y="631.0"/>
      <point x="855.0" y="662.0"/>
      <point x="765.0" y="662.0" type="qcurve" smooth="yes"/>
      <point x="693.0" y="662.0"/>
      <point x="629.0" y="632.0"/>
      <point x="629.0" y="601.0" type="qcurve" smooth="yes"/>
      <point x="629.0" y="581.0" type="line"/>
      <point x="114.0" y="584.0" type="line"/>
      <point x="114.0" y="599.0" type="line" smooth="yes"/>
      <point x="114.0" y="760.0"/>
      <point x="482.0" y="952.0"/>
      <point x="819.0" y="952.0" type="qcurve" smooth="yes"/>
      <point x="965.0" y="952.0"/>
      <point x="1187.0" y="923.0"/>
      <point x="1264.0" y="883.0" type="qcurve"/>
      <point x="1357.0" y="926.0"/>
      <point x="1587.0" y="960.0"/>
      <point x="1720.0" y="960.0" type="qcurve" smooth="yes"/>
      <point x="2082.0" y="960.0"/>
      <point x="2476.0" y="696.0"/>
      <point x="2476.0" y="487.0" type="qcurve" smooth="yes"/>
      <point x="2476.0" y="423.0" type="line"/>
      <point x="1218.0" y="423.0" type="line"/>
      <point x="1218.0" y="508.0" type="line"/>
      <point x="1923.0" y="508.0" type="line"/>
      <point x="1923.0" y="516.0" type="line"/>
      <point x="1923.0" y="547.0"/>
      <point x="1829.0" y="581.0"/>
      <point x="1715.0" y="581.0" type="qcurve" smooth="yes"/>
      <point x="1602.0" y="581.0"/>
      <point x="1485.0" y="544.0"/>
      <point x="1485.0" y="486.0" type="qcurve" smooth="yes"/>
      <point x="1485.0" y="452.0" type="line" smooth="yes"/>
      <point x="1485.0" y="386.0"/>
      <point x="1604.0" y="340.0"/>
      <point x="1695.0" y="340.0" type="qcurve" smooth="yes"/>
      <point x="1832.0" y="340.0"/>
      <point x="1954.0" y="382.0"/>
      <point x="1973.0" y="405.0" type="qcurve"/>
      <point x="2469.0" y="334.0" type="line"/>
      <point x="2399.0" y="147.0"/>
      <point x="2053.0" y="-37.0"/>
      <point x="1699.0" y="-37.0" type="qcurve" smooth="yes"/>
      <point x="1505.0" y="-37.0"/>
      <point x="1198.0" y="38.0"/>
      <point x="1095.0" y="109.0" type="qcurve"/>
      <point x="974.0" y="54.0"/>
      <point x="641.0" y="-13.0"/>
      <point x="429.0" y="-13.0" type="qcurve" smooth="yes"/>
      <point x="217.0" y="-13.0"/>
      <point x="0.0" y="147.0"/>
    </contour>
  </outline>
</glyph>
<glyph name="eth" format="2">
  <advance width="1665"/>
  <unicode hex="00F0"/>
  <outline>
    <contour>
      <point x="212.0" y="1248.0" type="qcurve"/>
      <point x="363.0" y="1581.0" type="line"/>
      <point x="971.0" y="1472.0"/>
      <point x="1625.0" y="981.0"/>
      <point x="1625.0" y="633.0" type="qcurve"/>
      <point x="1625.0" y="535.0" type="line"/>
      <point x="1625.0" y="268.0"/>
      <point x="1207.0" y="-20.0"/>
      <point x="818.0" y="-20.0" type="qcurve" smooth="yes"/>
      <point x="443.0" y="-20.0"/>
      <point x="40.0" y="233.0"/>
      <point x="40.0" y="468.0" type="qcurve" smooth="yes"/>
      <point x="40.0" y="675.0"/>
      <point x="445.0" y="898.0"/>
      <point x="781.0" y="898.0" type="qcurve" smooth="yes"/>
      <point x="982.0" y="898.0"/>
      <point x="1255.0" y="688.0"/>
      <point x="1255.0" y="492.0" type="qcurve"/>
      <point x="1038.0" y="492.0" type="line"/>
      <point x="1038.0" y="522.0"/>
      <point x="937.0" y="555.0"/>
      <point x="844.0" y="555.0" type="qcurve" smooth="yes"/>
      <point x="736.0" y="555.0"/>
      <point x="619.0" y="500.0"/>
      <point x="619.0" y="449.0" type="qcurve" smooth="yes"/>
      <point x="619.0" y="401.0"/>
      <point x="729.0" y="350.0"/>
      <point x="832.0" y="350.0" type="qcurve" smooth="yes"/>
      <point x="930.0" y="350.0"/>
      <point x="1036.0" y="412.0"/>
      <point x="1036.0" y="469.0" type="qcurve" smooth="yes"/>
      <point x="1036.0" y="635.0" type="line" smooth="yes"/>
      <point x="1036.0" y="848.0"/>
      <point x="609.0" y="1166.0"/>
    </contour>
    <contour>
      <point x="1511.0" y="1427.0" type="line"/>
      <point x="389.0" y="925.0" type="line"/>
      <point x="286.0" y="1045.0" type="line"/>
      <point x="1409.0" y="1546.0" type="line"/>
    </contour>
  </outline>
</glyph>
<glyph name="thorn" format="2">
  <advance width="1684"/>
  <unicode hex="00FE"/>
  <outline>
    <contour>
      <point x="88.0" y="-388.0" type="line"/>
      <point x="88.0" y="1536.0" type="line"/>
      <point x="661.0" y="1536.0" type="line"/>
      <point x="661.0" y="821.0" type="line"/>
      <point x="706.0" y="866.0"/>
      <point x="905.0" y="955.0"/>
      <point x="1074.0" y="955.0" type="qcurve" smooth="yes"/>
      <point x="1333.0" y="955.0"/>
      <point x="1644.0" y="710.0"/>
      <point x="1644.0" y="468.0" type="qcurve" smooth="yes"/>
      <point x="1644.0" y="456.0" type="line" smooth="yes"/>
      <point x="1644.0" y="223.0"/>
      <point x="1313.0" y="-30.0"/>
      <point x="1068.0" y="-30.0" type="qcurve" smooth="yes"/>
      <point x="907.0" y="-30.0"/>
      <point x="708.0" y="37.0"/>
      <point x="667.0" y="60.0" type="qcurve"/>
      <point x="665.0" y="60.0" type="line"/>
      <point x="665.0" y="-388.0" type="line"/>
    </contour>
    <contour>
      <point x="666.0" y="380.0" type="line"/>
      <point x="682.0" y="365.0"/>
      <point x="796.0" y="329.0"/>
      <point x="880.0" y="329.0" type="qcurve" smooth="yes"/>
      <point x="974.0" y="329.0"/>
      <point x="1076.0" y="393.0"/>
      <point x="1076.0" y="458.0" type="qcurve" smooth="yes"/>
      <point x="1076.0" y="468.0" type="line" smooth="yes"/>
      <point x="1076.0" y="527.0"/>
      <point x="974.0" y="575.0"/>
      <point x="883.0" y="575.0" type="qcurve" smooth="yes"/>
      <point x="802.0" y="575.0"/>
      <point x="682.0" y="538.0"/>
      <point x="666.0" y="524.0" type="qcurve"/>
    </contour>
  </outline>
</glyph>
<glyph name="kgreenlandic" format="2">
  <advance width="1716"/>
  <unicode hex="0138"/>
  <outline>
    <contour>
      <point x="668.0" y="914.0" type="line"/>
      <point x="668.0" y="0.0" type="line"/>
      <point x="88.0" y="0.0" type="line"/>
      <point x="88.0" y="914.0" type="line"/>
    </contour>
    <contour>
      <point x="1756.0" y="914.0" type="line"/>
      <point x="969.0" y="301.0" type="line"/>
      <point x="258.0" y="301.0" type="line"/>
      <point x="506.0" y="678.0" type="line"/>
      <point x="725.0" y="678.0" type="line"/>
      <point x="1088.0" y="914.0" type="line"/>
    </contour>
    <contour>
      <point x="1127.0" y="0.0" type="line"/>
      <point x="608.0" y="414.0" type="line"/>
      <point x="1152.0" y="527.0" type="line"/>
      <point x="1811.0" y="0.0" type="line"/>
    </contour>
  </outline>
</glyph>
<glyph name="OE" format="2">
  <advance width="3012"/>
  <unicode hex="0152"/>
  <outline>
    <contour>
      <point x="922.0" y="1477.0" type="qcurve" smooth="yes"/>
      <point x="1075.0" y="1477.0"/>
      <point x="1375.0" y="1465.0"/>
      <point x="1454.0" y="1456.0" type="qcurve"/>
      <point x="2882.0" y="1456.0" type="line"/>
      <point x="2882.0" y="1006.0" type="line"/>
      <point x="1933.0" y="1006.0" type="line"/>
      <point x="1933.0" y="912.0" type="line"/>
      <point x="2804.0" y="912.0" type="line"/>
      <point x="2804.0" y="534.0" type="line"/>
      <point x="1933.0" y="534.0" type="line"/>
      <point x="1933.0" y="430.0" type="line"/>
      <point x="2902.0" y="430.0" type="line"/>
      <point x="2902.0" y="0.0" type="line"/>
      <point x="1454.0" y="0.0" type="line"/>
      <point x="1363.0" y="-9.0"/>
      <point x="1097.0" y="-21.0"/>
      <point x="981.0" y="-21.0" type="qcurve" smooth="yes"/>
      <point x="563.0" y="-21.0"/>
      <point x="24.0" y="375.0"/>
      <point x="24.0" y="682.0" type="qcurve" smooth="yes"/>
      <point x="24.0" y="772.0" type="line" smooth="yes"/>
      <point x="24.0" y="1080.0"/>
      <point x="530.0" y="1477.0"/>
    </contour>
    <contour>
      <point x="652.0" y="678.0" type="line" smooth="yes"/>
      <point x="652.0" y="541.0"/>
      <point x="856.0" y="363.0"/>
      <point x="1014.0" y="363.0" type="qcurve" smooth="yes"/>
      <point x="1151.0" y="363.0"/>
      <point x="1355.0" y="368.0"/>
      <point x="1376.0" y="372.0" type="qcurve"/>
      <point x="1376.0" y="1073.0" type="line"/>
      <point x="1346.0" y="1076.0"/>
      <point x="1142.0" y="1081.0"/>
      <point x="1015.0" y="1081.0" type="qcurve" smooth="yes"/>
      <point x="857.0" y="1081.0"/>
      <point x="652.0" y="907.0"/>
      <point x="652.0" y="772.0" type="qcurve" smooth="yes"/>
    </contour>
  </outline>
</glyph>
<glyph name="oe" format="2">
  <advance width="2608"/>
  <unicode hex="0153"/>
  <outline>
    <contour>
      <point x="623.0" y="466.0" type="qcurve" smooth="yes"/>
      <point x="623.0" y="451.0" type="line" smooth="yes"/>
      <point x="623.0" y="394.0"/>
      <point x="726.0" y="343.0"/>
      <point x="829.0" y="343.0" type="qcurve" smooth="yes"/>
      <point x="933.0" y="343.0"/>
      <point x="1034.0" y="395.0"/>
      <point x="1034.0" y="452.0" type="qcurve" smooth="yes"/>
      <point x="1034.0" y="466.0" type="line" smooth="yes"/>
      <point x="1034.0" y="527.0"/>
      <point x="933.0" y="574.0"/>
      <point x="829.0" y="574.0" type="qcurve" smooth="yes"/>
      <point x="726.0" y="574.0"/>
      <point x="623.0" y="526.0"/>
    </contour>
    <contour>
      <point x="1326.0" y="868.0" type="qcurve"/>
      <point x="1426.0" y="913.0"/>
      <point x="1689.0" y="960.0"/>
      <point x="1845.0" y="960.0" type="qcurve" smooth="yes"/>
      <point x="2207.0" y="960.0"/>
      <point x="2601.0" y="696.0"/>
      <point x="2601.0" y="487.0" type="qcurve" smooth="yes"/>
      <point x="2601.0" y="423.0" type="line"/>
      <point x="1343.0" y="423.0" type="line"/>
      <point x="1343.0" y="508.0" type="line"/>
      <point x="2048.0" y="508.0" type="line"/>
      <point x="2048.0" y="516.0" type="line"/>
      <point x="2048.0" y="547.0"/>
      <point x="1954.0" y="581.0"/>
      <point x="1840.0" y="581.0" type="qcurve" smooth="yes"/>
      <point x="1727.0" y="581.0"/>
      <point x="1610.0" y="544.0"/>
      <point x="1610.0" y="486.0" type="qcurve" smooth="yes"/>
      <point x="1610.0" y="452.0" type="line" smooth="yes"/>
      <point x="1610.0" y="386.0"/>
      <point x="1729.0" y="340.0"/>
      <point x="1820.0" y="340.0" type="qcurve" smooth="yes"/>
      <point x="1957.0" y="340.0"/>
      <point x="2079.0" y="382.0"/>
      <point x="2098.0" y="405.0" type="qcurve"/>
      <point x="2594.0" y="334.0" type="line"/>
      <point x="2524.0" y="147.0"/>
      <point x="2178.0" y="-37.0"/>
      <point x="1824.0" y="-37.0" type="qcurve" smooth="yes"/>
      <point x="1673.0" y="-37.0"/>
      <point x="1417.0" y="9.0"/>
      <point x="1320.0" y="53.0" type="qcurve"/>
      <point x="1225.0" y="9.0"/>
      <point x="978.0" y="-37.0"/>
      <point x="832.0" y="-37.0" type="qcurve" smooth="yes"/>
      <point x="471.0" y="-37.0"/>
      <point x="40.0" y="233.0"/>
      <point x="40.0" y="459.0" type="qcurve" smooth="yes"/>
      <point x="40.0" y="471.0" type="line" smooth="yes"/>
      <point x="40.0" y="689.0"/>
      <point x="472.0" y="962.0"/>
      <point x="832.0" y="962.0" type="qcurve" smooth="yes"/>
      <point x="981.0" y="962.0"/>
      <point x="1231.0" y="913.0"/>
    </contour>
  </outline>
</glyph>
<glyph name="Schwa" format="2">
  <advance width="2154"/>
  <unicode hex="018F"/>
  <outline>
    <contour>
      <point x="5.0" y="1138.0" type="line"/>
      <point x="185.0" y="1293.0"/>
      <point x="677.0" y="1459.0"/>
      <point x="953.0" y="1459.0" type="qcurve" smooth="yes"/>
      <point x="1523.0" y="1459.0"/>
      <point x="2131.0" y="1096.0"/>
      <point x="2131.0" y="758.0" type="qcurve" smooth="yes"/>
      <point x="2131.0" y="378.0"/>
      <point x="1544.0" y="-30.0"/>
      <point x="993.0" y="-30.0" type="qcurve" smooth="yes"/>
      <point x="533.0" y="-30.0"/>
      <point x="43.0" y="273.0"/>
      <point x="43.0" y="555.0" type="qcurve" smooth="yes"/>
      <point x="43.0" y="858.0" type="line"/>
      <point x="1533.0" y="838.0" type="line"/>
      <point x="1533.0" y="560.0" type="line"/>
      <point x="979.0" y="563.0" type="line"/>
      <point x="626.0" y="562.0" type="line"/>
      <point x="626.0" y="531.0" type="line" smooth="yes"/>
      <point x="626.0" y="444.0"/>
      <point x="839.0" y="350.0"/>
      <point x="1037.0" y="350.0" type="qcurve" smooth="yes"/>
      <point x="1262.0" y="350.0"/>
      <point x="1504.0" y="541.0"/>
      <point x="1504.0" y="718.0" type="qcurve" smooth="yes"/>
      <point x="1504.0" y="892.0"/>
      <point x="1262.0" y="1079.0"/>
      <point x="1037.0" y="1079.0" type="qcurve" smooth="yes"/>
      <point x="916.0" y="1079.0"/>
      <point x="666.0" y="991.0"/>
      <point x="554.0" y="909.0" type="qcurve"/>
    </contour>
  </outline>
</glyph>
<glyph name="florin" format="2">
  <advance width="1559"/>
  <unicode hex="0192"/>
  <outline>
    <contour>
      <point x="1255.0" y="914.0" type="line"/>
      <point x="1255.0" y="520.0" type="line"/>
      <point x="942.0" y="520.0" type="line"/>
      <point x="942.0" y="111.0" type="line" smooth="yes"/>
      <point x="942.0" y="-187.0"/>
      <point x="627.0" y="-472.0"/>
      <point x="324.0" y="-472.0" type="qcurve" smooth="yes"/>
      <point x="230.0" y="-472.0"/>
      <point x="12.0" y="-446.0"/>
      <point x="-109.0" y="-420.0" type="qcurve"/>
      <point x="-95.0" y="-41.0" type="line"/>
      <point x="-20.0" y="-49.0"/>
      <point x="101.0" y="-57.0"/>
      <point x="147.0" y="-57.0" type="qcurve" smooth="yes"/>
      <point x="294.0" y="-57.0"/>
      <point x="370.0" y="26.0"/>
      <point x="370.0" y="111.0" type="qcurve" smooth="yes"/>
      <point x="370.0" y="520.0" type="line"/>
      <point x="129.0" y="520.0" type="line"/>
      <point x="129.0" y="914.0" type="line"/>
      <point x="370.0" y="914.0" type="line"/>
      <point x="370.0" y="936.0" type="line" smooth="yes"/>
      <point x="370.0" y="1195.0"/>
      <point x="759.0" y="1479.0"/>
      <point x="1069.0" y="1479.0" type="qcurve" smooth="yes"/>
      <point x="1178.0" y="1479.0"/>
      <point x="1421.0" y="1442.0"/>
      <point x="1550.0" y="1404.0" type="qcurve"/>
      <point x="1469.0" y="999.0" type="line"/>
      <point x="1400.0" y="1028.0"/>
      <point x="1246.0" y="1058.0"/>
      <point x="1177.0" y="1058.0" type="qcurve" smooth="yes"/>
      <point x="1079.0" y="1058.0"/>
      <point x="942.0" y="997.0"/>
      <point x="942.0" y="936.0" type="qcurve" smooth="yes"/>
      <point x="942.0" y="914.0" type="line"/>
    </contour>
  </outline>
</glyph>
<glyph name="schwa" format="2">
  <advance width="1614"/>
  <unicode hex="0259"/>
  <outline>
    <contour>
      <point x="1574.0" y="462.0" type="qcurve" smooth="yes"/>
      <point x="1574.0" y="451.0" type="line" smooth="yes"/>
      <point x="1574.0" y="224.0"/>
      <point x="1137.0" y="-37.0"/>
      <point x="763.0" y="-37.0" type="qcurve" smooth="yes"/>
      <point x="401.0" y="-37.0"/>
      <point x="7.0" y="227.0"/>
      <point x="7.0" y="436.0" type="qcurve" smooth="yes"/>
      <point x="7.0" y="500.0" type="line"/>
      <point x="1265.0" y="500.0" type="line"/>
      <point x="1265.0" y="415.0" type="line"/>
      <point x="560.0" y="415.0" type="line"/>
      <point x="560.0" y="407.0" type="line"/>
      <point x="560.0" y="376.0"/>
      <point x="654.0" y="342.0"/>
      <point x="768.0" y="342.0" type="qcurve" smooth="yes"/>
      <point x="881.0" y="342.0"/>
      <point x="998.0" y="379.0"/>
      <point x="998.0" y="437.0" type="qcurve" smooth="yes"/>
      <point x="998.0" y="471.0" type="line" smooth="yes"/>
      <point x="998.0" y="537.0"/>
      <point x="879.0" y="583.0"/>
      <point x="788.0" y="583.0" type="qcurve" smooth="yes"/>
      <point x="651.0" y="583.0"/>
      <point x="529.0" y="541.0"/>
      <point x="510.0" y="518.0" type="qcurve"/>
      <point x="14.0" y="589.0" type="line"/>
      <point x="84.0" y="776.0"/>
      <point x="430.0" y="960.0"/>
      <point x="784.0" y="960.0" type="qcurve" smooth="yes"/>
      <point x="1148.0" y="960.0"/>
      <point x="1574.0" y="701.0"/>
    </contour>
  </outline>
</glyph>
<glyph name="primemod" format="2">
  <advance width="948"/>
  <unicode hex="02B9"/>
  <outline>
    <contour>
      <point x="152.0" y="1502.0" type="line"/>
      <point x="844.0" y="1502.0" type="line"/>
      <point x="735.0" y="975.0" type="line"/>
      <point x="104.0" y="980.0" type="line"/>
    </contour>
  </outline>
</glyph>
<glyph name="doubleprimemod" format="2">
  <advance width="1848"/>
  <unicode hex="02BA"/>
  <outline>
    <contour>
      <point x="152.0" y="1502.0" type="line"/>
      <point x="844.0" y="1502.0" type="line"/>
      <point x="735.0" y="975.0" type="line"/>
      <point x="104.0" y="980.0" type="line"/>
    </contour>
    <contour>
      <point x="1052.0" y="1502.0" type="line"/>
      <point x="1744.0" y="1502.0" type="line"/>
      <point x="1635.0" y="975.0" type="line"/>
      <point x="1004.0" y="980.0" type="line"/>
    </contour>
  </outline>
</glyph>
<glyph name="apostrophemod" format="2">
  <advance width="948"/>
  <unicode hex="02BC"/>
  <outline>
    <contour>
      <point x="96.0" y="990.0" type="line"/>
      <point x="175.0" y="1038.0"/>
      <point x="265.0" y="1135.0"/>
      <point x="283.0" y="1206.0" type="qcurve"/>
      <point x="213.0" y="1206.0"/>
      <point x="109.0" y="1293.0"/>
      <point x="109.0" y="1370.0" type="qcurve" smooth="yes"/>
      <point x="109.0" y="1455.0"/>
      <point x="276.0" y="1568.0"/>
      <point x="432.0" y="1568.0" type="qcurve" smooth="yes"/>
      <point x="588.0" y="1568.0"/>
      <point x="789.0" y="1432.0"/>
      <point x="789.0" y="1327.0" type="qcurve" smooth="yes"/>
      <point x="789.0" y="1173.0"/>
      <point x="453.0" y="940.0"/>
      <point x="265.0" y="877.0" type="qcurve"/>
    </contour>
  </outline>
</glyph>
<glyph name="caron" format="2">
  <advance width="1024"/>
  <unicode hex="02C7"/>
  <outline>
    <contour>
      <point x="422.0" y="969.0" type="line"/>
      <point x="-13.0" y="1446.0" type="line"/>
      <point x="389.0" y="1446.0" type="line"/>
      <point x="510.0" y="1358.0" type="line"/>
      <point x="632.0" y="1446.0" type="line"/>
      <point x="1029.0" y="1446.0" type="line"/>
      <point x="600.0" y="969.0" type="line"/>
    </contour>
  </outline>
</glyph>
<glyph name="breve" format="2">
  <advance width="1022"/>
  <unicode hex="02D8"/>
  <outline>
    <contour>
      <point x="748.25" y="1435.25" type="qcurve"/>
      <point x="1016.0" y="1357.0" type="line"/>
      <point x="962.25" y="1206.75"/>
      <point x="701.0" y="955.25"/>
      <point x="513.0" y="955.25" type="qcurve" smooth="yes"/>
      <point x="344.0" y="955.25"/>
      <point x="74.75" y="1187.75"/>
      <point x="10.0" y="1359.0" type="qcurve"/>
      <point x="291.75" y="1435.25" type="line"/>
      <point x="327.5" y="1389.75"/>
      <point x="440.25" y="1312.25"/>
      <point x="515.75" y="1312.25" type="qcurve" smooth="yes"/>
      <point x="598.5" y="1312.25"/>
      <point x="711.5" y="1387.75"/>
    </contour>
  </outline>
</glyph>
<glyph name="dotaccent" format="2">
  <advance width="1024"/>
  <unicode hex="02D9"/>
  <outline>
    <contour>
      <point x="279.0" y="1202.75" type="qcurve" smooth="yes"/>
      <point x="279.0" y="1298.0"/>
      <point x="397.25" y="1429.0"/>
      <point x="512.0" y="1429.0" type="qcurve" smooth="yes"/>
      <point x="625.75" y="1429.0"/>
      <point x="745.0" y="1298.0"/>
      <point x="745.0" y="1202.75" type="qcurve" smooth="yes"/>
      <point x="745.0" y="1112.5"/>
      <point x="625.75" y="983.5"/>
      <point x="512.0" y="983.5" type="qcurve" smooth="yes"/>
      <point x="397.25" y="983.5"/>
      <point x="279.0" y="1112.5"/>
    </contour>
  </outline>
</glyph>
<glyph name="ring" format="2">
  <advance width="1024"/>
  <unicode hex="02DA"/>
  <outline>
    <contour>
      <point x="172.0" y="1251.0" type="qcurve"/>
      <point x="172.0" y="1383.0"/>
      <point x="368.0" y="1573.0"/>
      <point x="512.0" y="1573.0" type="qcurve" smooth="yes"/>
      <point x="654.0" y="1573.0"/>
      <point x="852.0" y="1383.0"/>
      <point x="852.0" y="1251.0" type="qcurve" smooth="yes"/>
      <point x="852.0" y="1115.0"/>
      <point x="654.0" y="933.0"/>
      <point x="512.0" y="933.0" type="qcurve" smooth="yes"/>
      <point x="368.0" y="933.0"/>
      <point x="172.0" y="1115.0"/>
    </contour>
    <contour>
      <point x="413.0" y="1252.0" type="qcurve"/>
      <point x="413.0" y="1213.0"/>
      <point x="469.0" y="1155.0"/>
      <point x="512.0" y="1155.0" type="qcurve" smooth="yes"/>
      <point x="555.0" y="1155.0"/>
      <point x="611.0" y="1212.0"/>
      <point x="611.0" y="1252.0" type="qcurve" smooth="yes"/>
      <point x="611.0" y="1290.0"/>
      <point x="555.0" y="1349.0"/>
      <point x="512.0" y="1349.0" type="qcurve" smooth="yes"/>
      <point x="469.0" y="1349.0"/>
      <point x="413.0" y="1290.0"/>
    </contour>
  </outline>
</glyph>
<glyph name="hungarumlaut" format="2">
	<unicode hex="02DD"/>
	<advance width="1024"/>
	<outline>
		<contour>
			<point x="-70" y="1120" type="line"/>
			<point x="216" y="1504" type="line"/>
			<point x="572" y="1294" type="line"/>
			<point x="234" y="952" type="line"/>
		</contour>
		<contour>
			<point x="495" y="1120" type="line"/>
			<point x="783" y="1504" type="line"/>
			<point x="1138" y="1294" type="line"/>
			<point x="801" y="952" type="line"/>
		</contour>
	</outline>
</glyph>
<glyph name="hookabovecomb" format="2">
  <advance width="1024"/>
  <unicode hex="0309"/>
  <outline>
    <contour>
      <point x="287.0" y="957.0" type="line"/>
      <point x="287.0" y="1001.5" type="line" smooth="yes"/>
      <point x="287.0" y="1087.75"/>
      <point x="398.25" y="1167.25"/>
      <point x="479.5" y="1173.25" type="qcurve" smooth="yes"/>
      <point x="541.25" y="1179.75"/>
      <point x="573.25" y="1199.75"/>
      <point x="573.25" y="1221.25" type="qcurve" smooth="yes"/>
      <point x="573.25" y="1241.75"/>
      <point x="523.25" y="1264.5"/>
      <point x="465.25" y="1264.5" type="qcurve" smooth="yes"/>
      <point x="397.0" y="1264.5"/>
      <point x="261.5" y="1232.0"/>
      <point x="246.5" y="1226.0" type="qcurve"/>
      <point x="167.25" y="1404.25" type="line"/>
      <point x="209.25" y="1426.0"/>
      <point x="416.0" y="1473.0"/>
      <point x="533.0" y="1473.0" type="qcurve" smooth="yes"/>
      <point x="703.0" y="1473.0"/>
      <point x="894.0" y="1348.0"/>
      <point x="894.0" y="1243.0" type="qcurve" smooth="yes"/>
      <point x="894.0" y="1133.0"/>
      <point x="746.75" y="1007.25"/>
      <point x="525.0" y="996.0" type="qcurve"/>
      <point x="525.0" y="957.0" type="line"/>
    </contour>
  </outline>
</glyph>
<glyph name="breveinvertedcomb" format="2">
  <advance width="1024"/>
  <unicode hex="030F"/>
  <outline>
    <contour>
      <point x="303.0" y="964.0" type="qcurve"/>
      <point x="50.0" y="1043.0" type="line"/>
      <point x="99.0" y="1187.0"/>
      <point x="340.0" y="1429.0"/>
      <point x="513.0" y="1429.0" type="qcurve" smooth="yes"/>
      <point x="669.0" y="1429.0"/>
      <point x="917.0" y="1206.0"/>
      <point x="976.0" y="1041.0" type="qcurve"/>
      <point x="710.0" y="964.0" type="line"/>
      <point x="679.0" y="1004.0"/>
      <point x="577.0" y="1072.0"/>
      <point x="510.0" y="1072.0" type="qcurve" smooth="yes"/>
      <point x="437.0" y="1072.0"/>
      <point x="335.0" y="1006.0"/>
    </contour>
  </outline>
</glyph>
<glyph name="horncomb" format="2">
  <advance width="1024"/>
  <unicode hex="031B"/>
  <outline>
    <contour>
      <point x="0.0" y="897.25" type="line"/>
      <point x="84.5" y="897.25" type="line" smooth="yes"/>
      <point x="142.25" y="897.25"/>
      <point x="219.75" y="935.75"/>
      <point x="219.75" y="992.0" type="qcurve" smooth="yes"/>
      <point x="219.75" y="1043.75"/>
      <point x="205.5" y="1116.75"/>
      <point x="195.0" y="1151.75" type="qcurve"/>
      <point x="496.75" y="1151.75" type="line"/>
      <point x="525.5" y="1121.75"/>
      <point x="576.5" y="1022.0"/>
      <point x="576.5" y="943.75" type="qcurve" smooth="yes"/>
      <point x="576.5" y="834.0"/>
      <point x="367.25" y="725.0"/>
      <point x="220.0" y="725.0" type="qcurve" smooth="yes"/>
      <point x="150.0" y="725.0"/>
      <point x="40.0" y="740.0"/>
      <point x="0.0" y="752.0" type="qcurve"/>
    </contour>
  </outline>
</glyph>
<glyph name="dieresisbelowcomb" format="2">
  <advance width="1024"/>
  <unicode hex="0324"/>
  <outline>
    <contour>
      <point x="-1.0" y="-410.0" type="qcurve" smooth="yes"/>
      <point x="-1.0" y="-316.0"/>
      <point x="121.0" y="-186.0"/>
      <point x="237.0" y="-186.0" type="qcurve" smooth="yes"/>
      <point x="354.0" y="-186.0"/>
      <point x="476.0" y="-316.0"/>
      <point x="476.0" y="-410.0" type="qcurve" smooth="yes"/>
      <point x="476.0" y="-499.0"/>
      <point x="354.0" y="-626.0"/>
      <point x="237.0" y="-626.0" type="qcurve" smooth="yes"/>
      <point x="121.0" y="-626.0"/>
      <point x="-1.0" y="-499.0"/>
    </contour>
    <contour>
      <point x="548.0" y="-412.0" type="qcurve" smooth="yes"/>
      <point x="548.0" y="-318.0"/>
      <point x="667.0" y="-188.0"/>
      <point x="786.0" y="-188.0" type="qcurve" smooth="yes"/>
      <point x="899.0" y="-188.0"/>
      <point x="1024.0" y="-318.0"/>
      <point x="1024.0" y="-412.0" type="qcurve" smooth="yes"/>
      <point x="1024.0" y="-501.0"/>
      <point x="899.0" y="-628.0"/>
      <point x="786.0" y="-628.0" type="qcurve" smooth="yes"/>
      <point x="667.0" y="-628.0"/>
      <point x="548.0" y="-501.0"/>
    </contour>
  </outline>
</glyph>
<glyph name="commaaccentcomb" format="2">
  <advance width="1024"/>
  <unicode hex="0326"/>
  <outline>
    <contour>
      <point x="179.5" y="-552.0" type="line"/>
      <point x="212.5" y="-441.0"/>
      <point x="254.5" y="-291.75"/>
      <point x="282.0" y="-156.0" type="qcurve"/>
      <point x="858.0" y="-154.0" type="line"/>
      <point x="713.0" y="-555.0" type="line"/>
    </contour>
  </outline>
</glyph>
<glyph name="brevebelowcomb" format="2">
  <advance width="1022"/>
  <unicode hex="032E"/>
  <outline>
    <contour>
      <point x="741.0" y="-91.0" type="qcurve"/>
      <point x="1016.0" y="-173.0" type="line"/>
      <point x="963.0" y="-324.0"/>
      <point x="701.0" y="-576.0"/>
      <point x="513.0" y="-576.0" type="qcurve" smooth="yes"/>
      <point x="344.0" y="-576.0"/>
      <point x="74.0" y="-343.0"/>
      <point x="10.0" y="-171.0" type="qcurve"/>
      <point x="299.0" y="-91.0" type="line"/>
      <point x="333.0" y="-133.0"/>
      <point x="443.0" y="-204.0"/>
      <point x="516.0" y="-204.0" type="qcurve" smooth="yes"/>
      <point x="596.0" y="-204.0"/>
      <point x="706.0" y="-135.0"/>
    </contour>
  </outline>
</glyph>
<glyph name="dieresistonos" format="2">
  <advance width="1125"/>
  <unicode hex="0385"/>
  <outline>
    <contour>
      <point x="217.5" y="1061.75" type="qcurve" smooth="yes"/>
      <point x="121.0" y="1061.75"/>
      <point x="20.5" y="1165.25"/>
      <point x="20.5" y="1240.25" type="qcurve" smooth="yes"/>
      <point x="20.5" y="1316.75"/>
      <point x="123.0" y="1417.0"/>
      <point x="218.5" y="1417.0" type="qcurve" smooth="yes"/>
      <point x="311.75" y="1417.0"/>
      <point x="416.25" y="1316.75"/>
      <point x="416.25" y="1240.25" type="qcurve" smooth="yes"/>
      <point x="416.25" y="1165.25"/>
      <point x="311.75" y="1061.75"/>
    </contour>
    <contour>
      <point x="662.75" y="1057.75" type="line"/>
      <point x="434.5" y="1080.0" type="line"/>
      <point x="442.75" y="1533.0" type="line"/>
      <point x="788.75" y="1528.0" type="line"/>
    </contour>
    <contour>
      <point x="935.5" y="1062.5" type="qcurve" smooth="yes"/>
      <point x="841.25" y="1062.5"/>
      <point x="738.5" y="1166.0"/>
      <point x="738.5" y="1241.0" type="qcurve" smooth="yes"/>
      <point x="738.5" y="1317.5"/>
      <point x="842.25" y="1417.75"/>
      <point x="936.5" y="1417.75" type="qcurve" smooth="yes"/>
      <point x="1033.0" y="1417.75"/>
      <point x="1135.25" y="1317.5"/>
      <point x="1135.25" y="1241.0" type="qcurve" smooth="yes"/>
      <point x="1135.25" y="1166.0"/>
      <point x="1033.0" y="1062.5"/>
    </contour>
  </outline>
</glyph>
<glyph name="Theta" format="2">
  <advance width="2154"/>
  <unicode hex="0398"/>
  <outline>
    <contour>
      <point x="1077.5" y="-30.0" type="qcurve" smooth="yes"/>
      <point x="636.25" y="-30.0"/>
      <point x="29.0" y="341.75"/>
      <point x="29.0" y="735.25" type="qcurve" smooth="yes"/>
      <point x="29.0" y="740.75" type="line" smooth="yes"/>
      <point x="29.0" y="1119.25"/>
      <point x="636.75" y="1486.0"/>
      <point x="1077.5" y="1486.0" type="qcurve" smooth="yes"/>
      <point x="1518.25" y="1486.0"/>
      <point x="2125.0" y="1119.25"/>
      <point x="2125.0" y="740.75" type="qcurve" smooth="yes"/>
      <point x="2125.0" y="735.25" type="line" smooth="yes"/>
      <point x="2125.0" y="341.75"/>
      <point x="1518.75" y="-30.0"/>
    </contour>
    <contour>
      <point x="1079.5" y="342.0" type="qcurve" smooth="yes"/>
      <point x="1284.0" y="337.0"/>
      <point x="1511.5" y="529.25"/>
      <point x="1511.5" y="727.25" type="qcurve" smooth="yes"/>
      <point x="1511.5" y="740.75" type="line" smooth="yes"/>
      <point x="1511.5" y="925.75"/>
      <point x="1284.0" y="1095.0"/>
      <point x="1079.5" y="1100.0" type="qcurve" smooth="yes"/>
      <point x="871.25" y="1105.0"/>
      <point x="643.75" y="925.75"/>
      <point x="643.75" y="741.75" type="qcurve" smooth="yes"/>
      <point x="643.75" y="730.25" type="line" smooth="yes"/>
      <point x="643.75" y="529.25"/>
      <point x="872.0" y="347.0"/>
    </contour>
    <contour>
      <point x="806.25" y="595.0" type="line"/>
      <point x="806.25" y="836.0" type="line"/>
      <point x="1342.5" y="836.0" type="line"/>
      <point x="1342.5" y="595.0" type="line"/>
    </contour>
  </outline>
</glyph>
<glyph name="epsilon" format="2">
  <advance width="1647"/>
  <unicode hex="03B5"/>
  <anchor x="586.5" y="921.0" name="GRK_top"/>
  <outline>
    <contour>
      <point x="792.75" y="-20.0" type="qcurve"/>
      <point x="388.75" y="-20.0"/>
      <point x="40.75" y="131.25"/>
      <point x="40.75" y="250.25" type="qcurve" smooth="yes"/>
      <point x="40.75" y="373.75"/>
      <point x="216.5" y="476.0"/>
      <point x="366.0" y="476.0" type="qcurve"/>
      <point x="366.0" y="457.0" type="line"/>
      <point x="202.0" y="475.0"/>
      <point x="81.0" y="586.75"/>
      <point x="81.0" y="666.75" type="qcurve" smooth="yes"/>
      <point x="81.0" y="786.75"/>
      <point x="428.5" y="943.25"/>
      <point x="824.75" y="943.25" type="qcurve" smooth="yes"/>
      <point x="1235.5" y="943.25"/>
      <point x="1580.5" y="752.25"/>
      <point x="1596.25" y="527.0" type="qcurve"/>
      <point x="1059.5" y="527.0" type="line"/>
      <point x="1069.0" y="563.75"/>
      <point x="962.5" y="598.5"/>
      <point x="833.75" y="598.5" type="qcurve" smooth="yes"/>
      <point x="724.0" y="598.5"/>
      <point x="630.25" y="571.75"/>
      <point x="630.25" y="549.75" type="qcurve" smooth="yes"/>
      <point x="630.25" y="532.75"/>
      <point x="689.25" y="512.0"/>
      <point x="752.5" y="512.0" type="qcurve" smooth="yes"/>
      <point x="931.25" y="512.0" type="line"/>
      <point x="931.25" y="413.5" type="line"/>
      <point x="726.5" y="413.5" type="line" smooth="yes"/>
      <point x="663.0" y="413.5"/>
      <point x="601.75" y="394.5"/>
      <point x="601.75" y="371.75" type="qcurve" smooth="yes"/>
      <point x="601.75" y="347.5"/>
      <point x="697.0" y="325.75"/>
      <point x="797.5" y="325.75" type="qcurve"/>
      <point x="935.5" y="325.75"/>
      <point x="1060.75" y="353.5"/>
      <point x="1064.75" y="391.0" type="qcurve"/>
      <point x="1598.5" y="391.0" type="line"/>
      <point x="1598.5" y="170.25"/>
      <point x="1198.75" y="-20.0"/>
    </contour>
  </outline>
</glyph>
<glyph name="zeta" format="2">
  <advance width="1647"/>
  <unicode hex="03B6"/>
  <outline>
    <contour>
      <point x="828.0" y="-348.0" type="line"/>
      <point x="864.5" y="-302.5"/>
      <point x="917.5" y="-212.75"/>
      <point x="917.5" y="-167.5" type="qcurve" smooth="yes"/>
      <point x="917.5" y="-119.0"/>
      <point x="839.0" y="-68.75"/>
      <point x="752.0" y="-50.0" type="qcurve" smooth="yes"/>
      <point x="685.25" y="-36.75" type="line" smooth="yes"/>
      <point x="369.0" y="18.0"/>
      <point x="90.0" y="203.0"/>
      <point x="90.0" y="354.25" type="qcurve"/>
      <point x="90.0" y="512.75"/>
      <point x="241.5" y="717.0"/>
      <point x="424.5" y="820.25" type="qcurve" smooth="yes"/>
      <point x="649.0" y="986.5" type="line"/>
      <point x="678.75" y="964.0" type="line"/>
      <point x="98.5" y="964.0" type="line"/>
      <point x="98.5" y="1446.0" type="line"/>
      <point x="1510.25" y="1446.0" type="line"/>
      <point x="1510.25" y="997.25" type="line"/>
      <point x="1246.75" y="784.25" type="line" smooth="yes"/>
      <point x="1113.25" y="687.75"/>
      <point x="1003.0" y="559.25"/>
      <point x="1003.0" y="488.75" type="qcurve"/>
      <point x="1004.0" y="419.25"/>
      <point x="1096.75" y="341.75"/>
      <point x="1209.75" y="319.25" type="qcurve" smooth="yes"/>
      <point x="1282.75" y="304.75" type="line" smooth="yes"/>
      <point x="1433.5" y="274.25"/>
      <point x="1566.25" y="126.75"/>
      <point x="1566.25" y="-9.5" type="qcurve" smooth="yes"/>
      <point x="1566.25" y="-97.75"/>
      <point x="1484.0" y="-280.0"/>
      <point x="1418.75" y="-348.0" type="qcurve"/>
    </contour>
  </outline>
</glyph>
<glyph name="rho" format="2">
  <advance width="1684"/>
  <unicode hex="03C1"/>
  <outline>
    <contour>
      <point x="93.75" y="-444.0" type="line"/>
      <point x="93.75" y="412.0" type="line" smooth="yes"/>
      <point x="93.75" y="666.0"/>
      <point x="604.25" y="952.0"/>
      <point x="949.5" y="952.0" type="qcurve" smooth="yes"/>
      <point x="1262.75" y="952.0"/>
      <point x="1638.75" y="712.25"/>
      <point x="1638.75" y="478.0" type="qcurve" smooth="yes"/>
      <point x="1638.75" y="443.0" type="line" smooth="yes"/>
      <point x="1638.75" y="194.75"/>
      <point x="1292.0" y="-20.0"/>
      <point x="1054.25" y="-20.0" type="qcurve" smooth="yes"/>
      <point x="946.5" y="-20.0"/>
      <point x="725.5" y="34.5"/>
      <point x="657.25" y="105.25" type="qcurve"/>
      <point x="657.25" y="-444.0" type="line"/>
    </contour>
    <contour>
      <point x="881.5" y="314.5" type="qcurve" smooth="yes"/>
      <point x="973.25" y="314.5"/>
      <point x="1087.75" y="358.25"/>
      <point x="1087.75" y="427.0" type="qcurve" smooth="yes"/>
      <point x="1087.75" y="477.75" type="line" smooth="yes"/>
      <point x="1087.75" y="538.0"/>
      <point x="983.75" y="589.5"/>
      <point x="881.5" y="589.5" type="qcurve" smooth="yes"/>
      <point x="732.5" y="589.5"/>
      <point x="657.25" y="515.0"/>
      <point x="657.25" y="446.0" type="qcurve" smooth="yes"/>
      <point x="657.25" y="389.25" type="line"/>
      <point x="674.75" y="360.75"/>
      <point x="806.25" y="314.5"/>
    </contour>
  </outline>
</glyph>
<glyph name="tau" format="2">
  <advance width="906"/>
  <unicode hex="03C4"/>
  <outline>
    <contour>
      <point x="-30.0" y="660.0" type="line"/>
      <point x="-30.0" y="920.0" type="line"/>
      <point x="899.5" y="920.0" type="line"/>
      <point x="899.5" y="660.0" type="line"/>
    </contour>
    <contour>
      <point x="482.75" y="-19.0" type="qcurve" smooth="yes"/>
      <point x="304.5" y="-19.0"/>
      <point x="89.25" y="151.0"/>
      <point x="89.25" y="364.0" type="qcurve" smooth="yes"/>
      <point x="91.25" y="923.0" type="line"/>
      <point x="669.75" y="923.0" type="line"/>
      <point x="669.75" y="439.0" type="line" smooth="yes"/>
      <point x="669.75" y="361.5"/>
      <point x="735.75" y="314.25"/>
      <point x="778.75" y="314.25" type="qcurve" smooth="yes"/>
      <point x="807.5" y="314.25"/>
      <point x="867.25" y="326.0"/>
      <point x="891.0" y="336.0" type="qcurve"/>
      <point x="891.0" y="5.5" type="line"/>
      <point x="872.5" y="-2.75"/>
      <point x="570.25" y="-19.0"/>
    </contour>
  </outline>
</glyph>
<glyph name="omega" format="2">
  <advance width="2384"/>
  <unicode hex="03C9"/>
  <anchor x="727.0" y="914.0" name="GRK_top"/>
  <outline>
    <contour>
      <point x="689.25" y="-20.0" type="qcurve" smooth="yes"/>
      <point x="346.0" y="-20.0"/>
      <point x="45.5" y="210.5"/>
      <point x="45.5" y="399.75" type="qcurve"/>
      <point x="45.5" y="569.25"/>
      <point x="175.25" y="837.75"/>
      <point x="309.5" y="921.0" type="qcurve"/>
      <point x="782.75" y="919.0" type="line"/>
      <point x="747.75" y="876.25"/>
      <point x="611.75" y="617.0"/>
      <point x="611.75" y="479.25" type="qcurve"/>
      <point x="611.75" y="399.25"/>
      <point x="688.0" y="328.75"/>
      <point x="772.25" y="328.75" type="qcurve"/>
      <point x="842.75" y="328.75"/>
      <point x="907.25" y="386.25"/>
      <point x="907.25" y="462.0" type="qcurve" smooth="yes"/>
      <point x="907.25" y="688.0" type="line"/>
      <point x="1473.75" y="688.0" type="line"/>
      <point x="1473.75" y="462.0" type="line" smooth="yes"/>
      <point x="1473.75" y="386.25"/>
      <point x="1538.5" y="328.75"/>
      <point x="1608.75" y="328.75" type="qcurve"/>
      <point x="1693.0" y="328.75"/>
      <point x="1770.25" y="399.25"/>
      <point x="1770.25" y="479.25" type="qcurve"/>
      <point x="1770.25" y="617.0"/>
      <point x="1634.5" y="876.25"/>
      <point x="1600.5" y="919.0" type="qcurve"/>
      <point x="2074.5" y="921.0" type="line"/>
      <point x="2208.75" y="837.75"/>
      <point x="2338.5" y="569.25"/>
      <point x="2338.5" y="399.75" type="qcurve"/>
      <point x="2338.5" y="210.5"/>
      <point x="2038.0" y="-20.0"/>
      <point x="1694.75" y="-20.0" type="qcurve" smooth="yes"/>
      <point x="1484.0" y="-20.0"/>
      <point x="1237.0" y="87.75"/>
      <point x="1168.25" y="213.5" type="qcurve"/>
      <point x="1217.75" y="213.5" type="line"/>
      <point x="1148.0" y="87.75"/>
      <point x="900.0" y="-20.0"/>
    </contour>
  </outline>
</glyph>
<glyph name="Dje" format="2">
  <advance width="2181"/>
  <unicode hex="0402"/>
  <guideline x="629.0" y="1151.0" angle="90.0" identifier="YDADns81zF"/>
  <outline>
    <contour>
      <point x="549.0" y="0.0" type="line"/>
      <point x="549.0" y="1003.25" type="line"/>
      <point x="16.0" y="1003.25" type="line"/>
      <point x="16.0" y="1456.0" type="line"/>
      <point x="1756.5" y="1456.0" type="line"/>
      <point x="1756.5" y="1003.25" type="line"/>
      <point x="1143.75" y="1003.25" type="line"/>
      <point x="1143.75" y="0.0" type="line"/>
    </contour>
    <contour>
      <point x="1389.25" y="-270.75" type="line"/>
      <point x="1389.25" y="187.75" type="line"/>
      <point x="1444.0" y="187.75" type="line" smooth="yes"/>
      <point x="1516.64024390245" y="187.75"/>
      <point x="1584.25" y="234.75"/>
      <point x="1584.25" y="288.75" type="qcurve" smooth="yes"/>
      <point x="1584.25" y="297.75" type="line" smooth="yes"/>
      <point x="1584.25" y="354.5"/>
      <point x="1473.53337696335" y="402.75"/>
      <point x="1372.25" y="402.75" type="qcurve" smooth="yes"/>
      <point x="1233.003885893975" y="402.75"/>
      <point x="1000.9371317555751" y="385.42262398257503"/>
      <point x="877.25" y="361.25" type="qcurve"/>
      <point x="877.25" y="804.0" type="line"/>
      <point x="1002.6773978244751" y="829.67868794015"/>
      <point x="1242.7177307662" y="855.25"/>
      <point x="1421.25" y="855.25" type="qcurve" smooth="yes"/>
      <point x="1819.28271484375" y="855.25"/>
      <point x="2175.0" y="579.75"/>
      <point x="2175.0" y="299.5" type="qcurve" smooth="yes"/>
      <point x="2175.0" y="277.25" type="line" smooth="yes"/>
      <point x="2175.0" y="-28.25"/>
      <point x="1830.1192722372" y="-270.75"/>
      <point x="1501.0" y="-270.75" type="qcurve" smooth="yes"/>
    </contour>
  </outline>
</glyph>
<glyph name="Be" format="2">
  <advance width="1826"/>
  <unicode hex="0411"/>
  <outline>
    <contour>
      <point x="145.0" y="0.0" type="line"/>
      <point x="145.0" y="1456.0" type="line"/>
      <point x="1701.25" y="1456.0" type="line"/>
      <point x="1701.25" y="1031.25" type="line"/>
      <point x="729.75" y="1031.25" type="line"/>
      <point x="729.75" y="932.0" type="line"/>
      <point x="1198.5" y="932.0" type="line" smooth="yes"/>
      <point x="1505.25" y="932.0"/>
      <point x="1803.25" y="712.0"/>
      <point x="1803.25" y="489.5" type="qcurve" smooth="yes"/>
      <point x="1803.25" y="257.25"/>
      <point x="1498.25" y="0.0"/>
      <point x="1194.5" y="0.0" type="qcurve" smooth="yes"/>
    </contour>
    <contour>
      <point x="729.75" y="608.25" type="line"/>
      <point x="729.75" y="354.75" type="line"/>
      <point x="1031.5" y="354.75" type="line" smooth="yes"/>
      <point x="1135.25" y="354.75"/>
      <point x="1220.5" y="415.25"/>
      <point x="1220.5" y="480.5" type="qcurve" smooth="yes"/>
      <point x="1220.5" y="541.75"/>
      <point x="1135.25" y="608.25"/>
      <point x="1031.5" y="608.25" type="qcurve" smooth="yes"/>
    </contour>
  </outline>
</glyph>
<glyph name="De" format="2">
  <advance width="1975"/>
  <unicode hex="0414"/>
  <outline>
    <contour>
      <point x="1413.25" y="-290.0" type="line"/>
      <point x="1413.25" y="0.0" type="line"/>
      <point x="557.0" y="0.0" type="line"/>
      <point x="557.0" y="-290.0" type="line"/>
      <point x="9.0" y="-290.0" type="line"/>
      <point x="9.0" y="454.5" type="line"/>
      <point x="1961.25" y="454.5" type="line"/>
      <point x="1961.25" y="-290.0" type="line"/>
    </contour>
    <contour>
      <point x="243.0" y="1456.0" type="line"/>
      <point x="1758.75" y="1456.0" type="line"/>
      <point x="1758.75" y="0.0" type="line"/>
      <point x="1174.0" y="0.0" type="line"/>
      <point x="1174.0" y="1001.5" type="line"/>
      <point x="741.0" y="1001.5" type="line"/>
      <point x="729.75" y="787.25" type="line" smooth="yes"/>
      <point x="720.0" y="604.5"/>
      <point x="690.75" y="424.5"/>
      <point x="662.0" y="364.5" type="qcurve"/>
      <point x="117.25" y="364.5" type="line"/>
      <point x="161.75" y="433.25"/>
      <point x="199.0" y="630.5"/>
      <point x="209.75" y="823.5" type="qcurve" smooth="yes"/>
    </contour>
  </outline>
</glyph>
<glyph name="El" format="2">
  <advance width="1915"/>
  <unicode hex="041B"/>
  <outline>
    <contour>
      <point x="257" y="1456" type="line"/>
      <point x="1775" y="1456" type="line"/>
      <point x="1775" y="0" type="line"/>
      <point x="1175" y="0" type="line"/>
      <point x="1175" y="986" type="line"/>
      <point x="777" y="986" type="line"/>
      <point x="758" y="624" type="line" smooth="yes"/>
      <point x="742" y="314"/>
      <point x="536.0" y="-30.0"/>
      <point x="241" y="-30" type="qcurve" smooth="yes"/>
      <point x="146.0" y="-30.0"/>
      <point x="40" y="-12.0"/>
      <point x="10" y="0" type="qcurve"/>
      <point x="10" y="532" type="line"/>
      <point x="33" y="524"/>
      <point x="71" y="519"/>
      <point x="91" y="519" type="qcurve" smooth="yes"/>
      <point x="163" y="519"/>
      <point x="211" y="601"/>
      <point x="216" y="687" type="qcurve" smooth="yes"/>
    </contour>
  </outline>
</glyph>
<glyph name="Shcha" format="2">
	<unicode hex="0429"/>
	<advance width="2830"/>
	<outline>
		<contour>
			<point x="140" y="1456" type="line"/>
			<point x="740" y="1456" type="line"/>
			<point x="740" y="470" type="line"/>
			<point x="1080" y="470" type="line"/>
			<point x="1080" y="1456" type="line"/>
			<point x="1680" y="1456" type="line"/>
			<point x="1680" y="470" type="line"/>
			<point x="2020" y="470" type="line"/>
			<point x="2020" y="1456" type="line"/>
			<point x="2620" y="1456" type="line"/>
			<point x="2620" y="470" type="line"/>
			<point x="2820" y="470" type="line"/>
			<point x="2820" y="-290" type="line"/>
			<point x="2260" y="-290" type="line"/>
			<point x="2260" y="0" type="line"/>
			<point x="140" y="0" type="line"/>
		</contour>
	</outline>
</glyph>
<glyph name="Hard" format="2">
	<unicode hex="042A"/>
	<advance width="1973"/>
	<outline>
		<contour>
			<point x="16" y="990" type="line"/>
			<point x="16" y="1456" type="line"/>
			<point x="866" y="1456" type="line"/>
			<point x="866" y="1117" type="line"/>
			<point x="1319" y="1117" type="line" smooth="yes"/>
			<point x="1645" y="1117"/>
			<point x="1942" y="814"/>
			<point x="1942" y="562" type="qcurve" smooth="yes"/>
			<point x="1942" y="295"/>
			<point x="1635" y="0"/>
			<point x="1332" y="0" type="qcurve" smooth="yes"/>
			<point x="266" y="0" type="line"/>
			<point x="266" y="990" type="line"/>
		</contour>
		<contour>
			<point x="866" y="697" type="line"/>
			<point x="866" y="420" type="line"/>
			<point x="1169" y="420" type="line" smooth="yes"/>
			<point x="1265" y="420"/>
			<point x="1344" y="485"/>
			<point x="1344" y="558" type="qcurve" smooth="yes"/>
			<point x="1344" y="625"/>
			<point x="1265" y="697"/>
			<point x="1169" y="697" type="qcurve" smooth="yes"/>
		</contour>
	</outline>
</glyph>
<glyph name="Yu" format="2">
  <advance width="2924"/>
  <unicode hex="042E"/>
  <outline>
    <contour>
      <point x="145.0" y="0.0" type="line"/>
      <point x="145.0" y="1456.0" type="line"/>
      <point x="729.75" y="1456.0" type="line"/>
      <point x="729.75" y="994.25" type="line"/>
      <point x="1233.75" y="994.25" type="line"/>
      <point x="1233.75" y="510.75" type="line"/>
      <point x="729.75" y="510.75" type="line"/>
      <point x="729.75" y="0.0" type="line"/>
    </contour>
    <contour>
      <point x="885.25" y="735.25" type="qcurve" smooth="yes"/>
      <point x="885.25" y="740.75" type="line" smooth="yes"/>
      <point x="885.25" y="1119.25"/>
      <point x="1464.5226510067" y="1480.0"/>
      <point x="1885.5" y="1480.0" type="qcurve" smooth="yes"/>
      <point x="2310.598030821925" y="1480.0"/>
      <point x="2895.0" y="1119.25"/>
      <point x="2895.0" y="740.75" type="qcurve" smooth="yes"/>
      <point x="2895.0" y="735.25" type="line" smooth="yes"/>
      <point x="2895.0" y="341.75"/>
      <point x="2310.598030821925" y="-24.0"/>
      <point x="1885.5" y="-24.0" type="qcurve" smooth="yes"/>
      <point x="1464.5226510067" y="-24.0"/>
      <point x="885.25" y="341.75"/>
    </contour>
    <contour>
      <point x="1490.0" y="730.25" type="line" smooth="yes"/>
      <point x="1490.0" y="529.25"/>
      <point x="1700.7645788337" y="351.75"/>
      <point x="1887.5" y="346.75" type="qcurve" smooth="yes"/>
      <point x="2071.612527716175" y="341.75"/>
      <point x="2281.25" y="529.25"/>
      <point x="2281.25" y="727.25" type="qcurve" smooth="yes"/>
      <point x="2281.25" y="740.75" type="line" smooth="yes"/>
      <point x="2281.25" y="925.75"/>
      <point x="2071.612527716175" y="1090.25"/>
      <point x="1887.5" y="1095.25" type="qcurve" smooth="yes"/>
      <point x="1700.0156587473" y="1100.25"/>
      <point x="1490.0" y="925.75"/>
      <point x="1490.0" y="741.75" type="qcurve" smooth="yes"/>
    </contour>
  </outline>
</glyph>
<glyph name="ve" format="2">
  <advance width="1587"/>
  <unicode hex="0432"/>
  <outline>
    <contour>
      <point x="88" y="0" type="line"/>
      <point x="88" y="914" type="line"/>
      <point x="1105" y="914" type="line" smooth="yes"/>
      <point x="1321.861111111111" y="914"/>
      <point x="1527.0" y="791.0"/>
      <point x="1527" y="675" type="qcurve" smooth="yes"/>
      <point x="1527.0" y="585.0"/>
      <point x="1421.1115640756707" y="483.0223128151341"/>
      <point x="1311" y="461" type="qcurve"/>
      <point x="1311" y="457" type="line"/>
      <point x="1436" y="447"/>
      <point x="1557" y="355"/>
      <point x="1557" y="275" type="qcurve" smooth="yes"/>
      <point x="1557" y="137"/>
      <point x="1331" y="0"/>
      <point x="1105" y="0" type="qcurve" smooth="yes"/>
    </contour>
    <contour>
      <point x="669" y="559" type="line"/>
      <point x="868" y="559" type="line" smooth="yes"/>
      <point x="913.0" y="559.0"/>
      <point x="957" y="585"/>
      <point x="957" y="617" type="qcurve" smooth="yes"/>
      <point x="957" y="652"/>
      <point x="914.0" y="679.0"/>
      <point x="868" y="679" type="qcurve" smooth="yes"/>
      <point x="669" y="679" type="line"/>
    </contour>
    <contour>
      <point x="669" y="235" type="line"/>
      <point x="893" y="235" type="line" smooth="yes"/>
      <point x="931" y="235"/>
      <point x="973" y="262"/>
      <point x="973" y="297" type="qcurve" smooth="yes"/>
      <point x="973" y="329"/>
      <point x="930" y="355"/>
      <point x="893" y="355" type="qcurve" smooth="yes"/>
      <point x="669" y="355" type="line"/>
    </contour>
  </outline>
</glyph>
<glyph name="de" format="2">
  <advance width="1660"/>
  <unicode hex="0434"/>
  <outline>
    <contour>
      <point x="1119.0" y="-270.0" type="line"/>
      <point x="1119.0" y="0.0" type="line"/>
      <point x="536.0" y="0.0" type="line"/>
      <point x="536.0" y="-270.0" type="line"/>
      <point x="7.5" y="-270.0" type="line"/>
      <point x="7.5" y="366.25" type="line"/>
      <point x="1647.5" y="366.25" type="line"/>
      <point x="1647.5" y="-270.0" type="line"/>
    </contour>
    <contour>
      <point x="657.5" y="547.75" type="line"/>
      <point x="655.25" y="533.25" type="line" smooth="yes"/>
      <point x="647.732876582375" y="434.995621485825"/>
      <point x="614.3084123226499" y="327.8650545749"/>
      <point x="592.75" y="287.25" type="qcurve"/>
      <point x="112.25" y="287.25" type="line"/>
      <point x="136.355769230775" y="333.6191860465"/>
      <point x="182.25" y="554.0"/>
      <point x="197.25" y="743.5" type="qcurve" smooth="yes"/>
      <point x="211.25" y="914.0" type="line"/>
      <point x="1507.5" y="914.0" type="line"/>
      <point x="1507.5" y="0.0" type="line"/>
      <point x="941.0" y="0.0" type="line"/>
      <point x="941.0" y="547.75" type="line"/>
    </contour>
  </outline>
</glyph>
<glyph name="icyr" format="2">
  <advance width="1652"/>
  <unicode hex="0438"/>
  <outline>
    <contour>
      <point x="90.5" y="0.0" type="line"/>
      <point x="90.5" y="914.0" type="line"/>
      <point x="657.0" y="914.0" type="line"/>
      <point x="657.0" y="625.5" type="line" smooth="yes"/>
      <point x="657.0" y="598.5"/>
      <point x="656.0" y="527.0"/>
      <point x="655.0" y="499.0" type="qcurve"/>
      <point x="664.0" y="499.0" type="line"/>
      <point x="682.0" y="529.5"/>
      <point x="707.25" y="569.0"/>
      <point x="741.0" y="608.5" type="qcurve" smooth="yes"/>
      <point x="993.0" y="914.0" type="line"/>
      <point x="1561.5" y="914.0" type="line"/>
      <point x="1561.5" y="0.0" type="line"/>
      <point x="995.0" y="0.0" type="line"/>
      <point x="995.0" y="295.75" type="line" smooth="yes"/>
      <point x="995.0" y="323.75"/>
      <point x="996.0" y="395.25"/>
      <point x="998.0" y="423.25" type="qcurve"/>
      <point x="988.0" y="423.25" type="line"/>
      <point x="970.0" y="396.75"/>
      <point x="948.25" y="358.75"/>
      <point x="911.0" y="313.75" type="qcurve" smooth="yes"/>
      <point x="659.0" y="0.0" type="line"/>
    </contour>
  </outline>
</glyph>
<glyph name="ka" format="2">
  <advance width="1716"/>
  <unicode hex="043A"/>
  <guideline x="241.0" y="553.0" angle="90.0" identifier="lmgRx0QBdK"/>
  <outline>
    <contour>
      <point x="1071.0" y="0.0" type="line"/>
      <point x="662.5" y="382.25" type="line"/>
      <point x="1036.25" y="624.75" type="line"/>
      <point x="1746.75" y="0.0" type="line"/>
    </contour>
    <contour>
      <point x="374.25" y="643.5" type="line"/>
      <point x="771.75" y="643.5" type="line"/>
      <point x="1042.25" y="914.0" type="line"/>
      <point x="1665.5" y="914.0" type="line"/>
      <point x="945.5" y="277.25" type="line"/>
      <point x="374.25" y="277.25" type="line"/>
    </contour>
    <contour>
      <point x="657.0" y="914.0" type="line"/>
      <point x="657.0" y="0.0" type="line"/>
      <point x="90.5" y="0.0" type="line"/>
      <point x="90.5" y="914.0" type="line"/>
    </contour>
  </outline>
</glyph>
<glyph name="ef" format="2">
  <advance width="2273"/>
  <unicode hex="0444"/>
  <outline>
    <contour>
      <point x="623" y="451" type="line" smooth="yes"/>
      <point x="623" y="394"/>
      <point x="729" y="343"/>
      <point x="831" y="343" type="qcurve"/>
      <point x="831" y="574" type="line"/>
      <point x="728" y="574"/>
      <point x="623" y="526"/>
      <point x="623" y="466" type="qcurve" smooth="yes"/>
    </contour>
    <contour>
      <point x="1650" y="474" type="line" smooth="yes"/>
      <point x="1650" y="531"/>
      <point x="1544" y="582"/>
      <point x="1441" y="582" type="qcurve"/>
      <point x="1441" y="351" type="line"/>
      <point x="1544" y="351"/>
      <point x="1650" y="399"/>
      <point x="1650" y="459" type="qcurve" smooth="yes"/>
    </contour>
    <contour>
      <point x="831" y="-37" type="line"/>
      <point x="470" y="-27"/>
      <point x="40" y="223.0"/>
      <point x="40" y="459" type="qcurve" smooth="yes"/>
      <point x="40" y="471" type="line" smooth="yes"/>
      <point x="40" y="699.0"/>
      <point x="472" y="952"/>
      <point x="831" y="962" type="qcurve"/>
      <point x="831" y="1456" type="line"/>
      <point x="1441" y="1456" type="line"/>
      <point x="1441" y="962" type="line"/>
      <point x="1802" y="952"/>
      <point x="2233.0" y="702.0"/>
      <point x="2233" y="466" type="qcurve" smooth="yes"/>
      <point x="2233" y="454" type="line" smooth="yes"/>
      <point x="2233.0" y="226.0"/>
      <point x="1801" y="-27"/>
      <point x="1441" y="-37" type="qcurve"/>
      <point x="1441" y="-388" type="line"/>
      <point x="831" y="-388" type="line"/>
    </contour>
  </outline>
</glyph>
<glyph name="ecyr" format="2">
  <advance width="1567"/>
  <unicode hex="044D"/>
  <outline>
    <contour>
      <point x="1522.75" y="460.0" type="line" smooth="yes"/>
      <point x="1522.75" y="219.0"/>
      <point x="1121.66769547325" y="-36.0"/>
      <point x="762.5" y="-36.0" type="qcurve" smooth="yes"/>
      <point x="408.726635514025" y="-36.0"/>
      <point x="57.0" y="183.25"/>
      <point x="47.0" y="362.0" type="qcurve" smooth="yes"/>
      <point x="45.0" y="396.0" type="line"/>
      <point x="515.75" y="396.0" type="line"/>
      <point x="517.75" y="382.0" type="line" smooth="yes"/>
      <point x="521.75" y="351.25"/>
      <point x="626.310483870975" y="309.5"/>
      <point x="745.5" y="309.5" type="qcurve" smooth="yes"/>
      <point x="867.533783783775" y="309.5"/>
      <point x="977.75" y="373.0"/>
      <point x="977.75" y="453.5" type="qcurve" smooth="yes"/>
      <point x="977.75" y="460.5" type="line" smooth="yes"/>
      <point x="977.75" y="531.0"/>
      <point x="859.03424657535" y="598.5"/>
      <point x="742.5" y="598.5" type="qcurve" smooth="yes"/>
      <point x="622.060483870975" y="598.5"/>
      <point x="528.0" y="555.75"/>
      <point x="522.0" y="519.0" type="qcurve" smooth="yes"/>
      <point x="520.0" y="509.0" type="line"/>
      <point x="45.25" y="509.0" type="line"/>
      <point x="48.25" y="541.0" type="line" smooth="yes"/>
      <point x="66.25" y="729.75"/>
      <point x="426.976635514025" y="962.0"/>
      <point x="766.5" y="962.0" type="qcurve" smooth="yes"/>
      <point x="1120.417012448125" y="962.0"/>
      <point x="1522.75" y="703.0"/>
      <point x="1522.75" y="473.0" type="qcurve" smooth="yes"/>
    </contour>
    <contour>
      <point x="1005.0" y="512.5" type="line"/>
      <point x="1005.0" y="401.25" type="line"/>
      <point x="573.75" y="401.25" type="line"/>
      <point x="573.75" y="512.5" type="line"/>
    </contour>
  </outline>
</glyph>
<glyph name="dje" format="2">
	<unicode hex="0452"/>
	<advance width="1647"/>
	<outline>
		<contour>
			<point x="304" y="1042" type="line"/>
			<point x="22" y="1042" type="line"/>
			<point x="26" y="1287" type="line"/>
			<point x="309" y="1287" type="line"/>
			<point x="1062" y="1287" type="line"/>
			<point x="1062" y="1042" type="line"/>
		</contour>
		<contour>
			<point x="1575" y="146" type="line" smooth="yes"/>
			<point x="1575" y="-166"/>
			<point x="1297" y="-440"/>
			<point x="1043" y="-440" type="qcurve" smooth="yes"/>
			<point x="914" y="-440"/>
			<point x="783" y="-413"/>
			<point x="748" y="-404" type="qcurve"/>
			<point x="736" y="-9" type="line"/>
			<point x="755" y="-15"/>
			<point x="808" y="-25"/>
			<point x="854" y="-25" type="qcurve" smooth="yes"/>
			<point x="927" y="-25"/>
			<point x="995" y="69"/>
			<point x="995" y="168" type="qcurve" smooth="yes"/>
			<point x="995" y="432" type="line" smooth="yes"/>
			<point x="995" y="480"/>
			<point x="943" y="539"/>
			<point x="874" y="539" type="qcurve" smooth="yes"/>
			<point x="805" y="539"/>
			<point x="687" y="479"/>
			<point x="669" y="445" type="qcurve"/>
			<point x="669" y="0" type="line"/>
			<point x="88" y="0" type="line"/>
			<point x="88" y="1454" type="line"/>
			<point x="668" y="1454" type="line"/>
			<point x="668" y="745" type="line"/>
			<point x="695" y="799"/>
			<point x="937" y="956"/>
			<point x="1127" y="956" type="qcurve" smooth="yes"/>
			<point x="1335" y="956"/>
			<point x="1575" y="739"/>
			<point x="1575" y="556" type="qcurve" smooth="yes"/>
		</contour>
	</outline>
</glyph>
<glyph name="nje" format="2">
  <advance width="2423"/>
  <unicode hex="045A"/>
  <outline>
    <contour>
      <point x="90.5" y="914.0" type="line"/>
      <point x="657.0" y="914.0" type="line"/>
      <point x="657.0" y="653.5" type="line"/>
      <point x="959.0" y="653.5" type="line"/>
      <point x="959.0" y="914.0" type="line"/>
      <point x="1525.5" y="914.0" type="line"/>
      <point x="1525.5" y="653.5" type="line"/>
      <point x="1917.0" y="653.5" type="line" smooth="yes"/>
      <point x="2155.5" y="653.5"/>
      <point x="2394.0" y="478.0"/>
      <point x="2394.0" y="319.25" type="qcurve" smooth="yes"/>
      <point x="2394.0" y="156.25"/>
      <point x="2155.5" y="0.0"/>
      <point x="1917.0" y="0.0" type="qcurve" smooth="yes"/>
      <point x="959.0" y="0.0" type="line"/>
      <point x="959.0" y="287.25" type="line"/>
      <point x="657.0" y="287.25" type="line"/>
      <point x="657.0" y="0.0" type="line"/>
      <point x="90.5" y="0.0" type="line"/>
    </contour>
    <contour>
      <point x="1696.0" y="400.25" type="qcurve" smooth="yes"/>
      <point x="1525.5" y="400.25" type="line"/>
      <point x="1525.5" y="253.25" type="line"/>
      <point x="1696.0" y="253.25" type="line" smooth="yes"/>
      <point x="1761.5" y="253.25"/>
      <point x="1824.0" y="287.608695652175"/>
      <point x="1824.0" y="327.25" type="qcurve" smooth="yes"/>
      <point x="1824.0" y="366.883333333325"/>
      <point x="1760.5" y="400.0"/>
    </contour>
  </outline>
</glyph>
<glyph name="dzhe" format="2">
  <advance width="1623"/>
  <unicode hex="045F"/>
  <outline>
    <contour>
      <point x="90.5" y="0.0" type="line"/>
      <point x="90.5" y="914.0" type="line"/>
      <point x="657.0" y="914.0" type="line"/>
      <point x="657.0" y="366.25" type="line"/>
      <point x="966.0" y="366.25" type="line"/>
      <point x="966.0" y="914.0" type="line"/>
      <point x="1532.5" y="914.0" type="line"/>
      <point x="1532.5" y="0.0" type="line"/>
      <point x="1075.25" y="0.0" type="line"/>
      <point x="1075.25" y="-270.0" type="line"/>
      <point x="546.75" y="-270.0" type="line"/>
      <point x="546.75" y="0.0" type="line"/>
    </contour>
  </outline>
</glyph>
